<?xml version="1.0" standalone="no"?>
<!DOCTYPE svg PUBLIC "-//W3C//DTD SVG 1.1//EN" "http://www.w3.org/Graphics/SVG/1.1/DTD/svg11.dtd" >
<svg xmlns="http://www.w3.org/2000/svg">
<metadata>
Created by FontForge 20120731 at Tue Mar  1 15:29:23 2016
 By Ads
</metadata>
<defs>
<font id="iconfont" horiz-adv-x="1024" >
  <font-face 
    font-family="iconfont"
    font-weight="500"
    font-stretch="normal"
    units-per-em="1024"
    panose-1="2 0 6 3 0 0 0 0 0 0"
    ascent="896"
    descent="-128"
    x-height="792"
    bbox="34 -88 989 856"
    underline-thickness="50"
    underline-position="-100"
    unicode-range="U+0078-E63C"
  />
<missing-glyph horiz-adv-x="374" 
d="M34 0v682h272v-682h-272zM68 34h204v614h-204v-614z" />
    <glyph glyph-name=".notdef" horiz-adv-x="374" 
d="M34 0v682h272v-682h-272zM68 34h204v614h-204v-614z" />
    <glyph glyph-name=".null" horiz-adv-x="0" 
 />
    <glyph glyph-name="nonmarkingreturn" horiz-adv-x="341" 
 />
    <glyph glyph-name="x" unicode="x" horiz-adv-x="1001" 
d="M281 543q-27 -1 -53 -1h-83q-18 0 -36.5 -6t-32.5 -18.5t-23 -32t-9 -45.5v-76h912v41q0 16 -0.5 30t-0.5 18q0 13 -5 29t-17 29.5t-31.5 22.5t-49.5 9h-133v-97h-438v97zM955 310v-52q0 -23 0.5 -52t0.5 -58t-10.5 -47.5t-26 -30t-33 -16t-31.5 -4.5q-14 -1 -29.5 -0.5
t-29.5 0.5h-32l-45 128h-439l-44 -128h-29h-34q-20 0 -45 1q-25 0 -41 9.5t-25.5 23t-13.5 29.5t-4 30v167h911zM163 247q-12 0 -21 -8.5t-9 -21.5t9 -21.5t21 -8.5q13 0 22 8.5t9 21.5t-9 21.5t-22 8.5zM316 123q-8 -26 -14 -48q-5 -19 -10.5 -37t-7.5 -25t-3 -15t1 -14.5
t9.5 -10.5t21.5 -4h37h67h81h80h64h36q23 0 34 12t2 38q-5 13 -9.5 30.5t-9.5 34.5q-5 19 -11 39h-368zM336 498v228q0 11 2.5 23t10 21.5t20.5 15.5t34 6h188q31 0 51.5 -14.5t20.5 -52.5v-227h-327z" />
    <glyph glyph-name="uniE600" unicode="&#xe600;" 
d="M260 132h-28q-72 0 -120 48t-48 120q0 47 22 85.5t60.5 60t85.5 21.5h28v-335zM204 408q-38 -8 -61 -38t-23 -70.5t23 -70.5t61 -38v217zM791 132h-28v335h28q71 0 119 -48t48 -119q0 -29 -8 -54.5t-23 -46t-35.5 -36t-46.5 -23.5t-54 -8zM819 408v-217q37 8 60.5 38
t23.5 71t-23.5 70.5t-60.5 37.5zM819 -8v56q11 0 19.5 7t8.5 21h56q0 -36 -24.5 -60t-59.5 -24zM707 48h112v-56h-112v56zM638 -64q-35 0 -59.5 24.5t-24.5 59.5q0 11 3 22t8.5 20t13 17t17 13.5t20 8.5t22.5 3q34 0 59 -25t25 -59q0 -23 -11.5 -42.5t-31 -30.5t-41.5 -11z
M638 48q-8 0 -14.5 -4t-10 -10.5t-3.5 -14t3.5 -14t10 -10t14.5 -3.5q11 0 19.5 8t8.5 19.5t-8.5 20t-19.5 8.5zM819 523h-56q0 104 -74 178t-178 74q-68 0 -126 -34t-91.5 -92t-33.5 -126h-56q0 127 90 217.5t217 90.5t217.5 -90.5t90.5 -217.5z" />
    <glyph glyph-name="uniE601" unicode="&#xe601;" 
d="M411 565l-94 -97q39 -89 114 -167t161 -107l82 82q195 -34 239 -55q54 -27 44 -110q-2 -22 -17 -50.5t-39.5 -57t-63.5 -48t-84 -19.5q-97 -1 -223.5 65t-226.5 172q-73 77 -126.5 153t-86 163t-23.5 160q3 25 10.5 46.5t17 38t22 30.5t25 23.5t26.5 17.5t26 12.5t24 8
t20 4.5t15 2q51 4 80 -33q12 -14 31.5 -73t33 -109.5t13.5 -51.5v0zM304 767q-23 30 -71 18q-12 -3 -28 -11t-37.5 -23.5t-38 -43.5t-20.5 -62q-11 -85 47.5 -208.5t165.5 -226.5q225 -219 406 -234q34 -2 64.5 7.5t51 25t37 35t24.5 35t11 26.5q6 24 1.5 45.5t-17.5 31.5
q-10 7 -63.5 20t-100 22t-48.5 9l-86 -86q-107 35 -198 126t-133 208l94 95l-42 143q-13 40 -19 48v0zM304 767z" />
    <glyph glyph-name="uniE602" unicode="&#xe602;" 
d="M78 -53q12 -9 23 -9q18 -2 566 -2h4q8 0 13.5 4t9.5 11q7 12 7 27v418q3 -19 9.5 -56.5t8.5 -56.5q4 -25 12 -72.5t10 -56.5q15 -86 19 -121q2 -7 3.5 -16t2.5 -15.5t2.5 -15t2.5 -16.5q1 -9 5 -16t10 -11.5t15 -6.5h127q4 0 7.5 1t7 3t7.5 5q9 12 9 22v12q-1 7 -2 22.5
t-2 22.5q-2 15 -5.5 43t-5.5 39q-2 15 -3.5 24t-3 22.5t-2.5 25.5q-1 13 -4.5 40.5t-5.5 41.5q-2 10 -2.5 14t-2 13t-2 15t-1.5 14t-1 15q-2 11 -4 26.5t-3.5 30t-3.5 25.5q-7 46 -9 72q-2 14 -5.5 42t-5.5 40q0 6 -0.5 9t-1.5 8.5t-1.5 9t-1 8.5t-1 9t-1 9t-1 9.5t-0.5 9.5
q-2 14 -6 41.5t-5 40.5q0 1 -1.5 9t-1.5 10t-1 9t-1.5 9.5t-1.5 9t-1.5 10t-1 8.5t-1.5 10q-3 19 -16 30q-2 2 -18 6h-724q-2 -1 -5 -2h-4q-3 -1 -5 -2q-18 -12 -18 -29v-829q3 -17 13 -23v0zM776 792h29q5 -2 5 -5q1 -8 2 -18l4 -20q1 -10 2 -17q2 -22 5 -42t5.5 -41
t5.5 -41q2 -18 7.5 -59.5t8.5 -63.5q9 -69 16 -125q2 -14 4 -31t4 -30.5t4 -31.5t4 -30q8 -60 16 -124q2 -17 5 -39t6 -44.5t5 -39.5q0 -3 1 -7l1 -7q0 -3 -2 -3l-2 -1h-30q-4 0 -4 6q-1 8 -3.5 27t-3.5 28q-3 20 -8 61t-8 62q-8 63 -16 123q-12 90 -16 126q-15 116 -16 123
q-3 21 -8.5 62t-7.5 61q-2 14 -4.5 31t-4 30.5t-4 31.5t-3.5 30q0 3 -1 7.5t-1 7.5t3 3v0zM701 792h29q5 0 5 -5q2 -10 5 -30q2 -22 4 -33q3 -21 8 -62q6 -41 8 -61q1 -7 16 -123q2 -10 4.5 -30t4 -32.5t4 -29.5t4.5 -31q10 -82 17 -126q4 -28 8 -57t8 -66q3 -18 6 -41
t6.5 -46.5t5.5 -40.5q0 -3 -0.5 -3.5t-2.5 -0.5h-29q-2 0 -3.5 1.5t-1.5 3.5q-2 13 -4 29t-4 28.5t-4 28.5t-4 29q-3 18 -5.5 38.5t-5.5 45t-5 39.5q-1 8 -3 20t-3 21t-2.5 20.5t-2.5 21t-2.5 20t-2.5 20.5q-9 64 -17 124q-11 90 -16 125q-2 20 -5 40.5t-5.5 41t-5.5 41.5
q-1 12 -5 38t-5 39q-2 3 1 3v0zM358 -26h-250q-5 0 -5 5v65q0 5 5 5h252q5 0 5 -5v-65q-1 -5 -7 -5zM407 791h248q5 -2 5 -5v-694q0 -7 -7 -7h-248q-5 2 -6 5v694q0 3 1 4.5t2.5 2t4.5 0.5v0zM405 49h250q3 0 4 -1.5t1 -3.5v-65q0 -5 -5 -5h-252q-5 0 -5 5v65q2 5 7 5z
M108 791h249q3 0 4 -1t1 -4v-694q0 -4 -1 -5t-4 -1h-249q-5 0 -5 6v291v401q2 7 5 7v0zM300 688h-137h-2v-4v-28q1 -5 4 -6h135q5 0 5 6v28q-2 4 -5 4v0zM300 613h-137q-2 0 -2 -4v-29q1 -4 4 -5h135q5 0 5 5v29l-5 4v0zM300 538h-137q-2 0 -2 -4v-29q0 -2 1 -3.5t3 -1.5
h135q5 0 5 5v29q-3 4 -5 4v0zM601 688h-137q-3 -3 -3 -4v-28q0 -6 4 -6h136q4 0 4 6v28q-2 4 -4 4v0zM601 613h-137q-3 0 -3 -4v-29q0 -5 4 -5h136q4 0 4 5v29l-4 4v0zM601 538h-137q-3 0 -3 -4v-29q0 -5 4 -5h136q4 0 4 5v29q-3 4 -4 4v0zM601 538z" />
    <glyph glyph-name="uniE603" unicode="&#xe603;" 
d="M273 336q9 0 18 4t15.5 10.5t10.5 15t4 18.5q0 20 -14 34t-34 14q-10 0 -19 -4t-15.5 -10.5t-10 -15t-3.5 -18.5q0 -20 14 -34t34 -14zM432 336q20 0 34 14t14 34t-14 34t-34 14q-5 0 -9.5 -1t-9 -3t-8 -4.5t-7 -5.5t-6 -7t-4.5 -8.5t-3 -9t-1 -9.5q0 -20 14 -34t34 -14z
M592 336q20 0 34 14t14 34t-14 34t-34 14q-10 0 -19 -4t-15.5 -10.5t-10 -15t-3.5 -18.5q0 -20 14 -34t34 -14zM767 639h-670q-3 0 -8.5 -1t-14.5 -8.5t-9 -22.5v-446q0 -15 8 -22.5t16 -8.5l8 -1h96v-160l159 160h415h2q1 0 4.5 0.5t6.5 1.5t6.5 3.5t6.5 6t4.5 8.5t1.5 12
v446q0 15 -8 22.5t-16 8.5zM735 193h-409l-69 -70v70h-128v382h606v-382v0zM927 799h-670q-2 0 -4 -0.5t-7.5 -2t-9.5 -4.5t-7.5 -9.5t-3.5 -15.5v-96h64v64h606v-383h-64v-64h96q3 0 8.5 1t14.5 9t9 22v447q0 14 -8 22t-16 9zM927 799z" />
    <glyph glyph-name="uniE604" unicode="&#xe604;" 
d="M897 831h-769q-26 0 -44.5 -16.5t-18.5 -41.5v-774q0 -17 7 -31t20 -22.5t29 -8.5h782q25 0 40.5 18t15.5 44v774q0 13 -5 23.5t-13.5 18t-19.5 12t-24 4.5zM931 -1q0 -3 -0.5 -6.5t-1.5 -7.5t-3 -7.5t-5 -6t-7.5 -4.5t-10.5 -2h-782q-15 0 -21.5 10.5t-6.5 23.5v774
q0 14 10 22t25 8h769q10 0 17.5 -3.5t12 -10.5t4.5 -16v-774zM232 249l38 -12q-27 -73 -65 -129q-17 12 -35 21q44 64 62 120v0zM182 690h655v-35h-655v35zM764 331v-36q-283 -8 -579 -20l-3 38q281 6 582 18zM238 600h38v-217h-38v217zM258 600h503v-36h-503v36zM258 509
h503v-32h-503v32zM258 418h506v-35h-506v35zM349 243h44v-94q0 -8 2.5 -14t8 -10t13.5 -6t19 -2h152q50 0 56 29q6 18 9 44q18 -5 41 -11q-1 -6 -2 -11t-2 -9.5t-2 -8.5l-2 -8q-1 -4 -2 -7l-2 -6q-18 -44 -88 -44h-166q-79 0 -79 61v97v0zM501 269q40 -35 73 -70l-32 -26
q-8 9 -17 18.5t-18 18.5t-18.5 18t-19.5 18zM489 749h38v-445h-38v445zM708 380q74 -56 141 -114l-30 -32q-21 21 -43 41.5t-45 39t-46 36.5zM755 252q43 -44 97 -100l-36 -26q-50 56 -90 102zM743 600h38v-217h-38v217zM743 600z" />
    <glyph glyph-name="uniE605" unicode="&#xe605;" 
d="M363 285h-248q-14 0 -25 -7t-18 -18t-7 -25v-248q0 -10 4 -19.5t10.5 -16t16 -10.5t19.5 -4h248q21 0 35.5 14.5t14.5 35.5v248q0 21 -14.5 35.5t-35.5 14.5v0zM363 12q0 -11 -7 -18t-18 -7h-198q-11 0 -18 7t-7 18v198q0 11 7 18t18 7h198q7 0 12.5 -3.5t9 -9t3.5 -12.5
v-198zM524 285h-24q-6 0 -9.5 -4t-3.5 -9v-223q0 -5 3.5 -8.5t9.5 -3.5h24q4 0 6.5 1.5t4.5 4.5t2 6v223q0 4 -2 6.5t-4.5 4.5t-6.5 2v0zM500 483h24q6 0 9.5 4t3.5 9v322q0 2 -0.5 4t-2 3.5t-3 2.5t-3.5 2t-4 1h-24q-6 0 -9.5 -4t-3.5 -9v-322q0 -4 1.5 -6.5t4.5 -4.5t7 -2
v0zM115 483h248q21 0 35.5 14.5t14.5 35.5v248q0 21 -14.5 35.5t-35.5 14.5h-248q-21 0 -35.5 -14.5t-14.5 -35.5v-248q0 -10 4 -19.5t10.5 -16t16 -10.5t19.5 -4v0zM115 756q0 11 7 18t18 7h198q4 0 7 -1t6 -2.5t5 -3.5t3.5 -5t2.5 -6t1 -7v-198q0 -5 -2 -10t-5 -8t-8 -5
t-10 -2h-198q-11 0 -18 7t-7 18v198zM673 210h-25q-5 0 -8.5 -3.5t-3.5 -8.5v-248q0 -5 3.5 -9t8.5 -4h25q5 0 9 4t4 9v248q0 3 -2 6t-4.5 4.5t-6.5 1.5v0zM946 409h-868q-4 0 -6.5 -2t-4.5 -4.5t-2 -6.5v-24q0 -6 4 -9.5t9 -3.5h868q3 0 5 1t4 2.5t3 4t1 5.5v24q0 6 -4 9.5
t-9 3.5v0zM909 831h-248q-21 0 -35.5 -14.5t-14.5 -35.5v-248q0 -14 7 -25t18 -18t25 -7h248q21 0 35.5 14.5t14.5 35.5v248q0 5 -1 10t-3 9.5t-4.5 8.5t-6 7.5t-7.5 6t-8.5 4.5t-9.5 3t-10 1v0zM909 558q0 -11 -7 -18t-18 -7h-198q-7 0 -12.5 3.5t-9 9t-3.5 12.5v198
q0 11 7 18t18 7h198q11 0 18 -7t7 -18v-198zM797 210h-24q-6 0 -9.5 -3.5t-3.5 -8.5v-248q0 -5 3.5 -9t9.5 -4h24q4 0 6.5 2t4.5 4.5t2 6.5v248q0 5 -3.5 8.5t-9.5 3.5v0zM921 285h-24q-3 0 -5 -1t-4 -3t-3 -4t-1 -5v-322q0 -5 4 -9t9 -4h24q6 0 9.5 4t3.5 9v322q0 5 -3.5 9
t-9.5 4v0zM921 285z" />
    <glyph glyph-name="uniE606" unicode="&#xe606;" 
d="M529 734q-8 6 -17 7q-10 0 -17 -7l-175 -175q-4 -5 -5.5 -11t0 -12t5.5 -11q7 -7 17 -7t17 7l158 158l158 -158q1 -2 3 -3t4.5 -2t4.5 -1.5t5 -0.5q10 0 17 7q4 5 5.5 11t0 12t-5.5 11zM529 734zM65 289h103v-262h48v262h102v48h-253v-48zM65 289zM583 337h-127
q-25 0 -42.5 -17.5t-17.5 -42.5v-190q0 -25 17 -42q9 -9 20 -13.5t23 -4.5h127q24 0 42 17.5t18 42.5v190q0 25 -18 42.5t-42 17.5zM595 87q0 -1 -1 -3v-2q-1 -2 -3 -3q-2 -2 -4 -3t-4 -1h-127q-2 0 -4.5 1t-4.5 3q-3 3 -3 8v190q0 5 3 9q4 3 9 3h127q5 0 8 -3q2 -2 3 -4v-2
q1 -2 1 -3v-190zM595 87zM941 320q-3 3 -7 6t-8.5 5t-8.5 3.5t-9 2t-9 0.5h-165v-310h48v136h117q3 0 5.5 0.5t5.5 0.5l6 2q3 0 5.5 1.5t5 2.5t5.5 3l4 4q3 2 5 4q9 8 13.5 19t4.5 23v54q0 25 -18 43zM911 223q0 -2 -1 -4t-3 -4t-4 -3t-4 -1h-117v78h117h3q1 0 2.5 -1
t2.5 -2l4 -9v-54zM911 223z" />
    <glyph glyph-name="uniE607" unicode="&#xe607;" 
d="M672 560h-229q-12 0 -22.5 -6.5t-16.5 -17t-6 -22.5v-137q0 -19 13.5 -32.5t31.5 -13.5h91l91 -77l18 77h29q19 0 32.5 13.5t13.5 32.5v137q0 19 -13.5 32.5t-32.5 13.5zM419 299q-24 0 -38 12t-14 34v154h-15q-19 0 -32.5 -13.5t-13.5 -32.5v-122q0 -19 13.5 -32
t32.5 -13h29l18 -78l91 78h49l-25 13h-12h-26h-30h-27zM419 299zM866 780q-4 0 -8 -2.5t-6 -6t-2 -8.5v-775q0 -7 -5 -12t-12 -5h-4h-7h-614q-14 0 -24 9.5t-10 23.5t10 24t24 10h532h9h23q7 0 13.5 1.5t12 5t10 8t8 10t5 12t1.5 13.5v692q0 14 -6.5 25.5t-18 18.5t-25.5 7
h-581q-8 0 -15.5 -2.5t-14 -7.5t-11 -11t-7 -13.5t-2.5 -16.5v-776v-3q1 -13 6.5 -25t14.5 -20.5t21 -13.5t25 -5h614h11h2q20 1 34 15.5t14 35.5v775q0 5 -2 8.5t-6 6t-9 2.5zM174 147v633q0 7 5 12t12 5h581q7 0 12 -5t5 -12v-692q0 -7 -5 -12t-12 -5h-23h-16h-525
q-6 0 -12 -1t-11 -3t-11 -5v26v59zM174 147zM808 21h-598q-7 0 -12 -5t-5 -12t5 -11.5t12 -4.5h598q7 0 12 4.5t5 11.5q0 5 -2.5 9t-6 6t-8.5 2zM808 21z" />
    <glyph glyph-name="uniE608" unicode="&#xe608;" 
d="M863 764q0 13 -9.5 22.5t-22.5 9.5h-734q-8 0 -15.5 -4.5t-12 -11.5t-4.5 -16v-574q0 -13 9.5 -22.5t22.5 -9.5h27q14 0 23 9.5t9 22.5v481q0 7 2.5 13t7 10t10.5 6.5t12 2.5h643q13 0 22.5 9.5t9.5 22.5v29zM863 764zM921 642h-669q-8 0 -14.5 -3t-11.5 -8t-8 -12
t-3 -15v-595q0 -15 10.5 -26t26.5 -11h670q15 0 26 11t11 26v595q0 16 -11 27t-27 11v0zM847 84h-521v186l112 111l186 -186l112 112l111 -112v-111v0zM773 381q-8 0 -15.5 1.5t-14 4.5t-12.5 7t-11 9t-9 11t-7 12.5t-4.5 14t-1.5 15.5q0 31 22 52.5t53 21.5t52.5 -21.5
t21.5 -52.5q0 -44 -38 -65q-17 -9 -36 -10v0zM773 381z" />
    <glyph glyph-name="uniE609" unicode="&#xe609;" 
d="M885 473h-238q68 251 -18 333q-23 22 -46 25q-22 0 -35.5 -8.5t-16 -18.5t-3.5 -21.5t-2 -12.5q0 -131 -133 -259q-25 -24 -44 -38v-472q0 -31 31 -47.5t58 -16.5h357q10 0 19.5 9t16.5 22t13 26t9 22l3 10q40 133 62 230.5t24 128.5l3 31q0 17 -6.5 29.5t-15 17.5
t-17.5 7.5t-15 2.5h-6v0zM885 473zM252 473h-143q-8 0 -14 -3t-9 -7.5t-4.5 -8.5t-1.5 -7l-1 -3l30 -476q0 -7 1.5 -12t4 -8t6 -5t6.5 -3l6 -2q3 -1 4 -1h2h123q12 0 18.5 5t6.5 10l1 5v480q0 16 -9 25t-18 10l-9 1v0zM252 473z" />
    <glyph glyph-name="uniE60A" unicode="&#xe60a;" 
d="M859 63q-2 -2 -4.5 -3.5t-5 -2.5t-5 -1.5t-5.5 -0.5h-87q-6 0 -11 2t-9 6q-9 8 -9 20v116q0 6 2 11t6.5 9.5t9.5 6.5t11 2t11 -2t9 -7q9 -8 9 -20v-87h58q12 0 20 -8q2 -2 3.5 -4.5t2.5 -5t1.5 -5.5t0.5 -6q0 -12 -8 -20v0zM908 158q-6 14 -14.5 27t-19.5 23
q-22 22 -51 34.5t-61 12.5q-33 0 -62 -12.5t-51 -34.5q-11 -10 -19.5 -23t-14.5 -27q-13 -29 -13 -62t12.5 -62t34.5 -50.5t51 -33.5q9 -5 19.5 -7.5t21 -4t21.5 -1.5q32 0 61 12.5t51 34t34.5 50.5t12.5 62t-13 62v0zM227 39q-25 0 -42 17.5t-17 41.5v609q0 12 4.5 23
t12.5 18.5t19 12.5t23 5h497q9 0 18 -3t16 -8.5t12.5 -12.5t8.5 -16t3 -19v-405q34 -4 65 -19v431q0 24 -9.5 45.5t-25 37t-37 25t-45.5 9.5h-510q-24 0 -45.5 -9.5t-37 -25t-25 -37t-9.5 -45.5v-623q0 -48 34.5 -82.5t82.5 -34.5h378q-23 30 -34 65h-337zM611 686h63
l-148 -254h117v-52h-143v-82h143v-47h-142v-122h-60v122h-147v47h147v82h-147v52h127l-150 254h66q28 -53 60.5 -108t51 -86.5t25.5 -45.5zM611 686z" />
    <glyph glyph-name="uniE60B" unicode="&#xe60b;" 
d="M498 102l-305 314l79 64l176 -140q25 30 53.5 61.5t73.5 76t92 86t109 88t126 86.5l18 -44q-183 -171 -329 -412q-63 -105 -93 -180v0zM883 445q5 -30 5 -61q0 -77 -29.5 -146.5t-80 -120t-120 -80t-146.5 -29.5q-102 0 -188.5 50.5t-137 137t-50.5 188.5
q0 77 29.5 146.5t80 120t120 80t146.5 29.5q37 0 73 -7t69 -21v76q-23 7 -46.5 12.5t-47.5 8t-48 2.5q-91 0 -174 -35q-80 -34 -142 -96q-12 -12 -23.5 -25.5t-21.5 -27t-19 -28.5t-17 -30t-15 -31q-35 -83 -35 -174q0 -45 9 -89t26 -85q34 -80 96 -142t142 -96
q41 -17 85 -26t89 -9q91 0 174 35q80 34 142 96t96 142q35 83 35 174q0 15 -1 30.5t-3 30.5h-72v0zM883 445z" />
    <glyph glyph-name="uniE60C" unicode="&#xe60c;" 
d="M485 309h63q-3 -25 -12 -45l191 -49l-29 -54l-69 23q-33 11 -63.5 20t-58.5 17q-46 -48 -186 -60q-6 13 -13 27l-15 30q17 1 32.5 2t29.5 3t26.5 4t23 4.5t19.5 5.5t16 6q42 20 45 66v0zM486 607h62v-53h46l16 26q8 13 15 26l52 -22l-21 -30h75v-100h-55v53h-318v-53h-55
v100h72q-4 8 -8.5 15t-9.5 14l49 22q17 -25 32 -51h48v53v0zM340 243v123h353v-123h-60v74h-234v-74h-59v0zM377 387v99h280v-99h-280v0zM433 424h169v25h-169v-25v0zM512 831q-91 0 -173.5 -35.5t-142.5 -95.5t-95.5 -142.5t-35.5 -173.5t35.5 -173.5t95.5 -142.5
t142.5 -95.5t173.5 -35.5t173.5 35.5t142.5 95.5t95.5 142.5t35.5 173.5t-35.5 173.5t-95.5 142.5t-142.5 95.5t-173.5 35.5v0zM512 -14q-108 0 -200 53t-145 145t-53 200t53 200t145 145t200 53q81 0 154.5 -31.5t127 -85t85 -127t31.5 -154.5q0 -156 -106 -270
q-103 -112 -255 -126q-19 -2 -37 -2v0zM512 -14z" />
    <glyph glyph-name="uniE60D" unicode="&#xe60d;" 
d="M395 465h233v-43h-233v43zM512 831q-61 0 -119 -16t-107 -45t-90 -70t-70 -90t-45 -107t-16 -119q0 -91 35.5 -173.5t95.5 -142.5t142.5 -95.5t173.5 -35.5t173.5 35.5t142.5 95.5t95.5 142.5t35.5 173.5q0 41 -7.5 80.5t-21 75.5t-33 69.5t-44 62.5t-53.5 53.5t-62.5 44
t-69.5 33t-75.5 21t-80.5 7.5zM259 579h107q-13 13 -45 40q-11 9 -15 14l53 13q54 -42 79 -65l-5 -2h47v74h63v-74h44l-4 2q38 27 80 65l54 -13q-27 -27 -63 -54h110v-101h-60v58h-387v-58h-58v101v0zM362 308v-93h-61v136h423v-132h-58v89h-304zM335 382v121h351v-121h-351
zM739 121q-25 9 -48 18t-44 16.5t-40 14t-36 12t-32 10t-28 7.5q-49 -60 -243 -81q-9 27 -23 54q124 6 184 34.5t55 79.5h61q-2 -24 -11 -45q40 -11 118 -38q27 -7 64.5 -18.5t49.5 -14.5zM739 121z" />
    <glyph glyph-name="uniE60E" unicode="&#xe60e;" 
d="M628 426h89v-72h-89v72zM628 535h89v-70h-89v70zM497 426h87v-72h-87v72zM798 831h-572q-61 0 -104.5 -45t-43.5 -109v-577q0 -42 20 -79.5t55 -60.5t76 -23h566q62 0 106.5 49.5t44.5 113.5v577q0 64 -43.5 109t-104.5 45zM542 683q8 -16 17 -37t17 -47q-11 -4 -23.5 -9
t-25.5 -11q-10 45 -30 81zM401 310l-10 -116q-5 -49 -43 -59t-78 -15q-5 32 -17 62q14 -1 25 -1h22q9 0 16 0.5t11 1.5q17 4 20 33l9 124h-118q10 79 10 170h111v91q-81 0 -128 -2v44q13 -1 26 -1.5t25 -0.5h25h99q-3 -40 -3 -79q0 -20 1 -43t2 -49h-114l-5 -88h121
q-5 -35 -7 -72zM798 209q-16 1 -31 1.5t-28 0.5h-25h-86q0 -58 2 -108h-49q3 57 3 108h-97q-19 -1 -36.5 -2.5t-32.5 -2.5v47q10 -1 21 -1.5t23 -1.5t25 -2h97v67h-136q2 63 2 133.5t-2 123.5h180l6 12l4 14q3 6 6 12.5t5 13.5t5 14l4 12q3 7 5 14t5 14q27 -13 56 -22
q-24 -28 -47 -84h87q-3 -47 -3 -126q0 -40 1 -72.5t2 -58.5h-136v-67h84q32 0 86 3v-42zM497 535h87v-70h-87v70z" />
    <glyph glyph-name="uniE60F" unicode="&#xe60f;" 
d="M655 619q0 4 -2 7.5t-5.5 5.5t-7.5 2h-344q-7 0 -11 -4t-4 -11v-269q0 -7 4 -11t11 -4h12q7 0 11 4t4 11v226q0 6 4.5 10.5t10.5 4.5h302q6 0 10.5 4t4.5 11v13zM655 619zM682 562h-314q-7 0 -12 -5t-5 -13v-279q0 -7 5 -12t12 -5h314q8 0 13 5t5 12v279q0 5 -2.5 9
t-6.5 6.5t-9 2.5v0zM647 300h-244v87l52 53l88 -88l52 53l52 -53v-52v0zM613 440q-15 0 -25 10t-10 24.5t10 24.5t24.5 10t24.5 -10t10 -24.5t-10 -24.5t-24 -10v0zM613 440zM866 780q-7 0 -11.5 -5t-4.5 -12v-775q0 -7 -5 -12t-12 -5h-4h-7h-614q-14 0 -24 10t-10 23.5
t10 23.5t24 10h532h9h23q21 0 35.5 14.5t14.5 35.5v693q0 20 -14.5 35t-35.5 15h-581q-21 0 -35.5 -15t-14.5 -35v-777v-3q1 -18 10.5 -32.5t24 -23t32.5 -8.5h614h11h1l1 1q20 0 34 14.5t14 35.5v775q0 4 -1.5 7t-3.5 5t-5 3.5t-7 1.5zM174 147v634q0 4 2.5 8t6.5 6t8 2
h581q5 0 8.5 -2t6 -6t2.5 -8v-693q0 -7 -5 -12t-12 -5h-23h-16h-525q-6 0 -12 -1t-11 -3t-11 -5v26v59zM174 147zM808 21h-598q-7 0 -12 -5t-5 -12t5 -11.5t12 -4.5h598q7 0 12 4.5t5 11.5q0 4 -1.5 7t-3.5 5t-5.5 3.5t-6.5 1.5zM808 21z" />
    <glyph glyph-name="uniE610" unicode="&#xe610;" 
d="M959 118v628q-8 46 -49 48h-313q-22 -1 -41 -14t-24 -21t-8 -13h-24q-1 1 -2 2.5t-4 6.5t-7 9.5t-10.5 10t-13.5 9.5t-16.5 7t-19.5 3h-313q-19 -2 -31 -14t-15 -23l-3 -11v-628v-8q0 -4 2.5 -16.5t7 -22t14.5 -17.5t25 -8h313l73 -72h24l73 72h313q15 0 25 8t14.5 17.5
t7 22t2.5 16.5v8v0zM476 169q1 -17 -1 -27t-8.5 -15.5t-14.5 -7t-22 -1.5h-292v604h289q14 0 24 -5t14.5 -12t7 -14t3.5 -12v-5v-505zM886 118h-292q-28 2 -37.5 10.5t-8.5 40.5v505q0 2 0.5 5t3 11.5t7 15t14.5 11.5t24 5h289v-604zM886 118z" />
    <glyph glyph-name="uniE611" unicode="&#xe611;" 
d="M630 504q8 -8 20 -11.5t24.5 0t21.5 11.5l169 166v-134q0 -15 9.5 -24.5t24.5 -9.5h25q10 0 18 3.5t12.5 10.5t4.5 15v245h-3l3 18q0 13 -8 24q-10 10 -24 10h-18l-245 3q-9 0 -17.5 -5t-12.5 -13t-4 -17v-25q1 -16 12.5 -25t26.5 -9h129l-166 -166q-11 -9 -15 -21
t-0.5 -24t13.5 -22v0zM394 266q-8 9 -20 12t-24.5 0t-21.5 -12l-169 -165v131q0 10 -4.5 17.5t-12.5 12t-17 4.5h-25q-15 0 -25 -8t-10 -21v-243h3l-3 -17q0 -14 8 -25q10 -10 24 -10h18l245 -2q7 0 13.5 3t11 7.5t7 11t2.5 12.5v25q-1 16 -12.5 25.5t-26.5 9.5h-129
l168 166q13 13 13 32.5t-13 33.5v0zM956 -8v242q0 14 -10 22t-24 8h-25q-5 0 -9.5 -1.5t-8.5 -4t-7 -5.5t-5 -7t-3.5 -8t-1.5 -9v-131l-168 166q-9 8 -20.5 11.5t-24 0t-22.5 -11.5q-6 -6 -9.5 -15t-3.5 -17.5t3.5 -18t9.5 -16.5l168 -166h-128q-16 0 -27 -9t-13 -25v-25
q0 -14 10.5 -24.5t24.5 -10.5l240 3h17q8 0 13.5 2t11.5 8q7 7 7 24l5 18v0zM229 737h128q8 0 14.5 2t12 6.5t9 11t4.5 14.5v25q0 15 -10.5 25t-24.5 10l-245 -3h-17q-8 0 -13.5 -2t-11.5 -8q-7 -7 -7 -24l2 -18h-2v-245q0 -14 9.5 -21.5t24.5 -7.5h25q15 0 25 9.5t10 24.5
v134l168 -166q6 -6 15 -9.5t18 -3.5t18 3.5t16 9.5q4 4 7 9.5t4.5 11t1.5 12t-1.5 12t-4.5 11.5t-7 11l-168 166v0zM229 737z" />
    <glyph glyph-name="uniE612" unicode="&#xe612;" 
d="M923 591h-141l159 158q13 13 13 31.5t-13 31.5t-31.5 13t-31.5 -13l-161 -159l1 144q1 14 -8.5 24t-23.5 10h-22q-14 -1 -23.5 -9t-10.5 -21l-1 -250l1 -1h1l-2 -16q0 -15 8 -23q9 -10 23 -10l16 1h1l250 -1q14 0 23.5 10t10.5 23v23q-2 11 -7.5 18.5t-13.5 11.5t-17 4z
M959 209v23q0 13 -10 23t-23 10l-250 -1v0l-17 1q-6 0 -12 -2.5t-10 -7.5q-8 -8 -8 -23l2 -16h-1l-1 -1l1 -248q1 -14 10.5 -21.5t23.5 -8.5h24q13 0 22.5 10t8.5 24l-1 141l160 -158q4 -5 9.5 -8t11 -4t11 -1t11 1t10.5 4t10 8q13 13 13 31.5t-13 31.5l-160 159l141 1
q14 0 24.5 8t12.5 24zM386 255q-10 10 -23 10l-17 -1v0l-248 1q-13 0 -23 -10t-10 -23v-23q2 -16 12.5 -24t24.5 -8l140 -1l-160 -159q-13 -13 -13 -31.5t13 -31.5q6 -7 14.5 -10t17 -3t16.5 3t15 10l160 159l-1 -140q0 -14 9 -24t23 -10h23q9 0 16.5 3.5t12 10.5t4.5 15
l1 247l-1 1l1 16q1 15 -7 23zM393 551l-1 250q0 13 -9.5 21t-23.5 9h-24q-9 0 -16.5 -4.5t-11.5 -12.5t-4 -17l1 -143l-160 158q-13 13 -31 13t-31 -13t-13 -31.5t13 -31.5l158 -158h-140q-13 0 -24 -9t-13 -25v-23q1 -13 10.5 -23t22.5 -10l250 1h1l16 -1q13 0 23 10
q8 8 7 23l-1 16zM393 551z" />
    <glyph glyph-name="uniE613" unicode="&#xe613;" 
d="M847 831h-670q-46 0 -79 -33t-33 -79v-670q0 -46 33 -79t79 -33h670q46 0 79 33t33 79v670q0 46 -33 79t-79 33zM435 667h364v-73h-157l-11 -57h151v-272h-79v201h-184v-205h-80v276h102l11 57h-117v73zM373 212q0 -18 -3 -32t-9.5 -24.5t-15 -17.5t-19.5 -9
q-21 -6 -97 -6q-5 36 -14 78q27 -3 54 -3q11 0 17 6.5t6 19.5v355h-76v82h210v-82h-53v-367zM758 103q-19 17 -42.5 35t-50 37.5t-55.5 40.5q-21 -33 -62.5 -62t-104.5 -53q-19 34 -48 77q64 18 107 46q14 9 25 21t19 26t13 30q6 25 9.5 57t3.5 71h79q0 -87 -14 -145
q84 -53 172 -117z" />
    <glyph glyph-name="uniE614" unicode="&#xe614;" 
d="M819 164q11 19 20 43.5t13.5 39t13.5 52.5t12 49q-5 -21 -27.5 -36.5t-46 -22.5t-56.5 -15.5t-48 -15.5q76 32 125.5 101t52.5 156q-9 -8 -22 -22t-21.5 -23t-21 -18.5t-27 -14.5t-31.5 -6q25 32 41 73.5t23.5 77.5t13.5 86v38v41q0 16 -2 39.5t-6 44.5q-5 -11 -16 -37
t-24 -50.5t-33 -51.5q-23 -34 -49.5 -60t-67.5 -54.5t-103 -52.5t-143 -44q-1 0 -5 -2t-6.5 -2.5t-6.5 1.5t-7 7q-2 2 -3 4t-2 6t-0.5 7.5t2.5 9.5t6.5 11.5t13 13t20 15t29 17t38.5 19.5q41 19 64 44q-5 -6 -27.5 -10t-53.5 -9.5t-66 -15.5t-74 -32.5t-69 -55.5
q-46 -49 -70.5 -108.5t-24.5 -131.5q0 -28 -1 -51.5t5 -53t20 -56.5q18 180 161 239q-3 -7 -9 -17.5t-10 -17t-8.5 -17.5t-4 -21t2.5 -26q42 86 104 120q-9 -17 -11 -35t0 -26l3 -9q45 39 98.5 65.5t83.5 32.5l30 7l-18 -18q-11 -11 -39.5 -46.5t-49 -70.5t-35 -84.5
t-10.5 -94.5q55 39 78 108q5 -4 9.5 -19.5t3.5 -39t-7.5 -49t-26 -52t-49.5 -43.5q-16 -10 -52 -24.5t-53 -25.5q173 -30 324 76q28 16 53 39.5t43.5 48.5t36.5 56zM819 164z" />
    <glyph glyph-name="uniE615" unicode="&#xe615;" 
d="M867 111h-186q-28 -27 -67.5 -69t-65.5 -71l-25 -29q-5 -5 -11 -5t-11 5q-131 136 -162 169h-182q-50 0 -86 40t-36 92v464q0 51 35 87.5t84 36.5h716q49 0 84 -36.5t35 -87.5v-464q0 -34 -16 -64.5t-44.5 -49t-61.5 -18.5zM273 522q-9 0 -18.5 -3t-16.5 -8.5
t-12.5 -13.5t-8.5 -17t-3 -20q0 -12 4.5 -23.5t12.5 -20t19 -13t23 -4.5q25 0 42.5 18t17.5 43q0 9 -2 17t-6 15t-9.5 12.5t-12 9.5t-14.5 6t-16 2zM512 522q-12 0 -23 -4.5t-19 -13t-13 -20t-5 -24.5q0 -16 8 -30.5t22 -22.5t30 -8q25 0 42.5 18t17.5 43q0 13 -5 24.5
t-13 20t-19 13t-23 4.5zM751 522q-25 0 -42.5 -18t-17.5 -44q0 -16 8 -30.5t21.5 -22.5t30.5 -8q24 0 41.5 18t17.5 43q0 11 -3 20t-8.5 17t-12.5 13.5t-16.5 8.5t-18.5 3zM751 522z" />
    <glyph glyph-name="uniE616" unicode="&#xe616;" 
d="M869 709l-1 -473l-171 1q-9 0 -17.5 -2t-16.5 -5q-6 -3 -11 -6t-9.5 -6.5t-9.5 -7.5l-121 -121l-122 121q-3 4 -6.5 7t-7.5 5l-2 2l-4 2q-1 1 -2.5 1.5t-3.5 1.5t-3 1q-8 3 -17 5t-18 2h-171l1 473zM889 798l-753 2q-29 0 -49.5 -20t-20.5 -49l-1 -514q0 -5 0.5 -9.5
t2 -9t3 -8.5t4 -8t5 -7.5t6.5 -6.5q20 -20 49 -20h191l173 -175q5 -5 13 -5l4 1l8 4l173 174h191q29 0 49 20q7 6 11.5 13.5t7 16.5t2.5 18l1 515q0 28 -21 48q-10 10 -22 15t-27 5v0zM246 475q0 24 17.5 41.5t41.5 17.5q10 0 18.5 -3t16 -8.5t13.5 -13.5q3 -3 5 -7.5
t3.5 -9t2 -9t0.5 -9.5q0 -18 -8.5 -31.5t-25.5 -21.5q-12 -6 -26 -6q-6 0 -11.5 1.5t-10.5 3.5t-9.5 5t-9.5 8q-17 17 -17 42zM453 474q0 17 8 30.5t21.5 21t30 7.5t29.5 -8t21 -21.5t8 -29.5q0 -24 -17.5 -41.5t-41.5 -17.5t-41.5 17.5t-17.5 41.5zM662 474q0 24 17.5 41.5
t41.5 17.5q16 0 29.5 -8t21.5 -21.5t8 -30.5q0 -24 -17 -41q-6 -6 -12.5 -10t-14 -5.5t-15.5 -1.5q-25 0 -42 17.5t-17 41.5zM662 474z" />
    <glyph glyph-name="uniE617" unicode="&#xe617;" 
d="M156 457l220 -221l487 490l96 -95l-586 -589l-308 308zM156 457z" />
    <glyph glyph-name="uniE618" unicode="&#xe618;" 
d="M933 370q3 0 6.5 1t6 2.5t4.5 3.5t3.5 5t2 6t0.5 5v275q0 12 -3 24.5t-9.5 23t-15 19t-19 14.5t-22.5 9.5t-25 3.5h-702q-39 0 -67 -27.5t-28 -66.5v-568q0 -39 28 -66.5t67 -27.5h704q39 0 67 27.5t28 66.5v104q0 11 -7.5 17.5t-16.5 6.5q-5 0 -9.5 -2t-7.5 -5.5
t-5 -7.5t-2 -9v0v-99q0 -14 -6 -25.5t-17.5 -18t-25.5 -6.5h-402h-295q-20 0 -35 14.5t-15 35.5v558q0 21 15 35.5t35 14.5h694q10 0 19 -4t16 -10.5t11 -16t4 -19.5v-267q0 -11 7.5 -18.5t16.5 -7.5v0zM535 583q0 3 -1.5 6.5t-5 5.5t-7.5 2h-297q-4 0 -7 -1.5t-5.5 -5
t-2.5 -7.5v-67q0 -5 4.5 -9.5t10.5 -4.5h297q12 2 14 14v67v0zM419 415q0 3 -1.5 6.5t-4.5 5.5t-8 2h-181q-6 0 -10.5 -4.5t-4.5 -9.5v-66q0 -6 4.5 -10.5t10.5 -4.5h181q14 0 14 15v66v0zM290 259h-66q-4 0 -7 -2t-5.5 -5.5t-2.5 -6.5v-67q0 -1 1 -3t2 -3l2 -4q1 -1 2.5 -2
t3.5 -1.5t4 -0.5h66q3 0 6.5 1.5t5.5 5t2 7.5v67q0 14 -14 14v0zM455 304l-2 -5v-5l-5 -101v-24l24 9l97 36l4 2l3 5l260 343l9 14l-14 9l-87 66l-15 10l-9 -14l-265 -345v0zM725 623l87 -66l-2 23l-260 -343l7 5l-97 -35l21 -17l3 99l-5 -9l269 347l-23 -4v0zM760 495
l19 28l-76 55l-18 -29l75 -54v0zM760 495z" />
    <glyph glyph-name="uniE619" unicode="&#xe619;" 
d="M589 121q-20 0 -33 16l-171 228q-6 7 -7.5 16t0.5 17.5t7 15.5l172 217q10 13 27 15t30 -8.5t15 -27t-9 -29.5l-152 -192l153 -203q10 -13 7.5 -30t-15.5 -27q-5 -4 -11.5 -6t-12.5 -2zM589 121zM512 -63q-91 0 -174 35q-80 34 -142 96t-96 142q-7 17 -12.5 33.5t-9.5 34
t-7 35t-4.5 35.5t-1.5 36q0 91 35 174q12 26 26.5 51t32 47.5t37.5 43.5q62 62 142 96q28 11 56.5 19t58 12t59.5 4q91 0 174 -35q11 -5 22 -10.5t22 -11.5t21.5 -12.5t20.5 -13.5t19.5 -15t18.5 -16t18 -17q31 -31 55 -66.5t41 -75.5q11 -28 19 -56.5t12 -58t4 -59.5
q0 -91 -35 -174q-34 -80 -96 -142t-142 -96q-21 -8 -42 -14.5t-43 -11t-44 -7t-45 -2.5zM512 750q-50 0 -97.5 -13t-87.5 -37t-73.5 -57.5t-57.5 -73.5t-37 -87.5t-13 -97.5q0 -99 49 -183.5t133.5 -133.5t183.5 -49q50 0 97.5 13t87.5 37t73.5 57.5t57.5 73.5t37 87.5
t13 97.5q0 74 -29 142t-78 117t-117 78t-142 29zM512 750z" />
    <glyph glyph-name="uniE61A" unicode="&#xe61a;" 
d="M435 121q-6 0 -12.5 2t-11.5 6q-13 10 -15.5 27t7.5 30l153 203l-152 192q-5 6 -7.5 14t-1.5 15.5t5 14.5t10 12q13 11 30 9t27 -15l172 -217q8 -11 8 -24.5t-8 -24.5l-171 -228q-3 -4 -7 -7t-8 -5t-8.5 -3t-9.5 -1zM435 121zM512 -63q-91 0 -174 35q-80 34 -142 96
t-96 142q-17 41 -26 85t-9 89q0 91 35 174q17 40 41 75.5t55 66.5q62 62 142 96q41 17 85 26t89 9q91 0 174 -35q80 -34 142 -96q9 -9 17 -18t16 -18.5t15 -19.5t13.5 -20.5t12.5 -21.5t11.5 -22t10.5 -22q17 -41 26 -85t9 -89q0 -30 -4 -59.5t-12 -58t-19 -56.5
q-34 -80 -96 -142t-142 -96l-28 -10q-14 -5 -28.5 -9t-29 -7t-29 -5t-29.5 -3t-30 -1zM512 750q-50 0 -97.5 -13t-87.5 -37t-73.5 -57.5t-57.5 -73.5t-37 -87.5t-13 -97.5q0 -99 49 -183.5t133.5 -133.5t183.5 -49q50 0 97.5 13t87.5 37t73.5 57.5t57.5 73.5t37 87.5
t13 97.5q0 74 -29 142t-78 117t-117 78t-142 29zM512 750z" />
    <glyph glyph-name="uniE61B" unicode="&#xe61b;" 
d="M750 675l-286 -291l286 -290q4 -3 7 -6.5t5 -7.5t4.5 -8t3.5 -8q3 -6 4 -12t2 -11.5t1 -11.5q0 -18 -7 -34q-3 -9 -8 -16.5t-12 -13.5q-6 -7 -13.5 -12t-15.5 -8.5t-16.5 -5.5t-17.5 -2q-37 0 -64 28l-346 349q-14 13 -21 32q-4 9 -6 18.5t-3 19.5q-1 19 5 36.5t19 28.5
l352 355q5 5 9.5 8.5t9.5 6.5t10.5 5t11 3.5t11.5 2.5t12 1q37 0 63 -27q7 -7 12 -14.5t8 -15.5q7 -17 7 -35q0 -9 -1.5 -17.5t-5.5 -16.5q-6 -17 -20 -30v0zM750 675z" />
    <glyph glyph-name="uniE61C" unicode="&#xe61c;" 
d="M274 675q-7 7 -12 14.5t-8 15.5q-7 17 -7 34.5t7 34.5q2 5 5 10.5t6.5 10.5t8.5 9q13 13 29 20t34 7q37 0 64 -27l352 -355q13 -11 19 -28.5t5 -36.5t-8.5 -38t-21.5 -32l-346 -349q-13 -14 -29 -21t-35 -7q-37 0 -63 28q-7 6 -12 13.5t-8 16.5q-7 16 -7 34t7 35
q2 5 5 10.5t6.5 10.5t8.5 9l286 290zM274 675z" />
    <glyph glyph-name="uniE61D" unicode="&#xe61d;" 
d="M377 384l386 388l-58 59l-386 -388l-58 -59l58 -59l386 -388l58 59zM377 384z" />
    <glyph glyph-name="uniE61E" unicode="&#xe61e;" 
d="M261 -4l58 -59l386 388l58 59l-58 59l-386 388l-58 -59l386 -388zM647 384z" />
    <glyph glyph-name="uniE61F" unicode="&#xe61f;" 
d="M915 85q0 60 -43 102t-104 42q-25 0 -49 -8.5t-43 -23.5t-32 -36l-246 178q4 17 4 31v1v1v2q0 16 -6 37l266 173q44 -45 106 -45q61 0 104 42t43 102v1v2q0 60 -43 102.5t-104 42.5q-40 0 -73.5 -19.5t-53 -52.5t-19.5 -73v-1v-1v-1q0 -15 4 -32l-267 -175
q-43 42 -103 42q-61 0 -104 -42.5t-43 -101.5v-2v0v-2q0 -59 43 -101.5t104 -42.5q21 0 41 6t37 16.5t30 25.5l258 -187v-2v-1v-1v-1q0 -60 43 -102.5t103.5 -42.5t103.5 42.5t43 102.5v1v1v1zM768 775q37 0 63.5 -26t26.5 -63t-26.5 -63t-63.5 -26q-12 0 -23.5 3t-21.5 9
t-18 14t-14 18t-9 21.5t-3 23.5q0 37 26 63t63 26zM257 282q-37 0 -63.5 26t-26.5 63t26.5 63t63.5 26q14 0 28 -4.5t25 -12.5t19 -19t12.5 -24.5t4.5 -28.5q0 -7 -1 -14.5t-3.5 -14t-5.5 -12.5t-7 -11.5t-9 -10.5t-10.5 -9t-11.5 -7.5t-13 -5.5t-14 -3t-14 -1zM768 -7
q-10 0 -20 2.5t-19 7t-17 10.5t-14 13.5t-10.5 16.5t-6.5 19t-2 21q0 37 26 63t63 26t63.5 -26t26.5 -63q0 -25 -12 -45.5t-33 -32.5t-45 -12z" />
    <glyph glyph-name="uniE620" unicode="&#xe620;" 
d="M768 539q61 0 104 42t43 102v1v2q0 60 -43 102.5t-103.5 42.5t-103.5 -42.5t-43 -102.5v-1v-1v-1q0 -15 4 -32l-267 -175q-43 42 -103 42q-61 0 -104 -42.5t-43 -101.5v-2v0v-2q0 -59 43 -101.5t104 -42.5q21 0 41 6t37 16.5t30 25.5l258 -187v-2v-1v-1v-1
q0 -60 43 -102.5t103.5 -42.5t103.5 42.5t43 102.5v1v1v1q0 60 -43 102t-104 42q-25 0 -49 -8.5t-43 -23.5t-32 -36l-246 178q4 17 4 31v1v1v2q0 16 -6 37l266 173q10 -10 22 -18.5t25.5 -14.5t28.5 -9t30 -3zM768 539z" />
    <glyph glyph-name="uniE621" unicode="&#xe621;" 
d="M146 732q-34 0 -57.5 -23t-23.5 -55.5t23.5 -55.5t57 -23t57 23t23.5 56q0 21 -10.5 39t-29 28.5t-40.5 10.5zM327 681v-59h632v59h-632zM146 463q-34 0 -57.5 -23t-23.5 -56t23.5 -56t57.5 -23q16 0 31 6.5t25.5 17t17 25t6.5 30.5q0 33 -23.5 56t-56.5 23zM327 357h632
v59h-632v-59zM146 193q-34 0 -57.5 -23t-23.5 -55.5t23.5 -55.5t57 -23t57 23t23.5 55q0 22 -10.5 40t-29 28.5t-40.5 10.5zM327 75h632v59h-632v-59zM327 75z" />
    <glyph glyph-name="uniE622" unicode="&#xe622;" 
d="M923 53h-35v288h-57v-288h-375v302h-37v-302h-215v288h-50v-288h-53q-10 0 -18 -5t-13 -13.5t-5 -17.5q0 -15 10.5 -25.5t25.5 -10.5h822q15 0 25.5 10.5t10.5 25.5q0 9 -5 17.5t-13 13.5t-18 5zM923 53zM497 211l12 -12l134 133l-14 11zM497 211zM786 243l-14 11
l-133 -132l13 -13zM786 243zM742 324l-13 13l-215 -215l13 -13zM742 324zM320 137q0 -6 2.5 -12t7 -10.5t10 -7t12.5 -2.5q13 0 22.5 9.5t9.5 22.5q0 15 -15 27v107q15 12 15 27q0 13 -9.5 22.5t-22.5 9.5t-22.5 -9.5t-9.5 -22.5q0 -7 4 -14t9 -12v-109q-5 -5 -9 -11.5
t-4 -14.5zM320 137zM152 380q18 0 32.5 8t23.5 23.5t10 36.5h13q2 -31 20.5 -49.5t45.5 -18.5q13 0 24.5 4.5t20.5 13.5t14.5 22t6.5 28h12q2 -31 20.5 -49.5t45.5 -18.5t46 18.5t20 49.5h13q2 -31 20.5 -49.5t45.5 -18.5q17 0 31.5 8t24 23.5t10.5 36.5h12
q2 -31 20.5 -49.5t45.5 -18.5q13 0 25 4.5t20.5 13.5t14 22t6.5 28h13q2 -31 20.5 -49.5t45.5 -18.5q17 0 31.5 8t24 23.5t10.5 36.5h-3v16h-857v-16h5q1 -15 6.5 -28t14.5 -22t20.5 -13.5t24.5 -4.5zM152 380zM154 787h713v-35h-713v35zM154 787zM858 730h-692l-83 -245
h858zM229 499h-36l54 216h35zM372 499h-36l33 216h36zM528 499h-36v216h36v-216zM655 499l-33 216h35l34 -216h-36zM798 499l-54 216h36l54 -216h-36zM798 499z" />
    <glyph glyph-name="uniE623" unicode="&#xe623;" 
d="M956 53l-140 274q-3 5 -7.5 8t-9.5 3q-11 0 -16 -11l-140 -274q-2 -4 -2.5 -8t0 -8t2.5 -7q2 -4 4.5 -6.5t5.5 -3.5t6 -1h280q11 0 17 11t0 23v0zM816 78q0 -3 -1 -5q-1 -1 -2 -1.5t-2 -0.5h-18q-2 0 -4 2l-1 5v10q0 3 1 5q1 1 2 1.5t2 0.5h18q2 0 4 -2q0 -1 0.5 -2
t0.5 -3v-10v0zM815 125q-2 -2 -4 -2h-18q-1 0 -2 0.5t-1 1.5l-2 5v44v70q0 3 1.5 5t3.5 2h18q2 0 4 -2l1 -5v-69v-45q0 -3 -1 -5v0zM815 125zM415 281l11 -10l108 109l-11 9zM415 281zM650 307l-11 9l-108 -107l11 -10zM650 307zM614 373l-10 10l-174 -174l10 -10zM614 373z
M272 221q0 -4 1.5 -8t3.5 -7t5.5 -5.5t7.5 -4t8 -1.5t8 1.5t7.5 4t5.5 5.5t3.5 7t1.5 8.5t-2 8.5t-4.5 7.5t-5.5 5.5v87q12 10 12 22q0 11 -7.5 18.5t-18.5 7.5q-4 0 -8 -1.5t-7.5 -4t-5.5 -5.5t-3.5 -7t-1.5 -8t1.5 -8t4 -7.5t5.5 -5.5v-89q-3 -2 -5.5 -5t-4 -7t-1.5 -9z
M272 221zM136 418q14 0 26 6.5t19.5 19.5t7.5 30h11q1 -26 16 -41t37 -15t37 15t17 41h10q1 -13 5.5 -23.5t11.5 -17.5t16.5 -11t19.5 -4q22 0 37.5 15t16.5 41h10q2 -26 17 -41t37 -15t37 15t16 41h10q2 -26 17 -41t37 -15t37 15t17 41h10q1 -26 16 -41t37 -15t37 15t17 41
h5v12h-703v-12h4q2 -26 17 -41t37 -15zM136 418zM137 749h579v-29h-579v29zM137 749zM709 703h-562l-67 -199h696zM198 515h-29l44 175h29zM314 515h-29l27 175h29zM440 515h-29v175h29v-175zM544 515l-27 175h29l27 -175h-29zM660 515l-44 175h29l44 -175h-29zM660 515z
M733 312v75h-46v-166zM652 153h-270v245h-29v-245h-175v234h-41v-234h-43q-4 0 -8.5 -1.5t-8 -4.5t-6.5 -6.5t-4.5 -8t-1.5 -8.5q0 -13 8.5 -21.5t20.5 -8.5h528z" />
    <glyph glyph-name="uniE624" unicode="&#xe624;" 
d="M415 287l10 -11l109 109l-12 9zM649 313l-11 9l-107 -108l10 -10zM614 378l-11 10l-174 -174l11 -10zM272 227q0 -7 3.5 -13t9.5 -9.5t13 -3.5q10 0 18 7.5t8 18.5q0 6 -3.5 12t-8.5 10v86q12 10 12 22q0 11 -8 18.5t-18.5 7.5t-18 -7.5t-7.5 -18.5q0 -6 3 -11.5t8 -9.5
v-88q-11 -9 -11 -21zM136 423q22 0 37 15t16 41h10q2 -26 17 -41t37 -15t37 15t16 41h11q1 -26 16 -41t37 -15t37 15t17 41h10q1 -26 16 -41t37 -15t37 15t17 41h10q1 -26 16 -41t37 -15q11 0 20.5 4t16.5 11t11.5 17.5t5.5 23.5h10q1 -17 8.5 -29.5t19 -19.5t25.5 -7
q22 0 37 15t17 41h-2v12h-695v-12h4q2 -26 17 -41t37 -15v0zM137 754h578v-29h-578v29zM708 707h-561l-67 -198h695zM198 520h-29l43 175h29zM314 520h-29l27 175h29zM440 520h-29v175h29v-175zM543 520l-27 175h29l27 -175h-29zM659 520l-43 175h29l43 -175h-29zM732 347
v45h-46v-71q21 16 46 26zM614 159h-232v245h-30v-245h-175v233h-40v-233h-43q-12 0 -20.5 -9t-8.5 -21q0 -6 2.5 -11.5t6.5 -9t9 -6t11 -2.5h535q-4 9 -7 18.5t-5 19.5t-3 21zM798 335q-66 0 -113 -47t-47 -113.5t47 -113.5t113.5 -47t113.5 47t47 113.5t-47 113.5t-114 47z
M895 198l-96 -96q-6 -6 -14.5 -6t-14.5 6l-49 49q-6 6 -6 14.5t6 13.5l4 4q6 6 14 6t14 -6l17 -17l14 -14h2l2 2l2 4l4 4l5 4l64 64q3 3 7 4.5t7.5 1.5t7.5 -1.5t7 -4.5l3 -3q4 -4 5.5 -9.5t0 -10.5t-5.5 -9zM895 198z" />
    <glyph glyph-name="uniE625" unicode="&#xe625;" 
d="M405 296l10 -10l106 105l-11 9zM405 296zM634 321l-11 8l-105 -104l10 -10zM634 321zM599 385l-10 10l-169 -170l10 -10zM599 385zM266 237q0 -10 7.5 -17.5t17.5 -7.5q6 0 10.5 2t8 5.5t5.5 8t2 9.5q0 12 -12 22v84q5 4 8.5 9.5t3.5 11.5q0 3 -1 6t-2 5.5t-3 4.5l-4 4
q-2 2 -4.5 3t-5.5 1.5t-6 0.5q-4 0 -7.5 -1t-7 -3.5t-5.5 -5.5t-3.5 -7t-1.5 -8q0 -6 3 -11.5t8 -8.5v-86l-4 -4q-2 -2 -3.5 -5t-2.5 -6t-1 -6zM266 237zM134 429q14 0 25.5 6t18.5 18.5t8 29.5h10q1 -25 16 -39.5t36 -14.5t36 14.5t16 39.5h10q1 -25 16 -39.5t36 -14.5
q6 0 11.5 1t10.5 3.5t9.5 6t8 8t6 10t4.5 12t2 13.5h10q1 -13 5 -23t11 -17t16.5 -10.5t19.5 -3.5q14 0 25.5 6t18.5 18.5t8 29.5h10q1 -17 8 -29.5t18.5 -18.5t25.5 -6t25.5 6t18.5 18.5t8 29.5h10q1 -25 16 -39.5t36 -14.5t35.5 14.5t16.5 39.5h-2v12h-676v-12h4
q1 -25 16 -39.5t36 -14.5zM134 429zM135 750h562v-28h-562v28zM135 750zM691 705h-546l-66 -193h677zM194 523h-28l42 170h29zM307 523h-28l26 170h28zM430 523h-28v170h28v-170zM530 523l-26 170h28l27 -170h-29zM643 523l-42 170h28l42 -170h-28zM643 523zM714 354v44h-45
v-69q7 5 14.5 9.5t15 8.5t15.5 7zM600 171h-227v238h-29v-238h-170v227h-39v-227h-42q-7 0 -13.5 -4t-10.5 -10.5t-4 -14.5q0 -11 8.5 -19.5t19.5 -8.5h521q-4 9 -7 18t-4.5 19t-2.5 20zM873 209zM802 330q-31 0 -60 -12t-50 -33t-33.5 -50t-12.5 -61q0 -42 21 -78t57 -57
t78 -21q32 0 61 12.5t50 33t33.5 49.5t12.5 61q0 65 -46 110.5t-111 45.5zM905 169q0 -8 -8 -9l-17 -3q-2 0 -6 -5t-6 -9q-3 -6 1 -12l10 -14q5 -6 -1 -12l-7 -7q-5 -5 -12 -1l-13 10q-2 1 -6 1t-7.5 -0.5t-5.5 -1.5q-3 -1 -5 -4t-3 -6l-2 -16q-1 -8 -9 -8h-11
q-1 0 -2.5 0.5t-3 1.5t-2.5 2.5t-1 3.5l-2 16q-1 6 -14 13q-2 0 -3.5 0.5t-2.5 0.5l-4 -2q-1 0 -3 -1l-13 -10q-7 -4 -12 1l-7 7q-6 6 -1 12l9 14q1 1 1.5 3t0.5 4t-0.5 4.5t-1 4t-0.5 3.5q-1 2 -4 4.5t-7 2.5l-16 3q-8 1 -8 9v10q0 3 2.5 6t5.5 3l16 3q7 1 13 14q3 6 -2 12
l-9 14q-2 2 -2 5.5t3 6.5l7 7q5 6 12 1l13 -10q5 -4 19 1q6 2 8 10l2 16l2 4q1 2 3 3t4 1h11q8 0 9 -8l2 -16q0 -1 2 -3.5t4.5 -4t4.5 -3t3 -2.5q6 -3 13 2l13 10q7 5 12 -1l7 -7q6 -6 1 -12l-10 -14q-3 -5 1 -18q3 -7 11 -8l16 -3q1 0 2.5 -1t2.5 -2t2 -2.5t1 -3.5v-10z
M802.5 214q-16.5 0 -28.5 -11.5t-12 -28.5t12 -28.5t28.5 -11.5t28.5 11.5t12 28.5t-12 28.5t-28.5 11.5zM820 157q-4 -4 -8.5 -5.5t-9.5 -1.5q-10 0 -17 7t-7 17q0 5 2 9.5t5 7.5q7 7 17.5 7t17.5 -7t7 -17t-7 -17z" />
    <glyph glyph-name="uniE626" unicode="&#xe626;" 
d="M485 590l16 30q17 32 51 42t69 -8q17 -8 28.5 -21t16.5 -30q12 -35 -6 -68l-50 -95q-24 -44 -59 -56q-28 -9 -59 6q-8 4 -11 13.5t1.5 18t14 11.5t18.5 -1q29 -15 52 29l51 95q8 15 3 32q-6 16 -22 24q-14 8 -30.5 5.5t-24.5 -18.5l-16 -30q-5 -9 -14.5 -12t-18.5 2
q-3 1 -5 3t-4 4.5t-2 5.5l-2 6q0 3 1 6zM403 243q33 -17 69 -5q12 4 21.5 10t18 15t14.5 20l13 24q3 6 2.5 12t-3.5 11t-9 8t-12.5 3t-12 -3.5t-8.5 -9.5l-12 -24q-4 -6 -9 -11t-11 -8t-12.5 -4t-13.5 0t-13 4q-3 1 -5.5 2.5t-4.5 3.5t-3 4l-4 4q-1 2 -2.5 4.5t-1.5 5.5
q-2 4 -2.5 8t0 8t1.5 8t3 8l48 89q26 49 56 35q6 -3 12 -2.5t11.5 4t8.5 9.5t2.5 12t-4 11t-8.5 8q-33 16 -66 1t-55 -57l-47 -89q-9 -16 -10.5 -33.5t4.5 -34.5q11 -35 45 -51zM811 758v-748q0 -19 -9.5 -36t-26.5 -27t-37 -10h-452q-31 0 -52 21.5t-21 51.5v748
q0 30 21 51.5t52 21.5h452q20 0 37 -10t26.5 -26.5t9.5 -36.5zM568 40q0 15 -7.5 28t-20.5 20.5t-28 7.5q-23 0 -39.5 -16.5t-16.5 -39.5t16.5 -39.5t39.5 -16.5t39.5 16.5t16.5 39.5zM736 756h-448v-613h448v613zM736 756z" />
    <glyph glyph-name="uniE627" unicode="&#xe627;" 
d="M547 280h-419v476h750v-287q8 -2 14 -4.5t13 -7.5t10 -7.5t11.5 -11t10.5 -11.5l1 -1l1 -1v322q0 31 -21.5 52.5t-52.5 21.5h-735q-30 0 -47.5 -21t-17.5 -53v-469q0 -30 17 -46t48 -16h412zM926 362q-34 33 -77 34.5t-74 -29.5l-30 -29q-9 -8 -9 -19.5t8.5 -20t21 -8.5
t20.5 8l30 29q8 7 17.5 10t18.5 1.5t17.5 -6t15.5 -11.5q5 -5 8.5 -10.5t5 -12t1.5 -13.5q0 -21 -15 -36l-94 -90q-43 -42 -71 -14q-6 5 -13.5 7t-15 0t-13.5 -7q-8 -8 -8 -20t8 -20q30 -29 66 -29q15 0 29.5 4.5t29.5 14t29 23.5l94 91q16 15 24.5 35t8.5 41.5t-8.5 41
t-24.5 35.5v0zM701 32q-8 8 -20 8t-21 -8l-24 -24q-15 -15 -37 -15t-37.5 15t-15.5 36q0 11 4 20t11 16l88 85q8 8 16.5 14t19.5 11.5t21.5 4t19.5 -9.5q9 -9 21 -8.5t20.5 8.5t8.5 20t-9 20q-12 12 -27 19t-31.5 7.5t-33.5 -4t-34 -15t-33 -26.5l-88 -85q-33 -32 -33 -77
q0 -20 8 -34.5t25 -31.5q33 -31 79 -31t78 32l24 23q16 15 0 30v0zM578 583q3 0 5.5 -0.5t4.5 -0.5h6q-11 47 -56.5 78.5t-103.5 31.5q-65 0 -111.5 -39t-46.5 -95q0 -13 3 -25t8 -23t13 -21.5t17.5 -19.5t21.5 -17l-16 -48l56 28q2 -1 10.5 -2.5t12 -2t10 -1.5t11.5 -1.5
t11 -0.5q7 0 15 1q-5 17 -5 33q0 51 39 88t95 37v0zM493 625q9 0 14.5 -5.5t5.5 -14t-5.5 -14t-14.5 -5.5t-16 5.5t-7 14t7 14t16 5.5zM383 586q-5 0 -9 1.5t-7.5 4t-5.5 6t-2 8t2 8t5.5 6t7.5 4t9 1.5q6 0 10.5 -2.5t6.5 -7t2 -9.5t-1 -8.5t-4 -6t-6.5 -4t-7.5 -1.5z
M731 452q0 47 -40.5 80.5t-94.5 33.5q-22 0 -42.5 -5.5t-37 -16.5t-29 -25t-19 -31.5t-6.5 -35.5q0 -48 39 -81.5t95 -33.5q16 0 48 8l43 -24l-12 40q13 9 22.5 19t17 21.5t12 24.5t4.5 26v0zM553 471q-6 0 -11 5t-5 11t5 11t11 5t10.5 -2.5t7 -6t2.5 -7.5q0 -6 -6 -11
t-14 -5zM640 471q-6 0 -11 5t-5 11t5 11t10.5 5t10.5 -2.5t7.5 -6t2.5 -7.5q0 -6 -6 -11t-14 -5zM640 471z" />
    <glyph glyph-name="uniE628" unicode="&#xe628;" 
d="M772 197q-30 0 -50.5 -19.5t-20.5 -47.5q0 -18 9.5 -33t25.5 -24t36 -9q29 0 49.5 19.5t20.5 46.5q0 18 -9.5 33.5t-25.5 24.5t-35 9v0zM772 97q-15 0 -25.5 10t-10.5 23q0 9 5 17t13 12.5t17.5 4.5t17.5 -4.5t13 -12.5t5 -17q0 -13 -10.5 -23t-24.5 -10v0zM909 167
q-2 8 -5.5 15.5t-7.5 14.5q30 39 12 56l-8 8q-15 14 -58 -13q-5 3 -10.5 5.5t-11 4.5t-11.5 3q-1 9 -4 17.5t-10.5 19t-18.5 10.5h-9q-9 0 -17 -10.5t-11 -19.5t-5 -17q-17 -5 -33 -13q-41 29 -58 12l-9 -7q-4 -4 -4.5 -10.5t1.5 -13t6 -14t6.5 -11.5t4.5 -7q-3 -5 -5.5 -10
t-4.5 -10t-3 -11q-9 -1 -18 -3.5t-21 -10t-12 -17.5v-9q0 -20 51 -32q5 -15 13 -30q-28 -42 -13 -56l8 -7q11 -8 24 -4.5t24 9.5t11 7l-2 2q5 -3 10.5 -5.5t11.5 -5t12 -3.5q1 -5 3 -11t6.5 -15.5t10.5 -15.5t13 -6h9q12 0 20.5 11.5t10.5 23.5l3 12h-3q18 4 35 13
q5 -3 10.5 -6t16 -7.5t17 -4t13.5 4.5l9 9q5 5 5.5 12.5t-1.5 14t-6.5 14t-6.5 10t-3 4.5q8 15 13 31q50 12 50 31v9q0 6 -3.5 11t-9 8t-11 5.5t-12 4t-9.5 2t-5 1.5v0zM772 30q-44 0 -75 29.5t-31 71t31 70.5t74.5 29t74.5 -29t31 -70.5t-31 -71t-74 -29.5v0zM184 73
q-7 0 -12 5t-5 12v173q0 13 -9 22t-21 9q-8 0 -15 -4.5t-11 -11.5t-4 -15v-178q0 -33 23.5 -56.5t56.5 -23.5h407q0 20 21 51q-5 8 -9 17h-422v0zM156 352q35 -19 80 -19q80 0 130 61q25 -29 58.5 -45t71.5 -16q79 1 129 61q51 -61 131 -61q46 1 81 20q28 15 48 38t30.5 52
t10.5 60q0 27 -8 53v1q-1 1 -1 2.5t-1 2.5l-73 176q-10 31 -35.5 54t-55.5 23h-511q-30 0 -54 -22.5t-34 -52.5l-78 -180l-1 -2v-2q-4 -13 -6.5 -26.5t-2.5 -26.5q0 -32 11 -61t31.5 -52.5t48.5 -37.5v0zM269 613h456q6 0 11.5 -2.5t9.5 -6.5t6 -9.5t2 -11.5q0 -3 -0.5 -6
t-1.5 -6t-2 -5.5t-2.5 -5t-3.5 -5t-4 -4.5t-4.5 -3t-5.5 -2t-5 -1h-456q-13 0 -23.5 10.5t-10.5 23.5t10.5 23.5t23.5 10.5v0zM838 307l1 1h-3q1 0 2 -1v0zM136 294h1h1h-2v0zM136 294z" />
    <glyph glyph-name="uniE629" unicode="&#xe629;" 
d="M686 490q-113 0 -192.5 -79.5t-79.5 -192.5q0 -27 5.5 -54t16 -51t25 -46t33 -40.5t40.5 -33.5t46 -25t51 -15.5t55 -5.5q112 0 191.5 79.5t79.5 191.5q0 74 -36 136.5t-99 99t-136 36.5zM746 255q4 0 7 -0.5t6 -0.5h41q6 0 10.5 -5t4.5 -10v-29q0 -9 -12 -9h-72
q-1 0 -3 -1h-2l-4 -2q-4 -2 -4 -7v-10q1 -3 1 -5v-5q0 -7 12 -4h71q3 0 5 -1t3.5 -2.5t2.5 -3.5t1 -5v-27q0 -6 -4.5 -9t-12.5 -3h-16h-9q-4 0 -11 -1h-9h-10h-11q-5 0 -8 -3.5t-3 -9.5v-41v-8q0 -7 -9 -7h-39q-16 0 -16 14q0 1 1 21q1 16 -1 22q0 6 -1 8t-7 2h-73
q-16 0 -16 16l-1 10q-1 5 0 11t4 12q2 4 9 3h15h24h24h12h6q2 0 2.5 1.5t0.5 4.5v24q0 6 -15 6h-70h-2h-4h-2q-4 1 -4 7v15q0 5 -0.5 9t-0.5 6q-3 7 3 12t16 5q10 -1 22 0h10h7h14q8 0 5 5q-3 3 -14 19q-8 11 -26 33q-14 20 -36 46q-4 7 -3 12.5t7 9.5t12 9q7 6 16 11
q12 7 23 -14q3 -5 14 -18l21 -27q10 -14 20 -27q9 -10 11 -14q1 -3 3.5 -4.5t5.5 -1.5q7 -2 9 3q1 3 11 16q3 5 6 9t6.5 9.5t7.5 10.5q1 2 3.5 6t4.5 6.5t4 5.5l4 6l4 6q2 2 3.5 4.5t2.5 3.5l2 4l2 2l2 2v2q6 8 11 11q4 2 14 -1q3 -1 6 -3t7 -4q7 -6 10 -8q13 -14 7 -23
q-2 -3 -11 -16q-2 -2 -2 -3q-4 -4 -8 -9.5t-8.5 -11.5t-7.5 -11q-12 -14 -23 -31q-6 -9 -11 -17h-1q-3 -6 3 -8zM401 831q-68 0 -130 -13.5t-106.5 -35.5t-71 -52.5t-26.5 -64.5t26.5 -64.5t71 -53t106.5 -35.5t130 -13t130 13t107 35.5t71.5 53t26.5 64.5q0 17 -7 33.5
t-19.5 31t-31 28t-41 24.5t-49.5 20t-56.5 15.5t-63 10t-67.5 3.5zM447 689zM507 456q-52 -8 -106 -8q-118 0 -209 36.5t-117 92.5q-8 -19 -8 -37q0 -45 44.5 -83.5t121.5 -60.5t168 -22h12q6 0 15 1q31 49 79 81zM507 456zM726 502q10 19 10 38q0 4 -0.5 7.5t-1.5 7.5t-2 7
l-2 8q-1 3 -3 7q-9 -20 -27 -37.5t-44 -32.5h6h9q27 0 55 -5zM726 502zM401 339q-78 0 -147 16.5t-115.5 46t-63.5 66.5q-8 -19 -8 -37q0 -33 25 -63t67.5 -52t101.5 -35.5t125 -15.5q3 20 8.5 38t13.5 36h-4h-3zM401 339zM382 230q-112 3 -197 39t-110 89q-8 -18 -8 -36
q0 -67 93.5 -115.5t228.5 -50.5q-4 15 -5.5 31t-1.5 32v3v4v4zM382 230zM75 249q-8 -18 -8 -37q0 -45 44.5 -83t121.5 -60.5t168 -22.5q18 0 37 2q-12 16 -22 34.5t-17 37.5q-117 1 -207.5 37.5t-116.5 91.5zM75 249zM467 14q-11 -1 -21.5 -1.5t-22 -1t-22.5 -0.5
q-78 0 -147 17t-115.5 46t-63.5 66q-8 -19 -8 -37q0 -45 44.5 -83t121.5 -60.5t168 -22.5q80 0 151 18q-48 22 -85 59zM467 14z" />
    <glyph glyph-name="uniE62A" unicode="&#xe62a;" 
d="M959 607l-447 224l-447 -223v-447l447 -224l447 224v446v0zM512 777l336 -169l-128 -64l-338 168zM324 680l342 -165l-154 -74l-336 166zM121 551h18l-18 1v27l363 -181v-391l-363 182v362zM903 524v-335l-363 -182v391l363 181v-55z" />
    <glyph glyph-name="uniE62B" unicode="&#xe62b;" 
d="M512 831q-73 0 -141 -22.5t-123 -64t-96.5 -96.5t-64 -123t-22.5 -141q0 -91 35.5 -173.5t95.5 -142.5t142.5 -95.5t173.5 -35.5t173.5 35.5t142.5 95.5t95.5 142.5t35.5 173.5q0 73 -22.5 141t-64 123t-96.5 96.5t-123 64t-141 22.5zM512 528zM512 245v-2v2zM748 111h-4
q-9 2 -15 8.5t-7 14.5q-10 71 -62 124q-31 30 -69 46.5t-79 16.5q-85 0 -148 -63q-51 -52 -62 -124q-3 -19 -22 -23h-4h-3q-12 1 -19 10.5t-6 20.5q6 43 25 81l2 4l2 4q1 2 2 3.5t2 3.5q18 31 44 57q2 1 3.5 3t3.5 4t4 3q7 6 14 11.5t14 10t14.5 9t15 8.5t15.5 7
q-9 7 -17 15q-50 50 -50 120.5t50 121.5q49 49 118 50h4q69 -2 118 -50q50 -50 50 -121q0 -11 -1.5 -22.5t-4.5 -22t-7 -21t-9.5 -20t-12.5 -18.5t-15 -17q-4 -4 -8.5 -8t-9.5 -7q20 -8 38.5 -19.5t34.5 -26.5q4 -3 12 -10q13 -13 24 -27t20 -30l8 -15q9 -19 15.5 -39.5
t8.5 -41.5q2 -11 -5 -20.5t-18 -10.5h-4v0zM510 397q2 1 3 1h1zM512 528zM636 458v2q4 13 4 27t-4 28v1v1q-7 27 -25.5 49.5t-44 35.5t-54.5 13q-43 0 -78 -28.5t-46 -69.5v-1v-1q-4 -14 -4 -28t4 -27v-2q11 -40 45.5 -67t77.5 -27h2q43 0 77.5 27t45.5 67v0zM510 397
q2 1 4 1h-1q-1 0 -1.5 -0.5t-1.5 -0.5zM510 397z" />
    <glyph glyph-name="uniE62C" unicode="&#xe62c;" 
d="M868 115l-107 106q49 74 49 163q0 123 -87.5 210.5t-210.5 87.5q-18 0 -35.5 -2t-34.5 -6.5t-33 -10t-31 -13.5t-29 -17l-106 107q120 91 269 91q73 0 141 -22.5t123 -64t96.5 -96.5t64 -123t22.5 -141q0 -149 -91 -269v0zM661 347v-75h-112v-111h-74v111h-112v75h112v37
h-112v74h37l-37 75h75l37 -75h74l37 75h75l-37 -75h37v-74h-112v-37h112zM214 384q0 -123 87.5 -210.5t210.5 -87.5q74 0 139 35l109 -109q-113 -75 -248 -75q-73 0 -141 22.5t-123 64t-96.5 96.5t-64 123t-22.5 141q0 135 75 248l109 -109q-35 -65 -35 -139v0zM214 384z
" />
    <glyph glyph-name="uniE62D" unicode="&#xe62d;" 
d="M654 462q28 0 47.5 19.5t19.5 47.5t-19.5 47.5t-47.5 19.5t-47.5 -19.5t-19.5 -47.5t19.5 -47.5t47.5 -19.5zM370 462q28 0 47.5 19.5t19.5 47.5t-19.5 47.5t-47.5 19.5q-13 0 -25.5 -5.5t-21.5 -14.5t-14.5 -21.5t-5.5 -25.5q0 -19 9 -34t24.5 -24t33.5 -9zM679 323
q-10 -26 -26.5 -47t-38 -36.5t-48 -24t-54.5 -8.5q-57 0 -102.5 32t-64.5 84l-46 26l-36 -50q27 -78 95.5 -127.5t154 -49.5t153.5 49.5t95 127.5l-36 50zM512 831q-61 0 -119 -16t-107 -45t-90 -70t-70 -90t-45 -107t-16 -119q0 -91 35.5 -173.5t95.5 -142.5t142.5 -95.5
t173.5 -35.5t173.5 35.5t142.5 95.5t95.5 142.5t35.5 173.5t-35.5 173.5t-95.5 142.5t-142.5 95.5t-173.5 35.5zM512 26q-97 0 -179.5 48t-130.5 130.5t-48 179.5q0 58 18 113t51 99t77 77t99 51t113 18q97 0 179.5 -48t130.5 -130.5t48 -179.5t-48 -179.5t-130.5 -130.5
t-179.5 -48zM512 26z" />
    <glyph glyph-name="uniE62E" unicode="&#xe62e;" 
d="M308 683l-63 64l-25 -26l63 -63zM494 831h36v-90h-36v90zM390 480h-57v-165h57q38 0 62.5 23.5t24.5 61.5q0 80 -87 80zM426 359q-14 -15 -39 -15h-19v107h19q24 0 39 -13q5 -5 8 -10.5t5 -12.5t2 -16q0 -8 -2 -15.5t-5 -13.5t-8 -11zM804 721l-25 26l-63 -64l25 -25z
M635 417l-2 -6q-1 -3 -1 -7h-1q-3 11 -4 13l-27 63h-41l53 -106v-59h35v59l54 106h-38zM491 453h14v-110h-14v-28h63v28h-14v110h14v27h-63v-27zM512 668q-106 0 -181 -75.5t-75 -182.5q0 -37 10 -72t28 -64t43.5 -53t55.5 -41v-123q0 -49 35 -84.5t84 -35.5t84 35.5
t35 84.5v123q62 33 100 94.5t38 135.5q0 70 -34.5 129.5t-93.5 94t-129 34.5zM595 57q0 -34 -24.5 -59t-58.5 -25t-58.5 25t-24.5 59v27h166v-27zM595 108h-166v57q1 -1 3 -1.5t3 -0.5l1 -1q2 0 3 -0.5t2 -0.5h1q3 -1 5 -2h1l6 -1l1 -1q2 0 5 -1h2q1 0 1.5 -0.5t2.5 -0.5h2
q1 -1 4 -1h2q1 0 2 -0.5t2 -0.5h1h1q2 0 5 -1h2h5h2q2 -1 4 -1h2h4h2h6h6h2h4h2q2 0 4 1h3h4h1h1l5 1h2q3 1 4 1h3h1q1 1 2 1h2q1 0 3 1h1h1h1q1 1 2 1h3q1 0 1 1q1 0 2.5 0.5t3.5 0.5h1l1 1l3 1h2q1 0 4 1q1 0 2 1l6 2v-57zM547 190l-4 -1h-1h-2h-1l-2 -1h-3h-5h-1
q-2 -1 -4 -1h-2h-3h-2h-5h-5h-2h-1h-2h-2q-2 0 -4 1h-1h-5h-2h-1l-2 1h-3h-2l-1 1h-2q-79 12 -132.5 74.5t-53.5 145.5q0 36 11.5 70t31.5 61t47.5 48t61 32t69.5 11q60 0 111 -29.5t80.5 -81t29.5 -111.5q0 -83 -53.5 -145t-132.5 -75z" />
    <glyph glyph-name="uniE62F" unicode="&#xe62f;" 
d="M854 -10q-29 0 -53 14t-38.5 38t-14.5 53q0 36 22.5 64.5t57.5 37.5v1l-1 1v80q0 33 -23 56t-56 23h-210v-155q0 -2 -1 -5v-1q23 -6 41 -20.5t28.5 -36t10.5 -45.5q0 -44 -30.5 -74.5t-74.5 -30.5t-74.5 30.5t-30.5 74.5q0 24 10.5 45.5t28.5 36t41 20.5q-1 5 -1 6v155
h-211q-32 0 -55 -23t-23 -56v-76q0 -2 -1 -5l-1 -1q35 -9 57.5 -37t22.5 -65q0 -44 -30.5 -74.5t-74.5 -30.5q-21 0 -40.5 8.5t-33.5 22.5t-22.5 33.5t-8.5 40.5q0 37 23 65t57 37v1q-1 3 -1 5v76q0 55 38.5 93.5t92.5 38.5h211v161q-12 2 -22 7.5t-19 12.5t-16 16t-12 19.5
t-7.5 22t-2.5 23.5q0 44 30.5 74.5t74.5 30.5q29 0 53 -14t38 -38t14 -53q0 -36 -22 -64.5t-57 -36.5v-161h210q55 0 93.5 -38.5t38.5 -93.5v-80v-1l-1 -1q35 -9 57.5 -37.5t22.5 -64.5q0 -44 -31 -74.5t-74 -30.5v0zM854 -10z" />
    <glyph glyph-name="uniE630" unicode="&#xe630;" 
d="M734 639q-6 0 -10 -4t-4 -10v-646q0 -6 -4.5 -10t-9.5 -4h-521q-7 0 -13.5 4t-10.5 10.5t-4 14t4 14t10.5 10t13.5 3.5h470q17 0 29.5 12.5t12.5 29.5v576q0 12 -5.5 21.5t-15.5 15t-21 5.5h-484q-4 0 -9 -1t-9 -3t-7.5 -5t-6.5 -6.5t-5 -7.5t-3 -9t-1 -10v-646v-3
q1 -22 17 -37.5t38 -15.5h522q17 1 29 13t12 29v646q0 4 -2 7t-5.5 5t-6.5 2v0zM157 112v527q0 6 4.5 10t9.5 4h484q6 0 10 -4t4 -10v-576q0 -6 -4 -10t-10 -4h-470q-14 0 -28 -8v71v0zM685 7h-498q-6 0 -10 -4t-4 -10t4 -10t10 -4h498q6 0 10 4t4 10q0 4 -2 7t-5 5t-7 2z
M715 762q-6 -2 -8.5 -8t-0.5 -12t8 -9t12 -1q26 9 51 -16q12 -12 16.5 -25t4 -18.5t-1.5 -7.5q-2 -7 1 -12.5t9 -7.5q9 -2 16 3q3 3 4 7q1 2 1.5 5.5t1 12.5t-2 18.5t-9 22.5t-18.5 24q-17 18 -39 23.5t-30.5 4t-14.5 -3.5v0zM717 829q-6 -1 -9.5 -6.5t-2 -12t7 -10
t11.5 -2.5q1 1 2 1h6h8q4 0 10 -1t12 -2.5t13.5 -4.5t15 -7t15.5 -10.5t16 -13.5q14 -14 23 -29t12.5 -26t4.5 -21.5t1 -14.5t-1 -6q-1 -7 2.5 -12.5t10.5 -6.5h5q3 0 5 1.5t4 2.5q2 2 3 4t1 4q1 4 1.5 9t-1 19t-5.5 28t-15 33.5t-28.5 36.5t-36.5 28t-33.5 15t-29 5
t-19.5 0.5t-9 -1.5v0zM555 505h-190q-10 0 -19 -5t-14 -14t-5 -19v-114q0 -16 11 -27t27 -11h75l76 -65l15 65h24q10 0 19 5t14 13.5t5 19.5v114q0 16 -11 27t-27 11zM345 288q-20 0 -32 10t-12 28v128h-12q-16 0 -27 -11t-11 -27v-101q0 -6 2 -12t5.5 -10.5t8 -8t10.5 -5.5
t12 -2h24l15 -65l76 65h41l-21 11h-3h-9h-12q-6 0 -13.5 -0.5t-14.5 -0.5h-14q-8 0 -13 1v0zM345 288z" />
    <glyph glyph-name="uniE631" unicode="&#xe631;" 
d="M123 354h1h2q11 0 19 7t9 18q9 85 55.5 156.5t120.5 113.5q10 6 13 17t-2.5 21.5t-17 13.5t-21.5 -3q-85 -49 -139.5 -132t-64.5 -181q-1 -12 6.5 -21t18.5 -10zM681 34q-81 -46 -175 -46q-108 0 -198 60q-9 7 -20.5 4.5t-18 -12t-4.5 -21t12 -17.5q104 -70 229 -70
q109 0 203 53q10 6 13 17t-3 21.5t-17 13.5t-21 -3zM704 636q44 -30 77 -70.5t53 -89t25 -101.5q1 -16 1 -33q0 -12 8.5 -20t20 -8t19.5 8t8 20q0 20 -1 39q-4 36 -13.5 71t-25.5 67.5t-36.5 62t-47 54.5t-56.5 46q-7 4 -14.5 4.5t-14 -2.5t-11 -9.5t-5 -14t3 -14t9.5 -10.5
v0zM411 735q0 -42 29 -71q15 -14 33.5 -22t38.5 -8q42 0 72 30q4 4 8 9.5t7.5 11t6 12t4 12.5t2.5 13t1 13q0 42 -29.5 71.5t-71.5 29.5q-10 0 -20 -2t-19 -5.5t-17.5 -9t-15.5 -12.5q-29 -30 -29 -72zM65 165q0 -42 30 -71.5t71 -29.5q20 0 39 7.5t33 21.5q30 30 30 72
t-30 71q-9 10 -21 16.5t-24.5 10t-26.5 3.5q-41 0 -71 -29.5t-30 -71.5zM756 162q0 -10 2 -20t6 -19t9.5 -17.5t12.5 -15.5q30 -29 71.5 -29t71.5 29q9 10 16 21.5t10.5 24.5t3.5 26q0 42 -30 71.5t-71 29.5q-20 0 -39 -7.5t-33 -22.5q-30 -29 -30 -71zM756 162z" />
    <glyph glyph-name="uniE632" unicode="&#xe632;" 
d="M553 487q0 3 -0.5 5t-2.5 4t-4 3t-5 1h-277q-5 0 -8.5 -4t-3.5 -9v-217q0 -5 3.5 -8.5t8.5 -3.5h10q5 0 8.5 3.5t3.5 8.5v182q0 3 1 5t2.5 4t4 2.5t4.5 0.5h243q5 0 8.5 4t3.5 9v10zM576 441h-254q-6 0 -10 -4t-4 -10v-225q0 -6 4 -10t10 -4h254q4 0 7 1.5t5 5t2 7.5v225
q0 3 -1 5.5t-3 4.5t-4.5 3t-5.5 1v0zM548 230h-198v70l43 43l70 -71l42 42l43 -42v-42v0zM519 343q-11 0 -19.5 8t-8.5 19.5t8.5 20t20 8.5t20 -8.5t8.5 -19.5q0 -8 -4 -14.5t-10.5 -10t-14.5 -3.5v0zM677 5h-483q-3 0 -6 -2t-5 -5t-2 -7q0 -5 4 -9t9 -4h483q6 0 10 4t4 9
q0 3 -1 5t-2 3.5t-3 2.5l-4 2q-2 1 -4 1zM711 421v-443q0 -6 -4 -10t-10 -4h-504q-7 0 -13.5 4t-10 10t-3.5 13q0 12 8 19.5t19 7.5h455q17 0 28.5 12t11.5 29v362h-27v-362q0 -6 -3.5 -10t-9.5 -4h-455q-7 0 -14 -1.5t-13 -5.5v579q0 6 4 10t9 4h290v27h-290
q-11 0 -20 -5.5t-14.5 -15t-5.5 -20.5v-626v-1v-2q1 -21 16.5 -36t37.5 -15h505q11 1 20 6.5t14.5 14.5t5.5 20v443h-27zM864 682h-23q-5 28 -22 52l16 17q6 6 6 15t-6 15t-15 6t-15 -6l-16 -17q-24 17 -53 22v23q0 6 -3 11t-8 8t-10 3q-4 0 -7 -1t-6 -3t-5 -5t-3 -6t-1 -7
v-23q-14 -2 -27.5 -7.5t-25.5 -14.5l-16 17q-4 4 -9.5 5.5t-11 0t-9.5 -5.5t-5.5 -9.5t0 -11t5.5 -9.5l16 -17q-5 -7 -9.5 -15.5t-7.5 -18t-5 -18.5h-23q-4 0 -8 -2t-7 -5t-4.5 -6.5t-1.5 -8t1.5 -8.5t4.5 -7t7 -4.5t8 -1.5h23q5 -29 22 -53l-16 -16q-2 -2 -3.5 -4.5t-2 -5
t-0.5 -5.5t0.5 -5.5t2 -5t3.5 -4.5q6 -7 15 -7t15 7l16 16q8 -5 16.5 -9.5t18 -7.5t18.5 -5v-23q0 -9 6.5 -15t15.5 -6q5 0 10 2.5t8 7.5t3 11v23q29 5 53 22l16 -16q3 -3 7 -5t8 -2t8 2t7 5q4 4 5.5 9.5t0 11t-5.5 9.5l-16 16q17 24 22 53h23q9 0 15 6t6 15q0 4 -1 7
t-3 5.5t-4.5 4.5t-6 3.5t-6.5 1.5v0zM715 575q-24 0 -43.5 11.5t-31 31t-11.5 42.5t11.5 43t31 31t43 11t43 -11t31 -31t11.5 -43q0 -8 -2 -16.5t-5 -16.5t-7.5 -14.5t-10.5 -12.5t-13 -10.5t-14.5 -8t-16 -5t-16.5 -1.5zM715 703q-12 0 -22 -6t-15.5 -15.5t-5.5 -21.5
q0 -17 12.5 -29.5t30 -12.5t30 12.5t12.5 30t-12.5 30t-29.5 12.5zM715 703z" />
    <glyph glyph-name="uniE633" unicode="&#xe633;" 
d="M455 339q3 0 5.5 1t4.5 2.5t3 3.5l70 121q15 26 7 55q-1 4 -3 8l-2 6q-2 4 -4.5 7.5t-5 6.5t-5.5 5.5t-6.5 5t-6.5 4.5q-18 9 -36.5 9t-36 -9.5t-26.5 -25.5q-3 -5 -4 -9q-4 3 -9 5q-25 15 -54.5 7t-44.5 -33q-15 -26 -7 -55q3 -9 7.5 -17t11 -15t15.5 -12l120 -69
q4 -2 7 -2v0zM898 609q-12 21 -37 28l-98 26v32q0 25 -17.5 43t-42.5 18h-101l-8 30q-6 24 -28 36.5t-46 6.5l-357 -96q-12 -3 -21.5 -10.5t-15.5 -18t-7.5 -22.5t1.5 -23l155 -581q9 -33 42 -42v-1l357 -96q4 -1 8 -1.5t8 -0.5q16 0 30 8q22 13 29 37l155 581q7 24 -6 46v0
zM703 727q8 0 15.5 -4.5t12 -11.5t4.5 -16v-433l-125 465h93zM303 86l-155 580q-1 2 -1 4v4v5q0 2 0.5 4t1.5 4t2 3q6 12 19 15l357 96q4 1 8 1q8 0 14 -3t10.5 -8.5t6.5 -12.5l156 -580q2 -8 0 -16.5t-8 -14.5t-15 -8l-357 -96q-12 -3 -24 3.5t-15 19.5v0zM735 148v-54
q0 -13 -9.5 -22.5t-22.5 -9.5h-254l258 69q16 4 28 17v0zM721 -10q-4 -13 -15.5 -19.5t-23.5 -3.5l-247 66h268q17 0 32 10zM876 570l-113 -422v485l91 -24l6 -2q3 -1 5 -3l5 -4q2 -3 3 -6q7 -11 3 -24zM876 570z" />
    <glyph glyph-name="uniE634" unicode="&#xe634;" 
d="M915 176h-105v105q0 17 -11.5 29t-29.5 12q-8 0 -15.5 -3t-13 -8.5t-8.5 -13t-3 -16.5v-111h-117q-6 0 -11 -1.5t-9.5 -4t-8.5 -6t-6.5 -8t-4 -10t-1.5 -10.5q0 -12 5.5 -21.5t15 -14.5t20.5 -5h111v-111q0 -17 11.5 -29t29.5 -12q8 0 15.5 3.5t13 8.5t8.5 12.5t3 16.5
v111h111q6 0 11.5 1.5t10 4t8 6t6 8t4 10t1.5 11.5q4 17 -9.5 31.5t-31.5 14.5v0zM506 70h-364q-7 0 -12.5 3t-8.5 8.5t-3 12.5v662q0 10 7 17t17 7h646q3 0 6.5 -1t6 -2.5t4.5 -3.5t3.5 -4.5t2.5 -5.5t1 -7v-358q0 -10 6.5 -16.5t16.5 -6.5q7 0 12.5 3t8.5 8.5t3 11.5v0
v382q0 20 -15 35.5t-36 15.5h-690q-20 0 -35.5 -15.5t-15.5 -35.5v-710q0 -20 15.5 -35t35.5 -15h388q11 0 17.5 6.5t6.5 16.5q0 13 -6.5 20t-17.5 7v0zM501 188q13 26 41 42t58 16h47v52q0 35 19.5 63.5t50.5 41.5v0l-58 175l-204 -262l-58 93l-216 -221h320zM397 561
q0 26 -19 45t-46 19q-17 0 -31.5 -9t-23.5 -23.5t-9 -31.5q0 -27 19 -45.5t45.5 -18.5t45.5 18.5t19 45.5v0zM397 561z" />
    <glyph glyph-name="uniE635" unicode="&#xe635;" 
d="M471 152q-40 0 -81.5 18t-72.5 43.5t-56 52.5t-38 45t-13 21q0 8 38 51q102 119 208 128q8 1 15 1q41 0 83 -18.5t73.5 -45.5t55.5 -53t38 -45t12 -18l-7 -10q-7 -9 -20.5 -25t-30.5 -35t-40.5 -38.5t-48.5 -35.5t-55 -26t-60 -10v0zM470 454q-45 0 -77.5 -35t-32.5 -84
q0 -50 32.5 -85t77.5 -35q31 0 56.5 16t40 43.5t14.5 60.5q0 49 -32.5 84t-78.5 35v0zM470 282q-22 0 -37.5 17t-15.5 40q0 15 7 28t19.5 20.5t26.5 7.5q22 0 37 -16.5t15 -39.5t-15 -40t-37 -17v0zM825 763q-36 0 -66.5 -17.5t-48.5 -48.5t-18 -67t18 -67t48.5 -48.5
t66.5 -17.5q56 0 95 39t39 94t-39 94t-95 39zM888 660q-5 0 -10 2l-34 -60q5 -5 8 -12t3 -15q0 -5 -1 -9t-2.5 -8t-4 -7t-6 -6t-7.5 -4.5t-8 -2.5t-8 -1q-11 0 -19.5 5t-13.5 13.5t-5 19.5q0 6 2 12.5t7 11.5l-22 19q-2 -1 -5 -1.5t-6 -0.5q-10 0 -17 7t-7 17.5t7 17.5t17 7
q7 0 13 -3t9 -9t3 -12q0 -4 -1 -8t-4 -7l21 -19q10 5 21 5q8 0 16 -3l34 58q-12 10 -12 25q0 6 2.5 12t6.5 10t10 6.5t13 2.5q13 0 22 -9t9 -22t-9 -22.5t-22 -9.5v0zM825 438v0v-327q0 -19 -13.5 -32.5t-32.5 -13.5h-614q-13 0 -23.5 6t-17 17t-6.5 23v442q0 19 14 32.5
t33 13.5h471q-3 17 -3 31q0 3 0.5 5.5t0.5 4.5v4v6l2 4v6h-521q-6 0 -12.5 -2t-12 -5.5t-10.5 -8t-8 -10t-5 -12t-2 -13.5v-554q0 -21 15 -35.5t35 -14.5h713q10 0 19.5 4t16 10.5t10.5 16t4 19.5v391q-26 -8 -53 -8z" />
    <glyph glyph-name="uniE636" unicode="&#xe636;" 
d="M96 311q-26 -62 -30 -114t17 -63q15 -7 36 8t43 48q17 -70 80 -122q-33 -12 -51.5 -30.5t-18.5 -39.5q0 -36 48.5 -61t117.5 -25q62 0 108.5 20.5t55.5 51.5h10h10q9 -31 55.5 -51.5t108.5 -20.5q69 0 117.5 25t48.5 61q0 21 -18.5 39.5t-51.5 30.5q63 52 80 122
q22 -33 43 -48t36 -8q10 5 14.5 22t3 41t-9.5 54t-21 60q-14 32 -30.5 58.5t-33 43.5t-30.5 22v3v4q0 1 0.5 2.5t0.5 3.5q0 37 -19 67v4q0 5 -0.5 9t-1.5 8t-2.5 8t-3.5 7q-5 132 -85.5 218.5t-210.5 86.5q-87 0 -154 -41t-103 -109.5t-39 -154.5q-3 -4 -4.5 -9.5t-2.5 -11
t-1 -11.5v-2v-2q-19 -30 -19 -67v-5q0 -2 0.5 -4t0.5 -4q-22 -8 -48 -42t-46 -82zM96 311z" />
    <glyph glyph-name="uniE637" unicode="&#xe637;" 
d="M670 528q13 0 31 -2q-14 63 -60 113.5t-114.5 79.5t-145.5 29q-51 0 -99 -13.5t-87 -38t-68.5 -57.5t-45.5 -74.5t-16 -85.5q0 -125 127 -214l-32 -95l111 56q80 -16 110 -16q14 0 30 1q-3 11 -5 21.5t-3.5 22t-1.5 22.5q0 104 78.5 177.5t190.5 73.5v0zM500 613
q18 0 29 -10.5t11 -28.5q0 -12 -5 -21t-14 -14t-21 -5t-22.5 5t-17.5 14.5t-7 20.5q0 17 14 28t33 11zM279 534q-9 0 -17.5 3t-15.5 8t-11 12.5t-4 16.5q0 17 14.5 28t33.5 11q18 0 28.5 -10.5t10.5 -28.5t-10.5 -29t-28.5 -11zM959 281q0 47 -22.5 89.5t-59 73t-85.5 49
t-102 18.5q-74 0 -136 -31t-97.5 -83.5t-35.5 -115.5q0 -95 78.5 -162t190.5 -67q15 0 32.5 2.5t29.5 5t33 8.5l87 -48l-24 79q111 83 111 182v0zM603 321q-12 0 -22 10t-10 21q0 6 3 12t7.5 10.5t10 7t11.5 2.5q17 0 28 -9.5t11 -22.5q0 -8 -4.5 -15t-14 -11.5t-20.5 -4.5z
M777 321q-5 0 -9.5 1.5t-8.5 4.5t-7 7t-5 9t-2 9q0 12 10 22t22 10q17 0 28 -9.5t11 -22.5q0 -8 -4.5 -15t-14 -11.5t-20.5 -4.5zM777 321z" />
    <glyph glyph-name="uniE638" unicode="&#xe638;" 
d="M727 393q-10 2 -15.5 5.5t-6 7t0 6.5t2.5 5l1 2q1 2 3.5 6t6 16t4 23t-4 25.5t-16.5 26.5q-28 22 -66.5 20.5t-72.5 -14.5l-34 -13q-9 -2 -15 -3t-10 -1t-6 2t-3 4.5t0 7.5t1.5 9l1.5 12l3 12q0 15 -2 28t-11 27.5t-23 22t-40.5 7t-62.5 -12.5q-35 -12 -72 -37t-63 -49
t-51 -52t-33 -38t-13 -16q-21 -28 -35 -56.5t-19.5 -49t-8 -37t-2.5 -25t1 -8.5q5 -49 29 -88t57 -63t78.5 -40.5t86.5 -24.5t87 -12q56 -4 118 6t118.5 31.5t102.5 58.5t68 83q13 27 16.5 51t-0.5 41.5t-13 33t-20.5 25.5t-24.5 18t-23.5 12t-18.5 5v0zM415 76
q-109 -5 -186.5 43t-77.5 121q0 36 21 69t56.5 57t84 39.5t102.5 17.5q73 4 133.5 -13.5t96 -53.5t35.5 -84q0 -74 -78 -132.5t-187 -63.5zM386 359q-30 -4 -53.5 -14t-36.5 -24t-22.5 -30t-12.5 -31.5t-4.5 -28t-0.5 -19.5v-8v-5q0 -3 2 -12t6 -16.5t12 -17t20 -15.5
q66 -32 124.5 -19.5t94.5 58.5q14 18 18.5 43t-2 51t-23 48t-48.5 33.5t-74 6.5zM349 165q-13 -1 -24.5 3t-18 13t-6.5 20t5.5 22t16.5 18.5t25 9.5q23 2 37.5 -9.5t14.5 -28.5q0 -12 -7 -22t-18 -17t-25 -9v0zM436 239q-7 -5 -14.5 -4.5t-11.5 7.5q-4 6 -2 14.5t8 13.5
q6 4 11.5 4.5t9.5 -1.5t7 -6q3 -6 1 -14t-9 -14v0zM799 453q8 0 15 6t8 14q1 2 1 3q3 33 -2 58t-16.5 39t-26.5 23t-30.5 12t-28 3.5t-21.5 -0.5l-8 -1q-10 0 -17 -7t-7 -18q0 -6 3.5 -11.5t9 -9t11.5 -3.5q23 5 39 3t25.5 -9t14.5 -16.5t6.5 -20.5t1 -20t-1.5 -15l-1 -6
q0 -10 7.5 -17t17.5 -7v0zM781 735q-52 12 -120 -1q-1 0 -2 -1h-2l-1 -1q-5 -2 -9.5 -5t-8 -7.5t-5.5 -10t-2 -11.5q0 -15 10 -25t25 -10q2 0 5.5 0.5t12 2.5t14.5 4q5 1 17.5 2t33.5 -4t42 -13t43.5 -26.5t37.5 -44.5q27 -60 10 -116q0 -1 -0.5 -2t-1.5 -5l-2 -8
q-1 -4 -1.5 -9t-0.5 -10q0 -14 10 -22.5t24 -8.5q15 0 23 5.5t11 23.5q14 46 14.5 87t-10.5 72t-28.5 56t-42 42.5t-48 28.5t-48.5 17v0zM781 735z" />
    <glyph glyph-name="uniE639" unicode="&#xe639;" 
d="M958 485q-1 3 -2.5 5t-4 3.5t-5.5 1.5l-303 26l-118 280q-1 3 -3 4.5t-4.5 3t-5.5 1.5q-9 0 -13 -9l-118 -280l-303 -26q-9 -2 -12 -10q-1 -1 -1 -3.5t0.5 -4t2 -3.5t2.5 -3l230 -199l-69 -296q-2 -9 5 -15q4 -2 8 -2.5t8 2.5l260 156l260 -157l7 -2q2 0 3.5 0.5t2.5 1.5
l3 1q7 6 5 15l-54 234q10 5 22 13t20 13l7 5q-5 -2 -14 -5t-45.5 -11t-86 -11t-133.5 -5t-189 7l265 192l-26 7q-79 13 -317 21l15 4q135 27 297 23q99 -2 176 -18l-267 -191q12 -2 34.5 -4.5t92.5 -6.5t142 -3l-8 32l230 199q3 2 4 6t0 8v0zM958 485z" />
    <glyph glyph-name="uniE63A" unicode="&#xe63a;" 
d="M512 831q-52 0 -102.5 -12t-94 -34t-82.5 -52.5t-69.5 -69.5t-52.5 -82.5t-34 -94t-12 -102.5q0 -91 35.5 -173.5t95.5 -142.5t142.5 -95.5t173.5 -35.5t173.5 35.5t142.5 95.5t95.5 142.5t35.5 173.5t-35.5 173.5t-95.5 142.5t-142.5 95.5t-173.5 35.5zM262 385
q0 36 11 71.5t30 64t44 52.5t53.5 40t57.5 22v-100q0 -186 -165 -265q-7 14 -12 27t-9.5 27.5t-7 30t-2.5 30.5v0zM500 130q-95 0 -165 65q121 74 177 202q48 -125 158 -197q-72 -70 -170 -70v0zM731 270q-165 79 -165 265v15v85q77 -18 136.5 -89t59.5 -161
q0 -8 -0.5 -15.5t-1.5 -15t-3 -15t-4 -14.5t-4.5 -14t-5.5 -14t-6 -13.5t-6 -13.5v0zM731 270z" />
    <glyph glyph-name="uniE63B" unicode="&#xe63b;" 
d="M895 798h-766q-17 0 -32 -8.5t-23.5 -23.5t-8.5 -32v-551q0 -27 19 -45.5t45 -18.5h766q26 0 45 18.5t19 45.5v551q0 13 -5 25t-13.5 20.5t-20.5 13.5t-25 5zM910 181h-799v575h799v-575zM413 93l-35 -108q0 -4 2 -7.5t6 -5.5t9 -2h234q2 0 4.5 0.5t4.5 1.5t3.5 2.5
t2.5 3t1.5 3.5t0.5 4l-35 108h-198zM179 235q11 -8 26 -8h486q2 0 7 2t12 6t15 9.5t17 11.5q6 5 12.5 9.5t13 9.5t13.5 10q21 16 36 30q9 7 15.5 13t12 11.5t8.5 9t3 5.5v326q0 12 -11 20.5t-26 8.5h-614q-15 -1 -26 -9t-11 -20v-425q0 -12 11 -20zM578 623q0 5 2 9.5t6 7.5
q8 8 18 8h134q3 0 5 -0.5t4.5 -1.5t4.5 -2.5t4 -3.5q7 -8 8 -17v-12q0 -5 -2 -9.5t-6 -8.5q-8 -7 -18 -7h-134q-5 0 -9.5 2t-8.5 5q-2 3 -4 5.5t-3 6t-1 6.5v12zM528 502q0 3 0.5 6.5t2.5 6t4 5.5q8 8 18 8h183q5 0 9.5 -2t8.5 -6q8 -8 8 -18v-9q0 -5 -2 -9.5t-6 -8.5
q-7 -8 -18 -8h-183q-5 0 -9.5 2t-8.5 6q-7 8 -7 18v9zM523 384v4q0 2 1 3.5t1.5 3.5t2 3.5t2.5 3.5q8 8 19 8h191q5 0 9.5 -2t8.5 -6q8 -8 8 -18v-13q0 -5 -2 -9.5t-6 -8.5t-8.5 -6t-9.5 -2h-191q-4 0 -7 1t-6 2.5t-6 4.5q-7 8 -7 18v13zM258 591q0 21 15 36q5 5 11 8.5
t12 5t13 1.5h138q22 0 36.5 -15t14.5 -36v-253q0 -21 -14 -36q-2 -1 -4 -3t-4 -3t-4.5 -2.5t-4.5 -2.5t-5 -1l-4 -2h-6h-5h-138q-10 0 -19 3.5t-17 10.5q-15 15 -15 36v253z" />
    <glyph glyph-name="uniE63C" unicode="&#xe63c;" 
d="M512 784q53 0 103.5 -13.5t96 -40t83.5 -63.5q56 -57 86.5 -130t30.5 -153t-30.5 -153t-87 -129.5t-129.5 -87t-153 -30.5t-153 30.5t-130 86.5q-37 38 -63.5 83.5t-40 96t-13.5 103.5q0 80 30.5 153t86.5 130q29 28 61.5 50t68.5 36.5t74.5 22.5t78.5 8zM512 831
q-36 0 -70.5 -5.5t-68 -16.5t-64.5 -26.5t-59.5 -36.5t-53.5 -46q-63 -63 -97 -144.5t-34 -171t34 -171.5t97 -145t145 -97t171 -34t171 34t145 97q31 32 55.5 68.5t41.5 76.5t25.5 83t8.5 88q0 90 -34 171.5t-97 144.5t-145 97t-171 34v0zM633 599q-43 39 -114 39
q-79 0 -125.5 -46.5t-46.5 -127.5q1 -9 5 -16t11.5 -11t15.5 -4q13 0 22 9t10 22v1v1q1 119 105 119q41 0 67 -23q13 -12 19.5 -27t6.5 -33q0 -21 -12 -43t-36 -44l-25 -21l-13 -13q-6 -6 -11 -11.5t-9 -11t-7 -10.5t-5 -9q-10 -24 -10 -76v-3q0 -12 8.5 -20.5t20.5 -8.5
t20.5 8t9.5 19l1 11q0 54 51 95q85 70 85 134q0 63 -44 101v0zM472 157q0 -17 12 -28q2 -3 5.5 -5.5t7 -4t7.5 -2t8 -0.5q17 0 28.5 11.5t11.5 28.5q0 8 -3 15.5t-9 12.5q-2 3 -5.5 5.5t-7 4t-7.5 2t-8 0.5q-17 0 -28 -12q-6 -5 -9 -12.5t-3 -15.5zM472 157z" />
  </font>
</defs>
</svg>
