<?xml version="1.0" standalone="no"?>
<!DOCTYPE svg PUBLIC "-//W3C//DTD SVG 1.1//EN" "http://www.w3.org/Graphics/SVG/1.1/DTD/svg11.dtd" >
<svg xmlns="http://www.w3.org/2000/svg">
<metadata>
Created by FontForge 20120731 at Thu Mar  3 16:41:18 2016
 By Ads
</metadata>
<defs>
<font id="ybiconfont" horiz-adv-x="1024" >
  <font-face 
    font-family="ybiconfont"
    font-weight="500"
    font-stretch="normal"
    units-per-em="1024"
    panose-1="2 0 6 3 0 0 0 0 0 0"
    ascent="896"
    descent="-128"
    x-height="792"
    bbox="34 -91 989 859"
    underline-thickness="50"
    underline-position="-100"
    unicode-range="U+0044-E65E"
  />
<missing-glyph horiz-adv-x="374" 
d="M34 0v682h272v-682h-272zM68 34h204v614h-204v-614z" />
    <glyph glyph-name=".notdef" horiz-adv-x="374" 
d="M34 0v682h272v-682h-272zM68 34h204v614h-204v-614z" />
    <glyph glyph-name=".null" horiz-adv-x="0" 
 />
    <glyph glyph-name="nonmarkingreturn" horiz-adv-x="341" 
 />
    <glyph glyph-name="D" unicode="D" 
d="M308 683l-63 64l-25 -26l63 -63zM494 831h36v-90h-36v90zM390 480h-57v-165h57q38 0 62.5 23.5t24.5 61.5q0 80 -87 80zM426.5 359q-14.5 -15 -39.5 -15h-19v107h19q24 0 39 -13.5t15 -38.5t-14.5 -40zM804 721l-25 26l-63 -64l25 -25zM635 417q-2 -5 -3 -13h-1
q-3 11 -4 13l-27 63h-41l53 -106v-59h35v59l54 106h-38zM491 453h14v-110h-14v-28h63v28h-14v110h14v27h-63v-27zM512 668q-106 0 -181 -75.5t-75 -182.5q0 -74 37.5 -135.5t99.5 -94.5v-123q0 -49 35 -84.5t84 -35.5t84 35.5t35 84.5v123q62 33 100 94.5t38 135.5
q0 107 -75.5 182.5t-181.5 75.5zM595 57q0 -34 -24.5 -59t-58.5 -25t-58.5 25t-24.5 59v27h166v-27zM595 108h-166v57l6 -2q1 0 1 -1q3 -1 5 -1h1q3 -1 5 -2h1q2 -1 6 -1l1 -1q2 0 5 -1h2q1 0 4 -1l2 -1h4h2q2 0 4 -1h2q2 0 5 -1h2h5h2q2 -1 4 -1h2h4h2h6h6h2h4h2q2 0 4 1h3
h4h2q3 1 5 1h2q3 1 4 1h3h1q1 1 2 1h3l3 1h1h1q2 1 5 1q1 0 1 1q3 0 6 1h1q4 1 4 2h2q1 0 4 1q1 0 2 1l6 2v-57zM547 190q-2 0 -4 -1h-1h-3l-2 -1h-3h-5h-1q-2 -1 -4 -1h-2h-3h-2h-5h-5h-2h-3h-2q-2 0 -4 1h-1h-5h-2q-2 1 -3 1h-3h-2l-1 1h-2q-79 12 -132.5 74.5
t-53.5 145.5q0 92 65 157t156 65t156 -65t65 -157q0 -83 -53.5 -145t-132.5 -75z" />
    <glyph glyph-name="x" unicode="x" horiz-adv-x="1001" 
d="M281 543q-27 -1 -53 -1h-83q-18 0 -36.5 -6t-32.5 -18.5t-23 -32t-9 -45.5v-76h912v41q0 16 -0.5 30t-0.5 18q0 13 -5 29t-17 29.5t-31.5 22.5t-49.5 9h-133v-97h-438v97zM955 310v-52q0 -23 0.5 -52t0.5 -58t-10.5 -47.5t-26 -30t-33 -16t-31.5 -4.5q-14 -1 -29.5 -0.5
t-29.5 0.5h-32l-45 128h-439l-44 -128h-29h-34q-20 0 -45 1q-25 0 -41 9.5t-25.5 23t-13.5 29.5t-4 30v167h911zM163 247q-12 0 -21 -8.5t-9 -21.5t9 -21.5t21 -8.5q13 0 22 8.5t9 21.5t-9 21.5t-22 8.5zM316 123q-8 -26 -14 -48q-5 -19 -10.5 -37t-7.5 -25t-3 -15t1 -14.5
t9.5 -10.5t21.5 -4h37h67h81h80h64h36q23 0 34 12t2 38q-5 13 -9.5 30.5t-9.5 34.5q-5 19 -11 39h-368zM336 498v228q0 11 2.5 23t10 21.5t20.5 15.5t34 6h188q31 0 51.5 -14.5t20.5 -52.5v-227h-327z" />
    <glyph glyph-name="uniE600" unicode="&#xe600;" 
d="M260 132h-28q-72 0 -120 48t-48 119.5t48 119.5t120 48h28v-335zM204 408q-38 -8 -61 -38t-23 -70.5t23 -70.5t61 -38v217zM791 132h-28v335h28q71 0 119 -48t48 -119.5t-48 -119.5t-119 -48zM819 408v-217q37 8 60.5 38t23.5 71t-23.5 70.5t-60.5 37.5zM819 -8v56
q11 0 19.5 7t8.5 21h56q0 -36 -24.5 -60t-59.5 -24zM707 48h112v-56h-112v56zM637.5 -64q-34.5 0 -59 24.5t-24.5 59t24.5 59.5t59 25t59.5 -25t25 -59.5t-25 -59t-59.5 -24.5zM637.5 48q-11.5 0 -19.5 -8.5t-8 -20t8 -19.5t19.5 -8t20 8t8.5 19.5t-8.5 20t-20 8.5zM819 523
h-56q0 104 -74 178t-178 74t-177.5 -74t-73.5 -178h-56q0 127 90 217.5t217 90.5t217.5 -90.5t90.5 -217.5z" />
    <glyph glyph-name="uniE601" unicode="&#xe601;" 
d="M411 565l-94 -97q39 -89 114 -167t161 -107l82 82q195 -34 239 -55q54 -27 44 -110q-2 -22 -17 -50.5t-39.5 -57t-63.5 -48t-84 -19.5q-97 -1 -223.5 65t-226.5 172q-73 77 -126.5 153t-86 163t-23.5 160q6 43 24 77t40 53t48 31.5t43 16.5t31 5q51 4 80 -33
q12 -14 31.5 -72.5t33.5 -110.5l13 -51v0zM304 767q-23 30 -71 18q-12 -3 -28 -11t-37.5 -23.5t-38 -43.5t-20.5 -62q-11 -85 47.5 -208.5t165.5 -226.5q225 -219 406 -234q42 -3 78.5 11.5t58 38t34.5 44t17 35.5q6 24 1.5 45.5t-17.5 31.5q-10 7 -63.5 20t-100 22t-48.5 9
l-86 -86q-107 35 -198 126t-133 208l94 95q0 1 -12 43.5t-27 90.5t-22 57v0zM304 767z" />
    <glyph glyph-name="uniE602" unicode="&#xe602;" 
d="M78 -53q12 -9 23 -9q18 -2 566 -2h4q15 0 23 15q7 12 7 27v418q3 -19 9.5 -56.5t8.5 -56.5q5 -25 12.5 -72.5t9.5 -56.5q15 -86 19 -121q2 -10 5.5 -30.5t5.5 -32.5q3 -28 30 -34h127q13 0 22 9q9 12 9 22v12q-1 7 -2 22.5t-2 22.5q-2 15 -5.5 43t-5.5 39q-7 46 -9 72
q-1 13 -4.5 40.5t-5.5 41.5q-7 47 -9 71q-2 12 -5.5 40t-5.5 42q-7 46 -9 72q-2 14 -5.5 42t-5.5 40q-7 47 -8 72q-2 14 -6 41.5t-5 40.5q-8 53 -11 75q-3 19 -16 30q-2 2 -18 6h-724q-2 -1 -6.5 -2t-7.5 -2q-18 -12 -18 -29v-829q3 -17 13 -23v0zM776 792h29q5 0 5 -5
q1 -9 4 -28t4 -27q7 -61 16 -124q2 -18 7.5 -59.5t8.5 -63.5q9 -69 16 -125q2 -18 5 -39t6 -45.5t5 -38.5q8 -60 16 -124q3 -22 8.5 -63t7.5 -60q0 -3 1 -7.5t1 -6.5q0 -4 -4 -4h-30q-4 0 -4 6q-1 8 -3.5 27t-3.5 28q-3 20 -8 61t-8 62q-8 64 -16 123q-12 90 -16 126
q-15 116 -16 123q-3 21 -8.5 62t-7.5 61q-1 7 -16 123q0 3 -1 7.5t-1 7t0.5 3t2.5 0.5zM701 792h29q5 0 5 -5q2 -10 4.5 -31t4.5 -32q3 -21 8.5 -62t7.5 -61q1 -7 16 -123q13 -97 17 -123q10 -82 17 -126q6 -45 16 -123q3 -21 9.5 -64t8.5 -64q0 -3 -0.5 -3.5t-2.5 -0.5h-29
q-5 0 -5 5q-3 19 -8.5 57.5t-7.5 57.5q-3 24 -9.5 70.5t-6.5 52.5q-13 97 -16 123q-9 63 -17 124q-11 90 -16 125q-8 63 -16 123q-1 12 -5 38t-5 39q-2 3 1 3zM358 -26h-250q-5 0 -5 5v65q0 5 5 5h252q5 0 5 -5v-65q-1 -5 -7 -5zM407 791h248q4 0 4.5 -1t0.5 -4v-694
q0 -7 -7 -7h-248q-6 0 -6 5v694q0 7 8 7zM405 49h250q5 0 5 -5v-65q0 -5 -5 -5h-252q-5 0 -5 5v65q2 5 7 5zM108 791h249q5 0 5 -5v-694q0 -4 -1 -5t-4 -1h-249q-5 0 -5 6v291v401q0 7 5 7zM300 688h-137q-2 0 -2 -4v-28q0 -6 4 -6h135q5 0 5 6v28q-2 4 -5 4zM300 613h-137
q-2 0 -2 -4v-29q0 -5 4 -5h135q5 0 5 5v29q-3 4 -5 4zM300 538h-137q-2 0 -2 -4v-29q0 -5 4 -5h135q5 0 5 5v29q-3 4 -5 4zM601 688h-137q-3 0 -3 -4v-28q0 -6 4 -6h136q4 0 4 6v28q-2 4 -4 4zM601 613h-137q-3 0 -3 -4v-29q0 -5 4 -5h136q4 0 4 5v29q-3 4 -4 4zM601 538
h-137q-3 0 -3 -4v-29q0 -5 4 -5h136q4 0 4 5v29q-3 4 -4 4zM601 538z" />
    <glyph glyph-name="uniE603" unicode="&#xe603;" 
d="M273 336q20 0 34 14t14 34t-14 34t-34 14t-34 -14t-14 -34t14 -34t34 -14zM273 336zM432 336q20 0 34 14t14 34t-14 34t-34 14t-34 -14t-14 -34t14 -34t34 -14zM432 336zM592 336q20 0 34 14t14 34t-14 34t-34 14t-34 -14t-14 -34t14 -34t34 -14zM592 336zM767 639h-670
q-3 0 -8.5 -1t-14.5 -8.5t-9 -22.5v-446q0 -15 8 -22.5t16 -8.5l8 -1h96v-160l159 160h415q4 0 9 1t14 8.5t9 22.5v446q0 15 -8 22.5t-16 8.5zM735 193h-409l-19 -19l-50 -51v70h-128v382h606v-382zM735 193zM927 799h-670q-4 0 -9 -1t-14 -9t-9 -22v-96h64v64h606v-383h-64
v-64h96q3 0 8.5 1t14.5 9t9 22v447q0 14 -8 22t-16 9zM927 799z" />
    <glyph glyph-name="uniE604" unicode="&#xe604;" 
d="M897 831h-769q-26 0 -44.5 -16.5t-18.5 -41.5v-774q0 -26 16 -44t40 -18h782q25 0 40.5 18t15.5 44v774q0 25 -18 41.5t-44 16.5zM931 -1q0 -34 -28 -34h-782q-15 0 -21.5 10.5t-6.5 23.5v774q0 14 10 22t25 8h769q15 0 24.5 -8t9.5 -22v-774zM232 249l38 -12
q-27 -73 -65 -129q-17 12 -35 21q44 64 62 120zM182 690h655v-35h-655v35zM764 331v-36q-283 -8 -579 -20l-3 38q281 6 582 18zM238 600h38v-217h-38v217zM258 600h503v-36h-503v36zM258 509h503v-32h-503v32zM258 418h506v-35h-506v35zM349 243h44v-94q0 -32 43 -32h152
q50 0 56 29q6 18 9 44q18 -5 41 -11q-6 -33 -12 -50q-18 -44 -88 -44h-166q-79 0 -79 61v97zM501 269q40 -35 73 -70l-32 -26q-33 38 -73 73zM489 749h38v-445h-38v445zM708 380q74 -56 141 -114l-30 -32q-64 65 -134 117zM755 252q43 -44 97 -100l-36 -26q-50 56 -90 102z
M743 600h38v-217h-38v217zM743 600z" />
    <glyph glyph-name="uniE605" unicode="&#xe605;" 
d="M363 285h-248q-21 0 -35.5 -14.5t-14.5 -35.5v-248q0 -21 14.5 -35.5t35.5 -14.5h248q21 0 35.5 14.5t14.5 35.5v248q0 21 -14.5 35.5t-35.5 14.5v0zM363 12q0 -11 -7 -18t-18 -7h-198q-11 0 -18 7t-7 18v198q0 11 7 18t18 7h198q11 0 18 -7t7 -18v-198zM524 285h-24
q-6 0 -9.5 -4t-3.5 -9v-223q0 -5 3.5 -8.5t9.5 -3.5h24q6 0 9.5 3.5t3.5 8.5v223q0 5 -3.5 9t-9.5 4v0zM500 483h24q6 0 9.5 4t3.5 9v322q0 5 -3.5 9t-9.5 4h-24q-6 0 -9.5 -4t-3.5 -9v-322q0 -5 3.5 -9t9.5 -4v0zM115 483h248q21 0 35.5 14.5t14.5 35.5v248
q0 21 -14.5 35.5t-35.5 14.5h-248q-21 0 -35.5 -14.5t-14.5 -35.5v-248q0 -21 14.5 -35.5t35.5 -14.5v0zM115 756q0 11 7 18t18 7h198q11 0 18 -7t7 -18v-198q0 -11 -7 -18t-18 -7h-198q-11 0 -18 7t-7 18v198zM673 210h-25q-5 0 -8.5 -3.5t-3.5 -8.5v-248q0 -5 3.5 -9
t8.5 -4h25q5 0 9 4t4 9v248q0 5 -4 8.5t-9 3.5v0zM946 409h-868q-5 0 -9 -3.5t-4 -9.5v-24q0 -6 4 -9.5t9 -3.5h868q5 0 9 3.5t4 9.5v24q0 6 -4 9.5t-9 3.5v0zM909 831h-248q-21 0 -35.5 -14.5t-14.5 -35.5v-248q0 -21 14.5 -35.5t35.5 -14.5h248q21 0 35.5 14.5t14.5 35.5
v248q0 21 -14.5 35.5t-35.5 14.5v0zM909 558q0 -11 -7 -18t-18 -7h-198q-11 0 -18 7t-7 18v198q0 11 7 18t18 7h198q11 0 18 -7t7 -18v-198zM797 210h-24q-6 0 -9.5 -3.5t-3.5 -8.5v-248q0 -5 3.5 -9t9.5 -4h24q6 0 9.5 4t3.5 9v248q0 5 -3.5 8.5t-9.5 3.5v0zM921 285h-24
q-5 0 -9 -4t-4 -9v-322q0 -5 4 -9t9 -4h24q6 0 9.5 4t3.5 9v322q0 5 -3.5 9t-9.5 4v0zM921 285z" />
    <glyph glyph-name="uniE606" unicode="&#xe606;" 
d="M529 734q-7 7 -17 7t-17 -7l-175 -175q-7 -7 -7 -17t7 -17t17 -7t17 7l158 158l158 -158q7 -7 17 -7t17 7t7 17t-7 17zM65 289h103v-262h48v262h102v48h-253v-48zM583 337h-127q-25 0 -42.5 -17.5t-17.5 -42.5v-190q0 -25 17.5 -42.5t42.5 -17.5h127q24 0 42 17.5
t18 42.5v190q0 25 -18 42.5t-42 17.5zM595 87q0 -5 -3.5 -8.5t-8.5 -3.5h-127q-5 0 -8.5 3.5t-3.5 8.5v190q0 5 3.5 8.5t8.5 3.5h127q5 0 8.5 -3.5t3.5 -8.5v-190zM941 320q-17 17 -42 17h-165v-310h48v136h117q25 0 42.5 17.5t17.5 42.5v54q0 25 -18 43zM911 223
q0 -5 -3.5 -8.5t-8.5 -3.5h-117v78h117q5 0 8.5 -3.5t3.5 -8.5v-54zM911 223z" />
    <glyph glyph-name="uniE607" unicode="&#xe607;" 
d="M672 560h-229q-18 0 -31.5 -13.5t-13.5 -32.5v-137q0 -19 13.5 -32.5t31.5 -13.5h91l91 -77l18 77h29q19 0 32.5 13.5t13.5 32.5v137q0 19 -13.5 32.5t-32.5 13.5zM419 299q-24 0 -38 12t-14 34v154h-15q-19 0 -32.5 -13.5t-13.5 -32.5v-122q0 -19 13.5 -32t32.5 -13h29
l18 -78l91 78h49l-25 13h-20h-38h-37zM866 780q-7 0 -11.5 -5t-4.5 -12v-775q0 -7 -5 -12t-12 -5h-625q-14 0 -24 9.5t-10 23.5t10 24t24 10h564q21 0 35.5 14.5t14.5 35.5v692q0 21 -14.5 36t-35.5 15h-581q-21 0 -35.5 -15t-14.5 -36v-776v-3q2 -27 21 -45.5t46 -18.5h627
q20 1 34 15.5t14 35.5v775q0 7 -5 12t-12 5zM174 147v633q0 7 5 12t12 5h581q7 0 12 -5t5 -12v-692q0 -7 -5 -12t-12 -5h-564q-18 0 -34 -9v85zM808 21h-598q-7 0 -12 -5t-5 -12t5 -11.5t12 -4.5h598q7 0 12 4.5t5 11.5t-5 12t-12 5zM808 21z" />
    <glyph glyph-name="uniE608" unicode="&#xe608;" 
d="M863 764q0 13 -9.5 22.5t-22.5 9.5h-734q-13 0 -22.5 -9.5t-9.5 -22.5v-574q0 -13 9.5 -22.5t22.5 -9.5h27q14 0 23 9.5t9 22.5v481q0 13 9.5 22.5t22.5 9.5h643q13 0 22.5 9.5t9.5 22.5v29zM921 642h-669q-16 0 -26.5 -11t-10.5 -27v-595q0 -15 10.5 -26t26.5 -11h670
q15 0 26 11t11 26v595q0 16 -11 27t-27 11v0zM847 84h-521v186l112 111l186 -186l112 112l111 -112v-111v0zM773 381q-31 0 -53 22t-22 53t22 52.5t53 21.5t52.5 -21.5t21.5 -52.5t-21.5 -53t-52.5 -22v0zM773 381z" />
    <glyph glyph-name="uniE609" unicode="&#xe609;" 
d="M885 473h-238q19 69 25.5 126.5t2.5 93.5t-14.5 63.5t-23 41t-25.5 21.5t-20 10t-9 2q-22 0 -35.5 -8.5t-16 -18.5t-3.5 -21.5t-2 -12.5q0 -47 -18 -94.5t-44 -82.5t-52 -63t-44 -43l-19 -14v-472q0 -22 17.5 -37t37 -21t34.5 -6h357q10 0 19.5 9t16.5 22t13 26t9 22
l3 10q40 133 62 230.5t24 128.5l3 31q0 17 -6.5 29.5t-15 17.5t-17.5 7.5t-15 2.5h-6v0zM252 473h-143q-13 0 -20.5 -7.5t-8.5 -14.5l-1 -7l30 -476q0 -14 7.5 -21.5t15.5 -8.5l7 -1h123q12 0 18.5 5t6.5 10l1 5v480q0 16 -9 25t-18 10l-9 1v0zM252 473z" />
    <glyph glyph-name="uniE60A" unicode="&#xe60a;" 
d="M859 63q-8 -8 -20 -8h-87q-12 0 -20.5 8t-8.5 20v116q0 12 8.5 20.5t20.5 8.5t20.5 -8.5t8.5 -20.5v-87h58q12 0 20 -8.5t8 -20.5t-8 -20v0zM908 158q-12 29 -34 50.5t-51 34t-61 12.5q-33 0 -62 -12.5t-51 -34t-34.5 -50.5t-12.5 -62t12.5 -62t34.5 -50.5t51 -34
t62 -12.5q32 0 61 12.5t51 34t34.5 50.5t12.5 62t-13 62v0zM227 39q-25 0 -42 17.5t-17 41.5v609q0 24 17 41.5t42 17.5h497q24 0 41 -17.5t17 -41.5v-405q34 -4 65 -19v431q0 48 -34.5 82.5t-82.5 34.5h-510q-48 0 -82.5 -34.5t-34.5 -82.5v-623q0 -48 34.5 -82.5
t82.5 -34.5h378q-23 30 -34 65h-337zM611 686h63l-148 -254h117v-52h-143v-82h143v-47h-142v-122h-60v122h-147v47h147v82h-147v52h127l-150 254h66q28 -53 60.5 -108t51 -86.5t25.5 -45.5zM611 686z" />
    <glyph glyph-name="uniE60B" unicode="&#xe60b;" 
d="M498 102l-305 314l79 64l176 -140q45 55 100.5 112t153.5 139.5t200 146.5l18 -44q-141 -132 -259 -304.5t-163 -287.5v0zM883 445q5 -30 5 -61q0 -102 -50.5 -188.5t-137 -137t-188.5 -50.5t-188.5 50.5t-137 137t-50.5 188.5t50.5 188.5t137 137t188.5 50.5
q74 0 142 -28v76q-69 23 -142 23q-91 0 -174 -35q-80 -34 -142 -96t-96 -142q-35 -83 -35 -174t35 -174q34 -80 96 -142t142 -96q83 -35 174 -35t174 35q80 34 142 96t96 142q35 83 35 174q0 31 -4 61h-72zM883 445z" />
    <glyph glyph-name="uniE60C" unicode="&#xe60c;" 
d="M485 309h63q-3 -25 -12 -45l191 -49l-29 -54q-108 36 -191 60q-46 -48 -186 -60q-11 26 -28 57q104 6 146.5 25.5t45.5 65.5v0zM486 607h62v-53h46q17 26 31 52l52 -22l-21 -30h75v-100h-55v53h-318v-53h-55v100h72q-9 15 -18 29l49 22q17 -25 32 -51h48v53zM340 243v123
h353v-123h-60v74h-234v-74h-59zM377 387v99h280v-99h-280zM433 424h169v25h-169v-25zM512 831q-91 0 -173.5 -35.5t-142.5 -95.5t-95.5 -142.5t-35.5 -173.5t35.5 -173.5t95.5 -142.5t142.5 -95.5t173.5 -35.5t173.5 35.5t142.5 95.5t95.5 142.5t35.5 173.5t-35.5 173.5
t-95.5 142.5t-142.5 95.5t-173.5 35.5v0zM512 -14q-108 0 -200 53t-145 145t-53 200t53 200t145 145t200 53t199.5 -53t145 -145t53.5 -200t-53.5 -200t-145 -145t-199.5 -53v0zM512 -14z" />
    <glyph glyph-name="uniE60D" unicode="&#xe60d;" 
d="M395 465h233v-43h-233v43zM512 831q-91 0 -173.5 -35.5t-142.5 -95.5t-95.5 -142.5t-35.5 -173.5t35.5 -173.5t95.5 -142.5t142.5 -95.5t173.5 -35.5t173.5 35.5t142.5 95.5t95.5 142.5t35.5 173.5t-35.5 173.5t-95.5 142.5t-142.5 95.5t-173.5 35.5zM259 579h107
q-13 13 -45 40q-11 9 -15 14l53 13q54 -42 79 -65l-5 -2h47v74h63v-74h44l-4 2q38 27 80 65l54 -13q-27 -27 -63 -54h110v-101h-60v58h-387v-58h-58v101zM362 308v-93h-61v136h423v-132h-58v89h-304zM335 382v121h351v-121h-351zM739 121q-149 58 -228 78q-49 -60 -243 -81
q-9 27 -23 54q124 6 184 34.5t55 79.5h61q-2 -24 -11 -45q40 -11 118 -38q27 -7 64.5 -18.5t49.5 -14.5zM739 121z" />
    <glyph glyph-name="uniE60E" unicode="&#xe60e;" 
d="M628 426h89v-72h-89v72zM628 535h89v-70h-89v70zM497 426h87v-72h-87v72zM798 831h-572q-61 0 -104.5 -45t-43.5 -109v-577q0 -64 44.5 -113.5t106.5 -49.5h566q62 0 106.5 49.5t44.5 113.5v577q0 64 -43.5 109t-104.5 45zM542 683q17 -33 34 -84q-22 -8 -49 -20
q-10 44 -30 81zM401 310l-10 -116q-5 -49 -43 -59t-78 -15q-5 32 -17 62q56 -3 73.5 1t20.5 33l9 124h-118q10 79 10 170h111v91q-81 0 -128 -2v44q39 -2 76 -2h99q-3 -40 -3 -79.5t3 -91.5h-114l-5 -88h121q-5 -35 -7 -72zM798 209q-50 2 -84 2h-86q0 -58 2 -108h-49
q3 57 3 108h-97q-39 -2 -69 -5v47q31 -2 69 -5h97v67h-136q2 63 2 133.5t-2 123.5h180q22 51 40 106q27 -13 56 -22q-24 -28 -47 -84h87q-3 -47 -3 -126.5t3 -130.5h-136v-67h84q32 0 86 3v-42zM497 535h87v-70h-87v70z" />
    <glyph glyph-name="uniE60F" unicode="&#xe60f;" 
d="M655 619q0 7 -4.5 11t-10.5 4h-344q-7 0 -11 -4t-4 -11v-269q0 -7 4 -11t11 -4h12q7 0 11 4t4 11v226q0 6 4.5 10.5t10.5 4.5h302q6 0 10.5 4t4.5 11v13zM682 562h-314q-7 0 -12 -5t-5 -13v-279q0 -7 5 -12t12 -5h314q8 0 13 5t5 12v279q0 8 -5 13t-13 5v0zM648 300h-245
v87l52 53l88 -88l52 53l52 -53zM613 440q-15 0 -25 10t-10 24.5t10 24.5t24.5 10t25 -10t10.5 -24.5t-10.5 -24.5t-24.5 -10v0zM866 780q-7 0 -11.5 -5t-4.5 -12v-775q0 -7 -5 -12t-12 -5h-625q-14 0 -24 10t-10 23.5t10 23.5t24 10h564q21 0 35.5 14.5t14.5 35.5v693
q0 20 -14.5 35t-35.5 15h-581q-21 0 -35.5 -15t-14.5 -35v-777v-3q2 -27 21 -45.5t46 -18.5l627 1q20 0 34 14.5t14 35.5v775q0 7 -5 12t-12 5zM174 147v634q0 6 5 11t12 5h581q7 0 12 -5t5 -11v-693q0 -7 -5 -12t-12 -5h-564q-17 0 -34 -9v26v59zM808 21h-598q-7 0 -12 -5
t-5 -12t5 -11.5t12 -4.5h598q7 0 12 4.5t5 11.5t-5 12t-12 5zM808 21z" />
    <glyph glyph-name="uniE610" unicode="&#xe610;" 
d="M959 118v628q-1 2 -1.5 5t-4 11t-8.5 14.5t-14 12t-21 5.5h-313q-47 -4 -73 -48h-24q-3 5 -8 13t-24 21t-41 14h-313q-19 -2 -31 -14t-15 -23l-3 -11v-628v-8q0 -4 2.5 -16.5t7 -22t14.5 -17.5t25 -8h313l73 -72h24l73 72h313q15 0 25 8t14.5 17t7 22.5t2.5 16.5v8z
M476 169q1 -32 -8.5 -41.5t-37.5 -9.5h-292v604h289q22 0 34 -12t13 -24l2 -12v-505zM886 118h-292q-28 2 -37.5 10.5t-8.5 40.5v505q0 2 0.5 5t3 11.5t7 15t14.5 11.5t24 5h289v-604zM886 118z" />
    <glyph glyph-name="uniE611" unicode="&#xe611;" 
d="M630 504q13 -13 32.5 -13t33.5 13l169 166v-134q0 -15 9.5 -24.5t24.5 -9.5h25q15 0 25 8t10 21v245h-3l3 18q0 13 -8 24q-10 10 -24 10h-18l-245 3q-14 0 -24 -11t-10 -24v-25q1 -16 12.5 -25t26.5 -9h129l-166 -166q-16 -13 -16.5 -32.5t14.5 -34.5v0zM394 266
q-13 13 -32.5 13t-33.5 -13l-169 -165v131q0 15 -9.5 24.5t-24.5 9.5h-25q-15 0 -25 -8t-10 -21v-243h3l-3 -17q0 -14 8 -25q10 -10 24 -10h18l245 -2q14 0 24 10.5t10 23.5v25q-1 16 -12.5 25.5t-26.5 9.5h-129l168 166q13 13 13 32.5t-13 33.5v0zM956 -8v242q0 14 -10 22
t-24 8h-25q-15 0 -25 -10.5t-10 -24.5v-131l-168 166q-13 13 -32.5 13t-34.5 -13q-13 -13 -13 -32.5t13 -34.5l168 -166h-128q-16 0 -27 -9t-13 -25v-25q0 -14 10.5 -24.5t24.5 -10.5l257 3q15 0 25 10q7 7 7 24l5 18v0zM229 737h128q16 0 27 9t13 25v25q0 15 -10.5 25
t-24.5 10l-262 -3q-15 0 -25 -10q-7 -7 -7 -24l2 -18h-2v-245q0 -14 9.5 -21.5t24.5 -7.5h25q15 0 25 9.5t10 24.5v134l168 -166q13 -13 32.5 -13t34.5 13q13 13 13 32.5t-13 34.5zM229 737z" />
    <glyph glyph-name="uniE612" unicode="&#xe612;" 
d="M923 591h-141l159 158q13 13 13 31.5t-13 31.5t-31.5 13t-31.5 -13l-161 -159l1 144q1 14 -8.5 24t-23.5 10h-22q-14 -1 -23.5 -9t-10.5 -21l-1 -250l1 -1h1l-2 -16q0 -15 8 -23q9 -10 23 -10l16 1h1l250 -1q14 0 23.5 10t10.5 23v23q-2 16 -13 25t-25 9zM959 209v23
q0 13 -10 23t-23 10l-250 -1v0l-17 1q-13 0 -22 -10q-8 -8 -8 -23l2 -16h-1l-1 -1l1 -248q1 -14 10.5 -21.5t23.5 -8.5h24q13 0 22.5 10t8.5 24l-1 141l160 -158q13 -13 31.5 -13t31.5 13t13 31.5t-13 31.5l-160 159l141 1q14 0 24.5 8t12.5 24zM386 255q-10 10 -23 10
l-17 -1v0l-248 1q-13 0 -23 -10t-10 -23v-23q2 -16 12.5 -24t24.5 -8l140 -1l-160 -159q-13 -13 -13 -31.5t13 -31.5t31.5 -13t31.5 13l160 159l-1 -140q0 -14 9 -24t23 -10h23q14 0 23.5 8t9.5 21l1 247l-1 1l1 16q1 15 -7 23zM393 551l-1 250q0 13 -9.5 21t-23.5 9h-24
q-14 0 -23 -10t-9 -24l1 -143l-160 158q-13 13 -31 13t-31 -13t-13 -31.5t13 -31.5l158 -158h-140q-13 0 -24 -9t-13 -25v-23q1 -13 10.5 -23t22.5 -10l250 1h1l16 -1q13 0 23 10q8 8 7 23l-1 16zM393 551z" />
    <glyph glyph-name="uniE613" unicode="&#xe613;" 
d="M847 831h-670q-46 0 -79 -33t-33 -79v-670q0 -46 33 -79t79 -33h670q46 0 79 33t33 79v670q0 46 -33 79t-79 33zM435 667h364v-73h-157l-11 -57h151v-272h-79v201h-184v-205h-80v276h102l11 57h-117v73zM373 212q0 -36 -12.5 -57t-34 -26.5t-97.5 -5.5q-5 36 -14 78
q27 -3 54 -3q23 0 23 26v355h-76v82h210v-82h-53v-367zM758 103q-59 50 -148 113q-41 -67 -167 -115q-19 34 -48 77q64 18 107 46t56.5 77.5t13.5 127.5h79q0 -87 -14 -145q84 -53 172 -117z" />
    <glyph glyph-name="uniE614" unicode="&#xe614;" 
d="M819 164q11 19 20 43.5t13.5 39t13.5 52.5t12 49q-7 -27 -37 -43t-78.5 -28.5t-62.5 -18.5q76 32 125.5 101t52.5 156q-9 -8 -27 -27t-28 -28t-28.5 -18.5t-39.5 -10.5q35 46 52 103t26 134v38v41q0 16 -2 39.5t-6 44.5q-5 -11 -16 -37t-24 -50.5t-33 -51.5
q-23 -34 -49.5 -60t-67.5 -54.5t-103 -52.5t-143 -44q-1 0 -5 -2t-6.5 -2.5t-6.5 1.5t-7.5 7t-5 9t1 14t12 20.5t34 26.5t62.5 33q41 19 64 44q-6 -7 -39.5 -13t-73 -12.5t-90.5 -31.5t-87 -66q-95 -103 -95 -240q0 -28 -1 -51.5t5 -53t20 -56.5q18 180 161 239
q-4 -8 -12 -21.5t-11.5 -21t-7.5 -24.5t2 -32q42 86 104 120q-9 -17 -11 -35t0 -26l3 -9q45 39 98.5 65.5t83.5 32.5l30 7l-18 -18q-11 -11 -39.5 -46.5t-49 -70.5t-35 -84.5t-10.5 -94.5q55 39 78 108q5 -4 9.5 -19.5t3.5 -39t-7.5 -49t-26 -52t-49.5 -43.5
q-16 -10 -52 -24.5t-53 -25.5q173 -30 324 76q76 45 133 144zM819 164z" />
    <glyph glyph-name="uniE615" unicode="&#xe615;" 
d="M867 111h-186q-28 -27 -67.5 -69t-65.5 -71l-25 -29q-11 -11 -22 0q-131 136 -162 169h-182q-50 0 -86 40t-36 92v464q0 51 35 87.5t84 36.5h716q49 0 84 -36.5t35 -87.5v-464q0 -52 -36 -92t-86 -40zM273 522q-24 0 -41.5 -18t-17.5 -43.5t17.5 -43.5t42 -18t42 18
t17.5 43.5t-17.5 43.5t-42.5 18zM512 522q-25 0 -42.5 -18t-17.5 -43.5t17.5 -43.5t42.5 -18t42.5 18t17.5 43.5t-17.5 43.5t-42.5 18zM751 522q-25 0 -42.5 -18t-17.5 -43.5t17.5 -43.5t42 -18t42 18t17.5 43.5t-17.5 43.5t-41.5 18zM751 522z" />
    <glyph glyph-name="uniE616" unicode="&#xe616;" 
d="M869 709l-1 -473l-171 1q-18 0 -34.5 -7t-29.5 -20l-121 -121l-122 121q-6 7 -13.5 12t-15.5 8t-17 5t-18 2h-171l1 473zM889 798l-753 2q-29 0 -49.5 -20t-20.5 -49l-1 -514q0 -29 20.5 -49t49.5 -20h191l173 -175q5 -5 13 -5q2 0 4 1l8 4l173 174h191q29 0 49.5 19.5
t20.5 48.5l1 515q0 28 -20.5 48t-49.5 20zM246 475q0 24 17.5 41.5t41.5 17.5q10 0 18.5 -3t16 -8.5t13 -13t8.5 -16.5t3 -19q0 -37 -34 -53q-12 -6 -26 -6q-23 0 -40.5 17.5t-17.5 42.5zM453 474q0 17 8 30.5t21.5 21t30 7.5t29.5 -8t21 -21.5t8 -29.5q0 -24 -17.5 -41.5
t-41.5 -17.5t-41.5 17.5t-17.5 41.5zM662 474q0 24 17.5 41.5t41.5 17.5q16 0 29.5 -8t21.5 -21.5t8 -30.5q0 -24 -17.5 -41t-42 -17t-41.5 17.5t-17 41.5zM662 474z" />
    <glyph glyph-name="uniE617" unicode="&#xe617;" 
d="M156 457l220 -221l487 490l96 -95l-586 -589l-308 308zM156 457z" />
    <glyph glyph-name="uniE618" unicode="&#xe618;" 
d="M933 370q10 0 16.5 7t6.5 16v275q0 39 -27.5 66.5t-66.5 27.5h-702q-39 0 -67 -27.5t-28 -66.5v-568q0 -39 28 -66.5t67 -27.5h704q39 0 67 27.5t28 66.5v104q0 11 -7.5 17.5t-16.5 6.5q-10 0 -17 -7t-7 -17v0v-99q0 -21 -14 -35.5t-35 -14.5h-697q-20 0 -35 14.5
t-15 35.5v558q0 21 15 35.5t35 14.5h694q20 0 35 -14.5t15 -35.5v-267q0 -11 7.5 -18.5t16.5 -7.5v0zM535 583q0 5 -4 9.5t-10 4.5h-297q-6 0 -10.5 -4t-4.5 -10v-67q0 -5 4.5 -9.5t10.5 -4.5h297q14 0 14 14v67zM419 415q0 5 -3.5 9.5t-10.5 4.5h-181q-6 0 -10.5 -4.5
t-4.5 -9.5v-66q0 -6 4.5 -10.5t10.5 -4.5h181q14 0 14 15v66zM290 259h-66q-6 0 -10.5 -4.5t-4.5 -9.5v-67q0 -5 4.5 -9.5t10.5 -4.5h66q14 0 14 14v67q0 14 -14 14v0zM455 304l-2 -5v-5l-5 -101v-24l24 9l97 36l4 2l3 5l260 343l9 14l-14 9l-87 66l-15 10l-9 -14zM725 623
l87 -66l-2 23l-260 -343l7 5l-97 -35l21 -17l3 99l-5 -9l269 347zM760 495l19 28l-76 55l-18 -29zM760 495z" />
    <glyph glyph-name="uniE619" unicode="&#xe619;" 
d="M589 121q-20 0 -33 16l-171 228q-8 11 -8 24.5t8 24.5l172 217q10 13 27 15t30 -8.5t15 -27t-9 -29.5l-152 -192l153 -203q10 -13 7.5 -30t-15.5 -27q-11 -8 -24 -8zM512 -63q-91 0 -174 35q-80 34 -142 96t-96 142q-35 83 -35 174t35 174q34 80 96 142t142 96
q83 35 174 35t174 -35q80 -34 142 -96t96 -142q35 -83 35 -174t-35 -174q-34 -80 -96 -142t-142 -96q-83 -35 -174 -35zM512 750q-99 0 -183.5 -49t-133.5 -133.5t-49 -183.5t49 -183.5t133.5 -133.5t183.5 -49t183.5 49t133.5 133.5t49 183.5t-49 183.5t-133.5 133.5
t-183.5 49zM512 750z" />
    <glyph glyph-name="uniE61A" unicode="&#xe61a;" 
d="M435 121q-13 0 -24 8q-13 10 -15.5 27t7.5 30l153 203l-152 192q-11 13 -9 29.5t15 27t30 8.5t27 -15l172 -217q8 -11 8 -24.5t-8 -24.5l-171 -228q-13 -16 -33 -16zM512 -63q-91 0 -174 35q-80 34 -142 96t-96 142q-35 83 -35 174t35 174q34 80 96 142t142 96
q83 35 174 35t174 -35q80 -34 142 -96t96 -142q35 -83 35 -174t-35 -174q-34 -80 -96 -142t-142 -96q-83 -35 -174 -35zM512 750q-99 0 -183.5 -49t-133.5 -133.5t-49 -183.5t49 -183.5t133.5 -133.5t183.5 -49t183.5 49t133.5 133.5t49 183.5t-49 183.5t-133.5 133.5
t-183.5 49zM512 750z" />
    <glyph glyph-name="uniE61B" unicode="&#xe61b;" 
d="M750 675l-286 -291l286 -290q14 -13 20.5 -30.5t6.5 -35t-6.5 -34t-20.5 -29.5q-26 -28 -63 -28t-64 28l-346 349q-14 13 -21.5 32t-8.5 38t5 36.5t19 28.5l352 355q27 27 64 27t63 -27q14 -13 20.5 -30t6.5 -34.5t-6.5 -34.5t-20.5 -30v0zM750 675z" />
    <glyph glyph-name="uniE61C" unicode="&#xe61c;" 
d="M274 675q-14 13 -20.5 30t-6.5 34.5t6.5 34.5t20.5 30q26 27 63 27t64 -27l352 -355q13 -11 19 -28.5t5 -36.5t-8.5 -38t-21.5 -32l-346 -349q-27 -28 -64 -28t-63 28q-14 13 -20.5 29.5t-6.5 34t6.5 35t20.5 30.5l286 290zM274 675z" />
    <glyph glyph-name="uniE61D" unicode="&#xe61d;" 
d="M377 384l386 388l-58 59l-444 -447l444 -447l58 59zM377 384z" />
    <glyph glyph-name="uniE61E" unicode="&#xe61e;" 
d="M261 -4l58 -59l444 447l-444 447l-58 -59l386 -388zM647 384z" />
    <glyph glyph-name="uniE61F" unicode="&#xe61f;" 
d="M915 85q0 60 -43 102t-104 42q-38 0 -71 -18.5t-53 -49.5l-246 178q4 17 4 31v2v0v2q0 16 -6 37l266 173q44 -45 106 -45q61 0 104 42t43 102v1v2q0 60 -43 102.5t-103.5 42.5t-103.5 -42.5t-43 -102.5v-2v-1q0 -15 4 -32l-267 -175q-43 42 -103 42q-61 0 -104 -42.5
t-43 -101.5v-2v0v-2q0 -59 43 -101.5t104 -42.5q64 0 108 48l258 -187v-2v-1v-2q0 -60 43 -102.5t103.5 -42.5t103.5 42.5t43 102.5v2v1zM768 775q37 0 63.5 -26t26.5 -63t-26.5 -63t-63.5 -26t-63 26t-26 63t26 63t63 26zM257 282q-37 0 -63.5 26t-26.5 63t26.5 63t63.5 26
t63 -26t26 -63t-26 -63t-63 -26zM768 -7q-37 0 -63 26.5t-26 63.5t26 63t63 26t63.5 -26t26.5 -63t-26.5 -63.5t-63.5 -26.5z" />
    <glyph glyph-name="uniE620" unicode="&#xe620;" 
d="M768 539q61 0 104 42t43 102v1v2q0 60 -43 102.5t-103.5 42.5t-103.5 -42.5t-43 -102.5v-2v-1q0 -15 4 -32l-267 -175q-43 42 -103 42q-61 0 -104 -42.5t-43 -101.5v-2v0v-2q0 -59 43 -101.5t104 -42.5q64 0 108 48l258 -187v-2v-1v-2q0 -60 43 -102.5t103.5 -42.5
t103.5 42.5t43 102.5v2v1q0 60 -43 102t-104 42q-38 0 -71 -18.5t-53 -49.5l-246 178q4 17 4 31v2v0v2q0 16 -6 37l266 173q44 -45 106 -45zM768 539z" />
    <glyph glyph-name="uniE621" unicode="&#xe621;" 
d="M146 732q-34 0 -57.5 -23t-23.5 -55.5t23.5 -55.5t57 -23t57 23t23.5 55.5t-23.5 55.5t-56.5 23zM327 681v-59h632v59h-632zM146 463q-34 0 -57.5 -23t-23.5 -56t23.5 -56t57 -23t57 23t23.5 56t-23.5 56t-56.5 23zM327 357h632v59h-632v-59zM146 193q-34 0 -57.5 -23
t-23.5 -55.5t23.5 -55.5t57 -23t57 23t23.5 55.5t-23.5 55.5t-56.5 23zM327 75h632v59h-632v-59zM327 75z" />
    <glyph glyph-name="uniE622" unicode="&#xe622;" 
d="M923 53h-35v288h-57v-288h-375v302h-37v-302h-215v288h-50v-288h-53q-15 0 -25.5 -10.5t-10.5 -25.5t10.5 -25.5t25.5 -10.5h822q15 0 25.5 10.5t10.5 25.5t-10.5 25.5t-25.5 10.5zM497 211l12 -12l134 133l-14 11zM786 243l-14 11l-133 -132l13 -13zM742 324l-13 13
l-215 -215l13 -13zM320 137q0 -13 9.5 -22.5t22.5 -9.5t22.5 9.5t9.5 22.5q0 15 -15 27v107q15 12 15 27q0 13 -9.5 22.5t-22.5 9.5t-22.5 -9.5t-9.5 -22.5q0 -15 13 -26v-109q-13 -11 -13 -26zM152 380q27 0 46 18.5t20 49.5h13q2 -31 20.5 -49.5t45.5 -18.5t45.5 18.5
t20.5 49.5h12q2 -31 20.5 -49.5t45.5 -18.5t46 18.5t20 49.5h13q2 -31 20.5 -49.5t45.5 -18.5t45.5 18.5t20.5 49.5h12q2 -31 20.5 -49.5t45.5 -18.5t46 18.5t20 49.5h13q2 -31 20.5 -49.5t45.5 -18.5t45.5 18.5t20.5 49.5h-3v16h-857v-16h5q2 -31 20.5 -49.5t45.5 -18.5z
M154 787h713v-35h-713v35zM858 730h-692l-83 -245h858zM229 499h-36l54 216h35zM372 499h-36l33 216h36zM528 499h-36v216h36v-216zM655 499l-33 216h35l34 -216h-36zM798 499l-54 216h36l54 -216h-36zM798 499z" />
    <glyph glyph-name="uniE623" unicode="&#xe623;" 
d="M956 53l-140 274q-6 11 -17 11t-16 -11l-140 -274q-6 -12 0 -23t16 -11h280q11 0 17 11t0 23v0zM816 78q0 -3 -1.5 -5t-3.5 -2h-18q-2 0 -3.5 2t-1.5 5v10q0 3 1.5 5t3.5 2h18q2 0 3.5 -2t1.5 -5v-10zM815 125q-2 -2 -4 -2h-18q-2 0 -3.5 2t-1.5 5v44v70q0 3 1.5 5t3.5 2
h18q2 0 3.5 -2t1.5 -5v-69v-45q0 -3 -1 -5v0zM415 281l11 -10l108 109l-11 9zM650 307l-11 9l-108 -107l11 -10zM614 373l-10 10l-174 -174l10 -10zM272 221q0 -10 7.5 -18t18.5 -8t18.5 8t7.5 18q0 13 -12 22v87q12 10 12 22q0 11 -7.5 18.5t-18.5 7.5t-18.5 -7.5
t-7.5 -18.5q0 -12 11 -21v-89q-11 -8 -11 -21zM136 418q22 0 37 15t16 41h11q1 -26 16 -41t37 -15t37 15t17 41h10q1 -26 16.5 -41t37 -15t37 15t16.5 41h10q2 -26 17 -41t37 -15t37 15t16 41h10q2 -26 17 -41t37 -15t37 15t17 41h10q1 -26 16 -41t37 -15t37 15t17 41h5v12
h-703v-12h4q2 -26 17 -41t37 -15zM137 749h579v-29h-579v29zM709 703h-562l-67 -199h696zM198 515h-29l44 175h29zM314 515h-29l27 175h29zM440 515h-29v175h29v-175zM544 515l-27 175h29l27 -175h-29zM660 515l-44 175h29l44 -175h-29zM733 312v75h-46v-166zM652 153h-270
v245h-29v-245h-175v234h-41v-234h-43q-12 0 -20.5 -8.5t-8.5 -21t8.5 -21t20.5 -8.5h528z" />
    <glyph glyph-name="uniE624" unicode="&#xe624;" 
d="M415 287l10 -11l109 109l-12 9zM649 313l-11 9l-107 -108l10 -10zM614 378l-11 10l-174 -174l11 -10zM272 227q0 -11 7.5 -18.5t18 -7.5t18.5 7.5t8 18.5q0 12 -12 22v86q12 10 12 22q0 11 -8 18.5t-18.5 7.5t-18 -7.5t-7.5 -18.5q0 -12 11 -21v-88q-11 -9 -11 -21z
M136 423q22 0 37 15t16 41h10q2 -26 17 -41t37 -15t37 15t16 41h11q1 -26 16 -41t37 -15t37 15t17 41h10q1 -26 16 -41t37 -15t37 15t17 41h10q1 -26 16 -41t37 -15t37 15t17 41h10q1 -26 16 -41t37 -15t37 15t17 41h-2v12h-695v-12h4q2 -26 17 -41t37 -15zM137 754h578v-29
h-578v29zM708 707h-561l-67 -198h695zM198 520h-29l43 175h29zM314 520h-29l27 175h29zM440 520h-29v175h29v-175zM543 520l-27 175h29l27 -175h-29zM659 520l-43 175h29l43 -175h-29zM732 347v45h-46v-71q21 16 46 26zM614 159h-232v245h-30v-245h-175v233h-40v-233h-43
q-12 0 -20.5 -9t-8.5 -21t8.5 -20.5t20.5 -8.5h535q-12 28 -15 59zM798 335q-66 0 -113 -47t-47 -113.5t47 -113.5t113.5 -47t113.5 47t47 113.5t-47 113.5t-114 47zM895 198l-96 -96q-6 -6 -14.5 -6t-14.5 6l-49 49q-6 6 -6 14.5t6 13.5l4 4q6 6 14 6t14 -6l17 -17l14 -14
q7 6 15 14l64 64q6 6 14.5 6t14.5 -6l3 -3q6 -6 6 -14.5t-6 -14.5zM895 198z" />
    <glyph glyph-name="uniE625" unicode="&#xe625;" 
d="M405 296l10 -10l106 105l-11 9zM634 321l-11 8l-105 -104l10 -10zM599 385l-10 10l-169 -170l10 -10zM266 237q0 -10 7.5 -17.5t18 -7.5t18 7.5t7.5 17.5q0 12 -12 22v84q12 9 12 21q0 11 -7.5 18t-18 7t-18 -7t-7.5 -18q0 -12 11 -20v-86q-11 -9 -11 -21zM134 429
q21 0 36 14.5t16 39.5h10q1 -25 16 -39.5t36 -14.5t36 14.5t16 39.5h10q1 -25 16 -39.5t36 -14.5t36 14.5t16 39.5h10q1 -25 16 -39.5t36 -14.5t36 14.5t16 39.5h10q1 -25 16 -39.5t36 -14.5t35.5 14.5t16.5 39.5h10q1 -25 16 -39.5t36 -14.5t35.5 14.5t16.5 39.5h-2v12
h-676v-12h4q1 -25 16 -39.5t36 -14.5v0zM135 750h562v-28h-562v28zM691 705h-546l-66 -193h677zM194 523h-28l42 170h29zM307 523h-28l26 170h28zM430 523h-28v170h28v-170zM530 523l-26 170h28l27 -170h-29zM643 523l-42 170h28l42 -170h-28zM714 354v44h-45v-69
q21 16 45 25zM600 171h-227v238h-29v-238h-170v227h-39v-227h-42q-11 0 -19.5 -8.5t-8.5 -20t8.5 -20t19.5 -8.5h521q-12 27 -14 57zM802.5 330q-64.5 0 -110.5 -45.5t-46 -110.5t46 -110.5t110.5 -45.5t110.5 45.5t46 110.5t-46 110.5t-110.5 45.5zM905 169q0 -8 -8 -9
l-17 -3q-6 -1 -12 -14q-3 -6 1 -12l10 -14q5 -6 -1 -12l-7 -7q-5 -5 -12 -1l-13 10q-5 4 -19 -1q-7 -2 -8 -10l-2 -16q-1 -8 -9 -8h-11q-8 0 -9 8l-2 16q-1 6 -14 13q-6 3 -13 -2l-13 -10q-7 -4 -12 1l-7 7q-6 6 -1 12l9 14q4 5 0 19q-3 6 -11 7l-16 3q-8 1 -8 9v10q0 8 8 9
l16 3q7 1 13 14q3 6 -2 12l-9 14q-5 6 1 12l7 7q5 6 12 1l13 -10q5 -4 19 1q6 2 8 10l2 16q1 8 9 8h11q8 0 9 -8l2 -16q1 -6 14 -13q6 -3 13 2l13 10q7 5 12 -1l7 -7q6 -6 1 -12l-10 -14q-3 -5 1 -18q3 -7 11 -8l16 -3q8 -1 8 -9v-10zM802.5 214q-16.5 0 -28.5 -11.5
t-12 -28.5t12 -28.5t28.5 -11.5t28.5 11.5t12 28.5t-12 28.5t-28.5 11.5zM820 157q-7 -7 -17.5 -7t-17.5 7t-7 17t7 17t17.5 7t17.5 -7t7 -17t-7 -17z" />
    <glyph glyph-name="uniE626" unicode="&#xe626;" 
d="M485 590l16 30q17 32 51 42t69 -8q34 -16 45.5 -51t-6.5 -68l-50 -95q-24 -44 -59 -56q-28 -9 -59 6q-8 4 -11 13.5t1.5 18t14 11.5t18.5 -1q29 -15 52 29l51 95q8 15 3 32q-6 16 -22 24q-14 8 -30.5 5.5t-24.5 -18.5l-16 -30q-5 -9 -14.5 -12t-18.5 1.5t-12 14t2 17.5z
M403 243q33 -17 69.5 -5t53.5 45l13 24q5 8 2 17.5t-12 14t-18.5 1.5t-14.5 -12l-12 -24q-9 -16 -26 -21.5t-33 2.5t-21.5 24.5t2.5 31.5l48 89q26 49 56 35q8 -4 17.5 -1t14 11.5t1.5 18t-11 13.5q-33 16 -66 1t-55 -57l-47 -89q-18 -33 -6.5 -68t45.5 -51zM811 758v-748
q0 -30 -21 -51.5t-52 -21.5h-452q-31 0 -52 21.5t-21 51.5v748q0 30 21 51.5t52 21.5h452q31 0 52 -21.5t21 -51.5zM568 40q0 23 -16.5 39.5t-39.5 16.5t-39.5 -16.5t-16.5 -39.5t16.5 -39.5t39.5 -16.5t39.5 16.5t16.5 39.5zM736 756h-448v-613h448v613zM736 756z" />
    <glyph glyph-name="uniE627" unicode="&#xe627;" 
d="M547 280h-419v476h750v-287q8 -2 14 -4.5t13 -7.5t10 -7.5t11.5 -11t10.5 -11.5l1 -1l1 -1v322q0 31 -21.5 52.5t-52.5 21.5h-735q-30 0 -47.5 -21t-17.5 -53v-469q0 -30 17 -46t48 -16h412zM926 362q-34 33 -77 34.5t-74 -29.5l-30 -29q-9 -8 -9 -19.5t8.5 -20t21 -8.5
t20.5 8l30 29q18 14 36 11.5t33 -17.5t15 -36t-15 -36l-94 -90q-43 -42 -71 -14q-9 8 -21 8t-20.5 -8t-8.5 -20t8 -20q30 -29 66 -29q45 0 88 42l94 91q33 31 33 76t-33 77zM701 32q-8 8 -20 8t-21 -8l-24 -24q-15 -15 -37 -15t-37.5 15t-15.5 36t15 36l88 85q49 47 77 20
q9 -9 21 -8.5t20.5 8.5t8.5 20t-9 20q-31 31 -74.5 25.5t-84.5 -44.5l-88 -85q-33 -32 -33 -77q0 -20 8 -34.5t25 -31.5q33 -31 79 -31t78 32l24 23q16 15 0 30v0zM578 583q7 0 16 -1q-11 47 -56.5 78.5t-103.5 31.5q-65 0 -111.5 -39t-46.5 -95q0 -62 63 -106l-16 -48
l56 28q40 -8 55 -8q7 0 15 1q-5 17 -5 33q0 51 39 88t95 37zM493 625q9 0 14.5 -5.5t5.5 -14t-5.5 -14t-14.5 -5.5t-16 5.5t-7 14t7 14t16 5.5zM383 586q-10 0 -17 5.5t-7 14t7 14t17 5.5q9 0 14 -5.5t5 -14t-5 -14t-14 -5.5zM731 452q0 47 -40.5 80.5t-94.5 33.5
q-56 0 -95 -33.5t-39 -81t39 -81t95 -33.5q16 0 48 8l43 -24l-12 40q56 41 56 91zM553 471q-6 0 -11 5t-5 11t5 11t11 5q8 0 14 -5t6 -11t-6 -11t-14 -5zM640 471q-6 0 -11 5t-5 11t5 11t11 5q8 0 14 -5t6 -11t-6 -11t-14 -5zM640 471z" />
    <glyph glyph-name="uniE628" unicode="&#xe628;" 
d="M772 197q-30 0 -50.5 -19.5t-20.5 -47t20.5 -47t50 -19.5t50 19.5t20.5 47t-20.5 47t-49.5 19.5v0zM772 97q-15 0 -25.5 10t-10.5 23.5t10.5 23.5t25 10t25 -10t10.5 -23.5t-10.5 -23.5t-24.5 -10v0zM909 167q-4 16 -13 30q30 39 12 56l-8 8q-15 14 -58 -13q-16 9 -33 13
q-8 47 -33 47h-9q-21 0 -33 -47q-17 -5 -33 -13q-41 29 -58 12l-9 -7q-15 -14 14 -56q-9 -15 -13 -31q-51 -7 -51 -31v-9q0 -20 51 -32q5 -15 13 -30q-28 -42 -13 -56l8 -7q11 -8 24 -4.5t24 9.5t11 7l-2 2q16 -9 34 -14q12 -48 33 -48h9q8 0 14 4.5t9.5 11.5t6 14t3.5 12
l1 5h-3q18 4 35 13q42 -27 57 -13l9 9q5 5 5.5 12.5t-1.5 14t-6.5 14t-6.5 10t-3 4.5q8 15 13 31q50 12 50 31v9q0 9 -7 15.5t-17.5 10t-16 4.5t-9.5 2v0zM772 30q-44 0 -75 29.5t-31 71t31 70.5t74.5 29t74.5 -29t31 -70.5t-31 -71t-74 -29.5v0zM184 73q-7 0 -12 5t-5 12
v173q0 13 -9 22t-21 9t-21 -9t-8 -22v-178q0 -33 23 -56.5t56 -23.5h407q0 20 21 51q-5 8 -9 17h-422zM156 352q35 -19 80 -19q80 0 130 61q51 -60 130 -61q79 1 129 61q51 -61 131 -61q46 1 81 20q41 22 65 62.5t24 87.5q0 27 -8 53v1q-1 3 -2 5l-73 176q-10 31 -35.5 54
t-55.5 23h-511q-30 0 -54 -22.5t-34 -52.5l-78 -180q-1 -1 -1 -4q-9 -26 -9 -53q0 -48 24.5 -88.5t66.5 -62.5v0zM269 613h456q13 0 21 -8.5t8 -21.5q0 -14 -8.5 -26t-20.5 -12h-456q-13 0 -23.5 10.5t-10.5 23.5t10.5 23.5t23.5 10.5v0zM838 307q0 1 1 1h-3q1 0 2 -1v0z
M136 294h1h1h-2zM136 294z" />
    <glyph glyph-name="uniE629" unicode="&#xe629;" 
d="M685.5 490q-112.5 0 -192 -79.5t-79.5 -192t79.5 -192t192 -79.5t192 79.5t79.5 192t-79.5 192t-192 79.5zM746 255q7 -1 13 -1h41q6 0 10.5 -5t4.5 -10v-29q0 -9 -12 -9h-72q-5 0 -9 -3q-4 -2 -4 -7v-10q1 -5 1 -10q0 -7 12 -4h71q12 0 12 -12v-27q0 -12 -17 -12h-16
q-6 0 -20 -1h-19h-11q-11 0 -11 -13v-49q0 -7 -9 -7h-39q-16 0 -16 14q0 1 1 21q1 16 -1 22q0 6 -1 8t-7 2h-73q-16 0 -16 16q0 5 -1 10t0 11t4 12q2 4 9 3h81q3 0 3 6v24q0 6 -15 6h-70q-5 0 -8.5 0.5t-3.5 6.5v15q0 10 -1 15q-3 7 3 12t16 5q10 -1 22 0h17h14q8 0 5 5
q-3 3 -14 19q-8 11 -26 33q-14 20 -36 46q-8 14 4 22q6 4 12 9q7 6 16 11q12 7 23 -14q3 -5 14 -18l21 -27q10 -14 20 -27q9 -10 11 -14q3 -5 9.5 -6.5t8.5 3.5q1 3 11 16q11 16 20 29q16 25 20 30q5 8 12 18q6 8 11 11q4 2 14 -1q6 -3 13 -7q7 -6 10 -8q13 -14 7 -23
q-1 -3 -13 -19q-5 -6 -13 -17t-11 -15q-12 -14 -23 -31q-6 -8 -12 -17q-3 -6 3 -8zM401 831q-91 0 -168 -22.5t-121.5 -60.5t-44.5 -83t44.5 -83.5t121.5 -60.5t168 -22t168 22t122 60.5t45 83.5t-45 83t-122 60.5t-168 22.5zM507 456q-52 -8 -106 -8q-118 0 -209 36.5
t-117 92.5q-8 -19 -8 -37q0 -45 44.5 -83.5t121.5 -60.5t168 -22q10 0 27 1q31 49 79 81zM726 502q10 19 10 38q0 18 -9 37q-18 -39 -71 -70h6h9q27 0 55 -5zM401 339q-118 0 -209 36.5t-117 92.5q-8 -19 -8 -37q0 -67 92.5 -115t226.5 -51q6 39 22 74h-4h-3zM382 230
q-112 3 -197 39t-110 89q-8 -18 -8 -36q0 -67 93.5 -115.5t228.5 -50.5q-7 32 -7 63v3v4v4zM75 249q-8 -18 -8 -37q0 -45 44.5 -83t121.5 -60.5t168 -22.5q18 0 37 2q-24 33 -39 72q-117 1 -207.5 37.5t-116.5 91.5zM467 14q-34 -3 -66 -3q-118 0 -209 36.5t-117 92.5
q-8 -19 -8 -37q0 -45 44.5 -83t121.5 -60.5t168 -22.5q80 0 151 18q-48 22 -85 59v0zM467 14z" />
    <glyph glyph-name="uniE62A" unicode="&#xe62a;" 
d="M959 607l-447 224l-447 -223v-447l447 -224l447 224v446zM512 777l336 -169l-128 -64l-338 168zM324 680l342 -165l-154 -74l-336 166zM121 551h18l-18 1v27l363 -181v-391l-363 182v362zM903 524v-335l-363 -182v391l363 181v-55z" />
    <glyph glyph-name="uniE62B" unicode="&#xe62b;" 
d="M512 831q-91 0 -173.5 -35.5t-142.5 -95.5t-95.5 -142.5t-35.5 -173.5t35.5 -173.5t95.5 -142.5t142.5 -95.5t173.5 -35.5t173.5 35.5t142.5 95.5t95.5 142.5t35.5 173.5t-35.5 173.5t-95.5 142.5t-142.5 95.5t-173.5 35.5zM512 528zM512 245v-2v2zM748 111h-4
q-19 4 -22 23q-10 71 -62 124q-63 63 -148 63t-148 -63q-51 -52 -62 -124q-3 -19 -22 -23h-4h-3q-12 1 -19 10.5t-6 20.5q6 43 25 81q4 8 8 15q18 31 44 57q6 5 11 10q33 29 73 46q-9 7 -17 15q-50 50 -50 120.5t50 121.5q49 49 118 50h4q69 -2 118 -50q50 -50 50 -121
q0 -70 -50 -121q-9 -8 -18 -15q40 -17 73 -46q4 -3 12 -10q26 -26 44 -57q5 -8 8 -15q19 -38 24 -81q2 -11 -5 -20.5t-18 -10.5h-4zM510 397q2 1 3 1h1q-2 -1 -4 -1zM512 528zM636 458v2q4 13 4 27t-4 28v2q-11 41 -46 69.5t-78 28.5t-78 -28.5t-46 -69.5v-1v-1
q-4 -14 -4 -28t4 -27v-2q11 -40 45.5 -67t77.5 -27h2q43 0 77.5 27t45.5 67zM510 397q2 1 4 1h-1q-2 -1 -3 -1zM510 397z" />
    <glyph glyph-name="uniE62C" unicode="&#xe62c;" 
d="M868 115l-107 106q49 74 49 163q0 123 -87.5 210.5t-210.5 87.5q-89 0 -163 -49l-106 107q120 91 269 91q91 0 173.5 -35.5t142.5 -95.5t95.5 -142.5t35.5 -173.5q0 -149 -91 -269zM661 347v-75h-112v-111h-74v111h-112v75h112v37h-112v74h37l-37 75h75l37 -75h74l37 75
h75l-37 -75h37v-74h-112v-37h112zM214 384q0 -123 87.5 -210.5t210.5 -87.5q74 0 139 35l109 -109q-113 -75 -248 -75q-91 0 -173.5 35.5t-142.5 95.5t-95.5 142.5t-35.5 173.5q0 135 75 248l109 -109q-35 -65 -35 -139zM214 384z" />
    <glyph glyph-name="uniE62D" unicode="&#xe62d;" 
d="M654 462q28 0 47.5 19.5t19.5 47.5t-19.5 47.5t-47.5 19.5t-47.5 -19.5t-19.5 -47.5t19.5 -47.5t47.5 -19.5zM370 462q28 0 47.5 19.5t19.5 47.5t-19.5 47.5t-47.5 19.5t-47.5 -19.5t-19.5 -47.5t19.5 -47.5t47.5 -19.5zM679 323q-19 -52 -64.5 -84t-102.5 -32t-102.5 32
t-64.5 84l-46 26l-36 -50q27 -78 95.5 -127.5t154 -49.5t153.5 49.5t95 127.5l-36 50zM512 831q-91 0 -173.5 -35.5t-142.5 -95.5t-95.5 -142.5t-35.5 -173.5t35.5 -173.5t95.5 -142.5t142.5 -95.5t173.5 -35.5t173.5 35.5t142.5 95.5t95.5 142.5t35.5 173.5t-35.5 173.5
t-95.5 142.5t-142.5 95.5t-173.5 35.5zM512 26q-97 0 -179.5 48t-130.5 130.5t-48 179.5t48 179.5t130.5 130.5t179.5 48t179.5 -48t130.5 -130.5t48 -179.5t-48 -179.5t-130.5 -130.5t-179.5 -48zM512 26z" />
    <glyph glyph-name="uniE62E" unicode="&#xe62e;" 
d="M950 -53q-9 -9 -21 -9t-21 9l-85 84q-46 -33 -102 -33q-74 0 -126.5 52t-52.5 126t52.5 126t126 52t126 -52t52.5 -126q0 -56 -33 -103l84 -84q9 -9 9 -21.5t-9 -20.5zM609 423q-1 11 -8.5 17.5t-18.5 6.5h-381q-11 0 -19 -8t-8 -19t8 -19t19 -8h357q-28 -20 -54 -54
h-303q-11 0 -19 -8t-8 -19.5t8 -19.5t19 -8h270q-24 -55 -24 -110q0 -65 29 -121.5t79 -95.5h-381q-45 0 -77 32t-32 77v435h136l1 1h1h162q11 0 19 8t8 19v272v1q0 1 -1 1v25h273q45 0 77 -31.5t32 -76.5v-278q-27 5 -53 5q-58 0 -111 -24zM154 177h179q12 0 20.5 8.5
t8.5 21t-8.5 21t-20.5 8.5h-179q-13 0 -21.5 -8.5t-8.5 -21t8.5 -21t21.5 -8.5zM630 713h-178q-13 0 -21.5 -8.5t-8.5 -21t8.5 -21.5t21.5 -9h178q13 0 21.5 9t8.5 21.5t-8.5 21t-21.5 8.5zM630 594h-178q-13 0 -21.5 -9t-8.5 -21t8.5 -21t21.5 -9h178q13 0 21.5 9t8.5 21
t-8.5 21t-21.5 9zM348 548h-195h-84l279 282v-73q0 -4 2 -10l-2 -1v-198zM670 292q-12 -5 -22 -11q-12 -8 -19 -16v0q-9 -9 -15 -19q-7 -10 -12 -21q-4 -10 6 -14t14 6q4 9 10 17q6 9 12 16q9 8 16 13q8 5 18 9.5t5 14.5q-3 10 -13 5v0zM834 187q-4 0 -7 -3.5t-3 -7.5
q0 -22 -8 -41t-23 -34q-15 -14 -34 -22t-40 -8q-5 0 -8 -3.5t-3 -8t3 -7.5t8 -3q25 0 48.5 9.5t40.5 27.5q18 17 27 41h1q9 23 9 49q0 11 -11 11v0z" />
    <glyph glyph-name="uniE62F" unicode="&#xe62f;" 
d="M854 -10q-44 0 -75 30.5t-31 74.5q0 36 22.5 64.5t57.5 37.5v1l-1 1v80q0 33 -23 56t-56 23h-210v-155q0 -1 -1 -6q35 -9 57.5 -37t22.5 -65q0 -44 -30.5 -74.5t-74.5 -30.5t-74.5 30.5t-30.5 74.5q0 37 22.5 65t57.5 37q-1 5 -1 6v155h-211q-32 0 -55 -23t-23 -56v-76
q0 -1 -2 -6q35 -9 57.5 -37t22.5 -65q0 -44 -30.5 -74.5t-74 -30.5t-74.5 30.5t-31 74.5q0 37 23 65t57 37q-1 5 -1 6v76q0 55 38.5 93.5t92.5 38.5h211v161q-35 8 -57 36.5t-22 64.5q0 44 30.5 74.5t74.5 30.5t74.5 -30.5t30.5 -74.5q0 -36 -22 -64.5t-57 -36.5v-161h210
q55 0 93.5 -38.5t38.5 -93.5v-80v-1l-1 -1q35 -9 57.5 -37.5t22.5 -64.5q0 -44 -31 -74.5t-74 -30.5v0zM854 -10z" />
    <glyph glyph-name="uniE630" unicode="&#xe630;" 
d="M734 639q-6 0 -10 -4t-4 -10v-646q0 -6 -4.5 -10t-9.5 -4h-521q-11 0 -19.5 8.5t-8.5 20t8.5 19.5t19.5 8h470q17 0 29.5 12.5t12.5 29.5v576q0 18 -12.5 30t-29.5 12h-484q-17 0 -29 -12t-12 -30v-646v-3q1 -22 17 -37.5t38 -15.5h522q17 1 29 13t12 29v646q0 6 -4.5 10
t-9.5 4zM157 112v527q0 6 4.5 10t9.5 4h484q6 0 10 -4t4 -10v-576q0 -6 -4 -10t-10 -4h-470q-14 0 -28 -8v71zM685 7h-498q-6 0 -10 -4t-4 -10t4 -10t10 -4h498q6 0 10 4t4 10t-4 10t-10 4zM715 762q-6 -2 -8.5 -8t-0.5 -12t8 -9t12 -1q26 9 51 -16q27 -27 19 -51
q-2 -7 1 -12.5t9 -7.5q9 -3 16 3q3 3 4 7q2 5 3 13.5t-5.5 30t-24.5 39.5q-17 18 -39 23.5t-30.5 4t-14.5 -3.5v0zM717 829q-6 -1 -9.5 -6.5t-2 -12t7 -10t11.5 -2.5q3 1 7 1.5t15 -0.5t21.5 -4.5t26 -12.5t29 -22.5t22.5 -28.5t12.5 -26t4.5 -21.5t1 -14.5t-1 -6
q-1 -7 2.5 -12.5t10.5 -6.5q8 -1 14 4q3 4 4 8t1.5 9t-1 19t-5.5 28t-15 33.5t-28.5 36.5t-36.5 28t-33.5 15t-29 5t-19.5 0.5t-9 -1.5v0zM555 505h-190q-16 0 -27 -11t-11 -27v-114q0 -16 11 -27t27 -11h75l76 -65l15 65h24q16 0 27 11t11 27v114q0 16 -11 27t-27 11z
M345 288q-20 0 -32 10t-12 28v128h-12q-16 0 -27 -11t-11 -27v-101q0 -16 11 -27t27 -11h24l15 -65l76 65h41l-21 11h-6h-14q-9 0 -20 -0.5t-21 -0.5t-18 1zM345 288z" />
    <glyph glyph-name="uniE631" unicode="&#xe631;" 
d="M123 354h3q11 0 19 7t9 18q9 85 55.5 156.5t120.5 113.5q10 6 13 17t-2.5 21.5t-17 13.5t-21.5 -3q-85 -49 -139.5 -132t-64.5 -181q-1 -12 6.5 -21t18.5 -10zM681 34q-81 -46 -175 -46q-108 0 -198 60q-9 7 -20.5 4.5t-18 -12t-4.5 -21t12 -17.5q104 -70 229 -70
q109 0 203 53q10 6 13 17t-3 21.5t-17 13.5t-21 -3zM704 636q66 -45 106.5 -113t48.5 -148q1 -16 1 -33q0 -12 8.5 -20t20 -8t19.5 8t8 20q0 20 -1 39q-9 92 -56 170.5t-123 130.5q-10 7 -21.5 4.5t-18 -12t-4.5 -21t12 -17.5zM411 735q0 -42 29.5 -71.5t71.5 -29.5
t71.5 29.5t29.5 71.5t-29.5 71.5t-71.5 29.5t-71.5 -29.5t-29.5 -71.5zM65 165q0 -42 30 -71.5t71.5 -29.5t71.5 29.5t30 71.5t-30 71.5t-71.5 29.5t-71.5 -29.5t-30 -71.5zM756 162q0 -42 30 -71.5t71.5 -29.5t71.5 29.5t30 71.5t-30 71.5t-71.5 29.5t-71.5 -29.5
t-30 -71.5zM756 162z" />
    <glyph glyph-name="uniE632" unicode="&#xe632;" 
d="M553 487q0 5 -3.5 9t-8.5 4h-277q-5 0 -8.5 -4t-3.5 -9v-217q0 -5 3.5 -8.5t8.5 -3.5h10q5 0 8.5 3.5t3.5 8.5v182q0 5 3.5 8.5t8.5 3.5h243q5 0 8.5 4t3.5 9v10zM576 441h-254q-6 0 -10 -4t-4 -10v-225q0 -6 4 -10t10 -4h254q6 0 10 4t4 10v225q0 6 -4 10t-10 4v0z
M548 230h-198v70l43 43l70 -71l42 42l43 -42v-42zM519 343q-11 0 -19.5 8t-8.5 19.5t8.5 20t20 8.5t20 -8.5t8.5 -20t-8.5 -19.5t-20.5 -8v0zM677 5h-483q-5 0 -9 -4t-4 -9.5t4 -9.5t9 -4h483q6 0 10 4t4 9.5t-4 9.5t-10 4zM711 421v-443q0 -6 -4 -10t-10 -4h-504
q-11 0 -19 8t-8 19.5t8 19t19 7.5h455q17 0 28.5 12t11.5 29v362h-27v-362q0 -6 -3.5 -10t-9.5 -4h-455q-14 0 -27 -7v579q0 6 4 10t9 4h290v27h-290q-16 0 -28 -12t-12 -29v-626v-3q1 -21 16.5 -36t37.5 -15h505q17 1 28.5 12.5t11.5 28.5v443h-27zM864 682h-23
q-5 28 -22 52l16 17q6 6 6 15t-6 15t-15 6t-15 -6l-16 -17q-24 17 -53 22v23q0 9 -6.5 15.5t-15 6.5t-15 -6.5t-6.5 -15.5v-23q-29 -5 -53 -22l-16 17q-6 6 -15 6t-15 -6t-6 -15t6 -15l16 -17q-17 -24 -22 -52h-23q-8 0 -14.5 -6.5t-6.5 -15.5t6.5 -15t14.5 -6h23
q5 -29 22 -53l-16 -16q-6 -6 -6 -15t6 -15.5t15 -6.5t15 7l16 16q24 -17 53 -22v-23q0 -9 6.5 -15t15 -6t15 6t6.5 15v23q29 5 53 22l16 -16q6 -7 15 -7t15 6.5t6 15.5t-6 15l-16 16q17 24 22 53h23q9 0 15 6t6 15t-6 15.5t-15 6.5zM715 575q-36 0 -61 25t-25 60.5t25 60
t60.5 24.5t60.5 -24.5t25 -60t-25 -60.5t-60 -25zM715 703q-18 0 -30.5 -12.5t-12.5 -30t12.5 -30t30 -12.5t30 12.5t12.5 30t-12.5 30t-29.5 12.5zM715 703z" />
    <glyph glyph-name="uniE633" unicode="&#xe633;" 
d="M455 339q9 0 13 7l70 121q15 26 7.5 54.5t-33.5 43.5q-25 15 -55 7t-44 -33q-3 -5 -4 -9q-4 3 -9 5q-25 15 -54.5 7t-44.5 -33q-15 -26 -7 -55t34 -44l120 -69q4 -2 7 -2zM898 609q-12 21 -37 28l-98 26v32q0 25 -17.5 43t-42.5 18h-101l-8 30q-6 24 -28 36.5t-46 6.5
l-357 -96q-25 -6 -37.5 -28t-5.5 -46l155 -581q9 -33 42 -42v-1l357 -96q8 -2 16 -2q16 0 30 8q22 13 29 37l155 581q7 24 -6 46zM703 727q13 0 22.5 -9.5t9.5 -22.5v-433l-125 465h93zM303 86l-155 580q-4 13 2.5 24.5t19.5 14.5l357 96q4 1 8 1q11 0 19.5 -6.5t11.5 -17.5
l156 -580q3 -13 -3.5 -24.5t-19.5 -14.5l-357 -96q-12 -3 -24 3.5t-15 19.5zM735 148v-54q0 -13 -9.5 -22.5t-22.5 -9.5h-254l258 69q16 4 28 17zM721 -10q-4 -13 -15.5 -19.5t-23.5 -3.5l-247 66h268q17 0 32 10zM876 570l-113 -422v485l91 -24q13 -3 19.5 -14.5t2.5 -24.5
zM876 570z" />
    <glyph glyph-name="uniE634" unicode="&#xe634;" 
d="M915 176h-105v105q0 17 -11.5 29t-29 12t-29 -12t-11.5 -29v-111h-117q-17 0 -29 -11.5t-12 -29t12 -29t29 -11.5h111v-111q0 -17 11.5 -29t29 -12t29 12t11.5 29v111h111q18 0 29.5 11.5t11.5 29.5q4 17 -9.5 31.5t-31.5 14.5v0zM506 70h-364q-10 0 -17 7t-7 17v662
q0 10 7 17t17 7h646q10 0 17 -7t7 -17v-358q0 -10 6.5 -16.5t17 -6.5t17 6.5t6.5 16.5v0v382q0 20 -15 35.5t-36 15.5h-690q-20 0 -35.5 -15.5t-15.5 -35.5v-710q0 -20 15.5 -35t35.5 -15h388q11 0 17.5 6.5t6.5 16.5q0 13 -6.5 20t-17.5 7v0zM501 188q13 26 41 42t58 16h47
v52q0 35 19.5 63.5t50.5 41.5v0l-58 175l-204 -262l-58 93l-216 -221h320zM397 561q0 26 -19 45t-45.5 19t-45.5 -19t-19 -45.5t19 -45t45.5 -18.5t45.5 18.5t19 45.5v0zM397 561z" />
    <glyph glyph-name="uniE635" unicode="&#xe635;" 
d="M471 152q-40 0 -81.5 18t-72.5 43.5t-56 52.5t-38 45t-13 21t13 21t38 45t56 52.5t72.5 43.5t82 18t82.5 -18.5t73.5 -45.5t55.5 -53t38 -45t12 -18l-13 -18q-14 -18 -38.5 -44.5t-55.5 -53t-72.5 -45.5t-82.5 -19v0zM470 454q-45 0 -77.5 -35t-32.5 -84q0 -50 32.5 -85
t77.5 -35q46 0 78.5 35t32.5 85q0 49 -32.5 84t-78.5 35v0zM470 282q-22 0 -37.5 17t-15.5 40t15.5 39.5t37.5 16.5t37 -16.5t15 -39.5t-15 -40t-37 -17v0zM825 763q-55 0 -94 -39t-39 -94t39 -94t94.5 -39t94.5 39t39 94t-39 94t-95 39zM888 660q-5 0 -10 2l-34 -60
q11 -11 11 -27t-11 -27t-26.5 -11t-26.5 11t-11 27q0 13 9 24l-22 19q-5 -2 -11 -2q-10 0 -17 7t-7 17.5t7 17.5t17.5 7t17.5 -7t7 -17q0 -9 -5 -15l21 -19q10 5 21 5q8 0 16 -3l34 58q-12 10 -12 25q0 13 9 22t22.5 9t22.5 -9t9 -22t-9 -22.5t-22 -9.5zM825 438v0v-327
q0 -19 -13.5 -32.5t-32.5 -13.5h-614q-19 0 -33 13.5t-14 32.5v442q0 19 14 32.5t33 13.5h471q-3 17 -3 31q0 13 3 30h-521q-20 0 -35 -15t-15 -36v-554q0 -21 15 -35.5t35 -14.5h713q21 0 35.5 14.5t14.5 35.5v391q-26 -8 -53 -8z" />
    <glyph glyph-name="uniE636" unicode="&#xe636;" 
d="M96 311q-26 -62 -30 -114t17 -63q15 -7 36 8t43 48q17 -70 80 -122q-33 -12 -51.5 -30.5t-18.5 -39.5q0 -36 48.5 -61t117.5 -25q62 0 108.5 20.5t55.5 51.5h10h10q9 -31 55.5 -51.5t108.5 -20.5q69 0 117.5 25t48.5 61q0 21 -18.5 39.5t-51.5 30.5q63 52 80 122
q22 -33 43 -48t36 -8q21 11 17.5 63t-30.5 114q-21 48 -46.5 82t-47.5 42q1 6 1 13q0 37 -19 67v4q0 17 -8 32q-5 132 -85.5 218.5t-210.5 86.5t-210.5 -86.5t-85.5 -218.5q-8 -15 -8 -32v-2v-2q-19 -30 -19 -67q0 -7 1 -13q-22 -8 -48 -42t-46 -82zM96 311z" />
    <glyph glyph-name="uniE637" unicode="&#xe637;" 
d="M670 528q13 0 31 -2q-21 95 -112 158.5t-208 63.5q-85 0 -158 -35.5t-115.5 -97.5t-42.5 -136q0 -125 127 -214l-32 -95l111 56q80 -16 110 -16q14 0 30 1q-10 34 -10 66q0 104 78.5 177.5t190.5 73.5zM500 613q18 0 29 -10.5t11 -28.5t-11 -29t-29 -11q-19 0 -33 11.5
t-14 28.5t14 28t33 11zM279 534q-19 0 -33.5 11.5t-14.5 28.5t14.5 28t33.5 11q18 0 28.5 -10.5t10.5 -28.5t-10.5 -29t-28.5 -11zM959 281q0 94 -80.5 162t-188.5 68q-112 0 -190.5 -67.5t-78.5 -162.5t78.5 -162t190.5 -67q32 0 95 16l87 -48l-24 79q111 83 111 182z
M603 321q-12 0 -22 10t-10 21.5t10 21.5t22 10q17 0 28 -9.5t11 -22t-11 -22t-28 -9.5zM777 321q-12 0 -22 10t-10 21.5t10 21.5t22 10q17 0 28 -9.5t11 -22t-11 -22t-28 -9.5zM777 321z" />
    <glyph glyph-name="uniE638" unicode="&#xe638;" 
d="M727 393q-15 3 -19.5 9.5t-1.5 11.5l3 5q1 2 3.5 6t6 16t4 23t-4 25.5t-16.5 26.5q-14 14 -37 18.5t-45.5 1t-43.5 -9.5t-34 -11l-13 -6q-10 -3 -16.5 -4t-10.5 0.5t-5.5 3t-1.5 7t0.5 9.5t2.5 13t3 14q0 15 -2 28t-11 27.5t-23 22t-40.5 7t-62.5 -12.5
q-35 -12 -71.5 -36.5t-64 -50.5t-50 -50t-34.5 -40l-12 -15q-33 -45 -48.5 -89t-16.5 -65.5t1 -21.5q5 -49 29 -88t57 -63t78.5 -40.5t86.5 -24.5t87 -12q76 -6 157 12t151 62t99 105q17 37 17.5 68.5t-10.5 51t-29 35t-33.5 22.5t-28.5 9zM415 76q-109 -5 -186.5 43
t-77.5 121t77 125.5t187 57.5q112 5 188.5 -37t76.5 -114q0 -74 -78 -132.5t-187 -63.5zM415 76zM386 359q-130 -15 -130 -155v-5q0 -3 2 -12t6 -16.5t12 -17t20 -15.5q66 -32 124.5 -19.5t94.5 58.5q14 18 18.5 43t-2 51t-23 48t-48.5 33.5t-74 6.5zM349 165
q-20 -2 -34.5 8.5t-14.5 27.5q0 18 13.5 33t33.5 17q23 2 37.5 -9.5t14.5 -28.5q0 -18 -14.5 -31.5t-35.5 -16.5zM436 239q-7 -5 -14.5 -4.5t-11.5 7.5q-4 6 -2 14.5t8 13.5q9 6 16.5 5t11 -7.5t1.5 -14.5t-9 -14zM436 239zM799 453q8 0 15 6t8 14q1 2 1 3q3 33 -2 58
t-16.5 39t-26.5 23t-30.5 12t-28 3.5t-21.5 -0.5l-8 -1q-10 0 -17 -7t-7 -17.5t7 -17.5t17 -7q23 5 39 3t25.5 -9t14.5 -16.5t6.5 -20.5t1 -20t-1.5 -15l-1 -6q0 -10 7.5 -17t17.5 -7zM799 453zM781 735q-51 12 -120 -1q-1 0 -2 -0.5t-2 -0.5l-1 -1q-11 -3 -18 -12.5
t-7 -21.5q0 -15 10 -25t25 -10q19 2 32 7q5 1 17.5 2t33.5 -4t42 -13t43.5 -26.5t37.5 -44.5q27 -60 10 -116q-6 -17 -6 -34q0 -14 10 -22.5t24 -8.5q15 0 23 5.5t11 23.5q19 57 14.5 103t-20 80t-43 59t-56 39.5t-58.5 21.5zM781 735z" />
    <glyph glyph-name="uniE639" unicode="&#xe639;" 
d="M958 485q-3 9 -12 10l-303 26l-118 280q-4 9 -13 9t-13 -9l-118 -280l-303 -26q-9 -1 -12 -9.5t4 -14.5l230 -199l-69 -296q-2 -9 5.5 -14.5t15.5 -0.5l260 156l260 -157q4 -2 7 -2q5 0 9 3q7 6 5 15l-54 234q10 5 22 13t20 13l7 5q-5 -2 -14 -5t-45.5 -11t-86 -11
t-133.5 -5t-189 7l265 192q-11 16 -343 28l15 4q135 27 297 23q99 -2 176 -18l-267 -191q12 -2 34.5 -4.5t92.5 -6.5t142 -3l-8 32l230 199q7 6 4 14zM958 485z" />
    <glyph glyph-name="uniE63A" unicode="&#xe63a;" 
d="M512 831q-91 0 -173.5 -35.5t-142.5 -95.5t-95.5 -142.5t-35.5 -173.5t35.5 -173.5t95.5 -142.5t142.5 -95.5t173.5 -35.5t173.5 35.5t142.5 95.5t95.5 142.5t35.5 173.5t-35.5 173.5t-95.5 142.5t-142.5 95.5t-173.5 35.5zM262 385q0 90 59.5 161t136.5 89v-100
q0 -186 -165 -265q-31 64 -31 115zM500 130q-95 0 -165 65q121 74 177 202q48 -125 158 -197q-72 -70 -170 -70zM731 270q-165 79 -165 265v15v85q77 -18 136.5 -89t59.5 -161q0 -51 -31 -115zM731 270z" />
    <glyph glyph-name="uniE63B" unicode="&#xe63b;" 
d="M895 798h-766q-26 0 -45 -19t-19 -45v-551q0 -27 19 -45.5t45 -18.5h766q26 0 45 18.5t19 45.5v551q0 26 -19 45t-45 19zM910 181h-799v575h799v-575zM413 93l-35 -108q0 -6 5 -10.5t12 -4.5h234q7 0 12 4.5t5 10.5l-35 108h-198zM179 235q11 -8 26 -8h486q5 0 19 8
q13 8 32 21t39 29q21 16 36 30q17 14 28 25t11 14v326q0 12 -11 20.5t-26 8.5h-614q-15 0 -26 -8.5t-11 -20.5v-425q0 -12 11 -20zM578 623q0 10 8 17.5t18 7.5h134q10 0 18 -7.5t8 -17.5v-12q0 -10 -8 -17.5t-18 -7.5h-134q-10 0 -18 7.5t-8 17.5v12zM528 502q0 10 7.5 18
t17.5 8h183q10 0 18 -8t8 -18v-9q0 -10 -7.5 -18t-18.5 -8h-183q-10 0 -17.5 8t-7.5 18v9zM523 384q0 10 7.5 18t18.5 8h191q10 0 18 -8t8 -18v-13q0 -10 -8 -18t-18 -8h-191q-11 0 -18.5 8t-7.5 18v13zM258 591q0 21 15 36t36 15h138q22 0 36.5 -15t14.5 -36v-253
q0 -21 -14.5 -35.5t-36.5 -14.5h-138q-21 0 -36 14.5t-15 35.5v253z" />
    <glyph glyph-name="uniE63C" unicode="&#xe63c;" 
d="M512 784q80 0 153 -30.5t129.5 -87t87 -129.5t30.5 -153t-30.5 -153t-87 -129.5t-129.5 -87t-153 -30.5t-153 30.5t-129.5 87t-87 129.5t-30.5 153t30.5 153t87 129.5t129.5 87t153 30.5zM512 831q-89 0 -171 -34t-145 -97t-97 -144.5t-34 -171t34 -171.5t97 -145
t145 -97t171 -34t171 34t145 97t97 144.5t34 171.5t-34 171.5t-97 144.5t-145 97t-171 34v0zM633 599q-43 39 -114 39q-79 0 -125.5 -46.5t-46.5 -127.5q1 -13 10 -22t22 -9t22 9t10 22v1v1q1 119 105 119q41 0 67 -23t26 -60q0 -43 -48 -87l-25 -21q-35 -32 -45 -55.5
t-10 -75.5v-3q0 -12 8.5 -20.5t20.5 -8.5t20.5 8t9.5 19l1 11q0 54 51 95q85 70 85 134q0 63 -44 101zM472 157q0 -17 11.5 -28.5t28.5 -11.5t28.5 11.5t11.5 28.5t-11.5 28.5t-28.5 11.5t-28.5 -11.5t-11.5 -28.5zM472 157z" />
    <glyph glyph-name="uniE63D" unicode="&#xe63d;" 
d="M512 831q-115 0 -196 -82t-81 -197q0 -44 28.5 -123t69.5 -161.5t81.5 -158t69.5 -123.5l28 -49q11 19 30 51t66.5 119.5t84 162.5t66.5 156.5t30 125.5q0 115 -81 197t-196 82zM512 384q-69 0 -117.5 49t-48.5 118.5t48.5 118.5t117.5 49t117.5 -49t48.5 -118.5
t-48.5 -118.5t-117.5 -49zM512 384z" />
    <glyph glyph-name="uniE63E" unicode="&#xe63e;" 
d="M410 540q-28 0 -51.5 -19t-34.5 -49h172q-11 30 -34.5 49t-51.5 19zM439 632q0 13 -8.5 22t-20.5 9t-20.5 -9t-8.5 -22t8.5 -22t20.5 -9t20.5 9t8.5 22zM835 831h-646q-34 0 -58 -24t-24 -58v-730q0 -34 24 -58t58 -24h646q34 0 58 24t24 58v730q0 34 -24 58t-58 24z
M626 629h92q12 0 21 -9t9 -22t-9 -22t-21 -9h-92q-13 0 -22 9t-9 22t9 22t22 9zM335 580q-16 24 -16 52q0 38 26.5 65t64 27t64 -27t26.5 -65q0 -28 -16 -52q33 -20 54.5 -55.5t25.5 -79.5q1 -13 -7 -22.5t-21 -11.5q-4 -1 -9 -1h-241h-2h-1q-13 1 -21 11t-7 23q4 44 25 80
t55 56zM469 107h-180q-13 0 -22 9t-9 21.5t9 21.5t22 9h180q13 0 22 -9t9 -21.5t-9 -21.5t-22 -9zM561 261h-273q-13 0 -22 9t-9 21.5t9 21.5t22 9h273q13 0 22 -9t9 -21.5t-9 -21.5t-22 -9zM626 475h92q12 0 21 -9t9 -21.5t-9 -21.5t-21 -9h-92q-13 0 -22 9t-9 21.5t9 21.5
t22 9zM675 56l-78 -39l1 87l224 357l76 -48z" />
    <glyph glyph-name="uniE63F" unicode="&#xe63f;" 
d="M910 755v-455q0 -41 -19.5 -81.5t-52.5 -78.5q-32 -38 -73.5 -72t-83.5 -61q-43 -26 -83 -44q-41 -18 -71 -24l-9 -2l-9 2q-31 6 -72 24q-41 17 -86 44q-44 27 -86.5 61t-76 72t-54.5 79q-20 40 -20 81v455l32 5l367 71l374 -71zM513 765l-5 1l-314 -55v-288h319v342z
M830 423h-317v-408q30 7 66 22q36 14 71 35q36 20 68 45q32 24 57 53q25 28 40 59t15 62v132zM830 423z" />
    <glyph glyph-name="uniE640" unicode="&#xe640;" 
d="M492 505h-41q-8 0 -14 -5.5t-6 -14t6 -14.5t14 -6h41q8 0 14 6t6 14.5t-6 14t-14 5.5v0zM370 505h-41q-8 0 -14 -5.5t-6 -14t6 -14.5t14 -6h41q8 0 14 6t6 14.5t-6 14t-14 5.5v0zM492 140h-41q-8 0 -14 -6t-6 -14.5t6 -14.5t14 -6h41q8 0 14 6t6 14.5t-6 14.5t-14 6v0z
M614 140h-41q-9 0 -14.5 -6t-5.5 -14.5t6 -14.5t14 -6h41q8 0 14 6t6 14.5t-6 14.5t-14 6v0zM918 262q0 -17 -12 -29t-29 -12h-121q-17 0 -29 12t-12 29v81q0 17 12 29t29 12h121q17 0 29 -12t12 -29v-81zM821 108q0 -16 -11.5 -27.5t-27.5 -11.5h-621q-16 0 -27.5 11.5
t-11.5 27.5v388q0 17 11.5 28t27.5 11h621q16 0 27.5 -11t11.5 -28v-77h-78q-32 0 -55 -23t-23 -55v-77q0 -33 23 -55.5t55 -22.5h78v-78zM106 587q0 16 12 28t29 12l-12 -42q-16 -2 -29 -10v12zM208 700l423 -113h-453zM759 662l9 -70l-183 49zM837 587v-12q-14 8 -28 10
l-5 41q14 -3 23.5 -14t9.5 -25v0zM877 424v163q0 32 -22.5 55.5t-55.5 24.5l-4 40l-315 -38l-301 81l-22 -82h-10q-34 0 -58 -24t-24 -57v-488q0 -33 24 -57t58 -24h649q34 0 57.5 24t23.5 57v82q34 0 58 23.5t24 57.5v81q0 34 -24 57.5t-58 23.5v0zM614 505h-41
q-8 0 -14 -5.5t-6 -14t6 -14.5t14 -6h41q8 0 14 6t6 14.5t-6 14t-14 5.5v0zM735 140h-40q-9 0 -15 -6t-6 -14.5t6 -14.5t15 -6h40q9 0 15 6t6 14.5t-6 14.5t-15 6v0zM776 323q-8 0 -14 -6t-6 -14.5t6 -14.5t14 -6t14 6t6 14.5t-6 14.5t-14 6v0zM248 505h-41q-8 0 -14 -5.5
t-6 -14t6 -14.5t14 -6h41q8 0 14 6t6 14.5t-6 14t-14 5.5v0zM695 465h40q9 0 15 6t6 14.5t-6 14t-15 5.5h-40q-9 0 -15 -5.5t-6 -14t6 -14.5t15 -6v0zM370 140h-41q-8 0 -14 -6t-6 -14.5t6 -14.5t14 -6h41q8 0 14 6t6 14.5t-6 14.5t-14 6v0zM248 140h-41q-8 0 -14 -6
t-6 -14.5t6 -14.5t14 -6h41q8 0 14 6t6 14.5t-6 14.5t-14 6v0zM248 140z" />
    <glyph glyph-name="uniE641" unicode="&#xe641;" 
d="M512 831q-91 0 -173.5 -35.5t-142.5 -95.5t-95.5 -142.5t-35.5 -173.5t35.5 -173.5t95.5 -142.5t142.5 -95.5t173.5 -35.5t173.5 35.5t142.5 95.5t95.5 142.5t35.5 173.5t-35.5 173.5t-95.5 142.5t-142.5 95.5t-173.5 35.5zM523 673q30 0 51.5 -21.5t21.5 -51.5
t-21.5 -51t-51.5 -21t-51.5 21t-21.5 51t21.5 51.5t51.5 21.5zM652 125h-243v32l30 11q13 5 21 16t8 24v172q0 14 -8 25t-21 16l-30 11v33h184v-257q0 -13 8 -24t21 -16l30 -11v-32zM652 125z" />
    <glyph glyph-name="uniE642" unicode="&#xe642;" 
d="M134 556v64q0 4 7 4q3 1 27 1v9v12v9q1 38 38 38h120h13v10v10q2 43 28.5 74.5t67.5 41.5q7 2 15 2h119q49 -1 84 -40q33 -37 31 -87q0 -7 2.5 -9.5t8.5 -1.5h121q39 0 40 -40v-28q24 0 27 -1q2 0 4.5 -2t2.5 -4v-51v-10q-9 -1 -10 -1h-49q-12 1 -10 -10v-8v-492
q0 -56 -41 -88q-27 -20 -63 -20q-287 -1 -410 0q-45 0 -74.5 30t-29.5 76v498q0 12 -1 13t-13 1h-55v0zM271 295v-248q0 -41 38 -41q237 -1 405 0q14 0 27 9q12 8 12 34v495q0 7 -2.5 10t-9.5 3q-149 -2 -271 -2q-71 0 -187 2q-7 0 -10 -2.5t-3 -10.5q1 -30 1 -249zM612 693
q6 26 -8.5 47t-40.5 21q-55 1 -103 0q-25 -1 -40 -22t-8 -46h200zM408 76h-67v410h67v-410zM616 486h67v-410h-67v410zM479 486h66v-410h-66v410zM479 486z" />
    <glyph glyph-name="uniE643" unicode="&#xe643;" 
d="M512 831q-91 0 -173.5 -35.5t-142.5 -95.5t-95.5 -142.5t-35.5 -173.5t35.5 -173.5t95.5 -142.5t142.5 -95.5t173.5 -35.5t173.5 35.5t142.5 95.5t95.5 142.5t35.5 173.5t-35.5 173.5t-95.5 142.5t-142.5 95.5t-173.5 35.5zM756 490l-291 -291q-5 -5 -12 -5t-13 5
l-172 173q-5 5 -5 12t5 12l54 55q5 5 12.5 5t12.5 -5l106 -106l224 224q5 5 12.5 5t12.5 -5l54 -54q5 -5 5 -12.5t-5 -12.5v0zM756 490z" />
    <glyph glyph-name="uniE644" unicode="&#xe644;" 
d="M512 831q-91 0 -173.5 -35.5t-142.5 -95.5t-95.5 -142.5t-35.5 -173.5t35.5 -173.5t95.5 -142.5t142.5 -95.5t173.5 -35.5t173.5 35.5t142.5 95.5t95.5 142.5t35.5 173.5t-35.5 173.5t-95.5 142.5t-142.5 95.5t-173.5 35.5zM717 258q5 -5 5 -12t-5 -13l-54 -54
q-6 -5 -13 -5t-12 5l-126 126l-126 -126q-5 -5 -12 -5t-13 5l-54 54q-5 6 -5 13t5 12l126 126l-126 126q-5 5 -5 12t5 13l54 54q6 5 13 5t12 -5l126 -126l126 126q5 5 12 5t13 -5l54 -54q5 -6 5 -13t-5 -12l-126 -126zM717 258z" />
    <glyph glyph-name="uniE645" unicode="&#xe645;" 
d="M512 831q-91 0 -173.5 -35.5t-142.5 -95.5t-95.5 -142.5t-35.5 -173.5t35.5 -173.5t95.5 -142.5t142.5 -95.5t173.5 -35.5t173.5 35.5t142.5 95.5t95.5 142.5t35.5 173.5t-35.5 173.5t-95.5 142.5t-142.5 95.5t-173.5 35.5zM512 113q-25 0 -42.5 17.5t-17.5 42.5
t17.5 42.5t42.5 17.5t42.5 -17.5t17.5 -42.5t-17.5 -42.5t-42.5 -17.5zM586 553l-14 -215q0 -25 -17.5 -42.5t-42.5 -17.5t-42.5 17.5t-17.5 42.5l-14 215q-1 5 -1 10q0 31 22 53t53 22t53 -22t22 -53q0 -5 -1 -10zM597 579z" />
    <glyph glyph-name="uniE646" unicode="&#xe646;" 
d="M512 831q-91 0 -173.5 -35.5t-142.5 -95.5t-95.5 -142.5t-35.5 -173.5t35.5 -173.5t95.5 -142.5t142.5 -95.5t173.5 -35.5t173.5 35.5t142.5 95.5t95.5 142.5t35.5 173.5t-35.5 173.5t-95.5 142.5t-142.5 95.5t-173.5 35.5zM603 536l42 41q10 14 28 14t31 -14
q14 -10 14 -28t-14 -32l-41 -41q-10 -14 -28 -14t-32 14q-13 10 -13 28t13 32zM236 370v28q0 13 8 20t20 7h91q11 0 19.5 -8.5t8.5 -18.5v-28q0 -13 -9 -20t-23 -7h-87q-11 0 -19.5 8.5t-8.5 18.5zM420 232l-42 -41q-10 -14 -28 -14t-31 14q-14 10 -14 28t14 32l41 41
q10 14 28 14t32 -14q13 -10 13 -28t-13 -32zM419.5 476q-13.5 -14 -31.5 -14t-28 14l-41 41q-14 10 -14 28t14 32q10 14 28 14t31 -14l42 -41q13 -11 13 -28.5t-13.5 -31.5zM553 136q0 -10 -8.5 -18.5t-19.5 -8.5h-27q-11 0 -19.5 8.5t-8.5 18.5v87q0 11 8.5 19.5t19.5 8.5
h27q28 0 28 -28v-87zM553 545q0 -11 -8.5 -19.5t-19.5 -8.5h-27q-11 0 -19.5 8.5t-8.5 19.5v87q0 11 7.5 19t20.5 8h27q13 0 20.5 -8t7.5 -19v-87zM704 191q-10 -14 -28 -14t-31 14l-42 41q-13 11 -13 28.5t13 31.5q11 14 28.5 14t31.5 -14l41 -41q14 -10 14 -28t-14 -32z
M787 370q0 -10 -8.5 -18.5t-19.5 -8.5h-87q-10 0 -18.5 8.5t-8.5 18.5v28q0 10 8.5 18.5t18.5 8.5h87q12 0 20 -7t8 -20v-28z" />
    <glyph glyph-name="uniE647" unicode="&#xe647;" 
d="M334 637q0 -14 -9.5 -23.5t-23.5 -9.5t-24 9.5t-10 23.5t10 24t24 10t23.5 -10t9.5 -24zM334 514q0 -14 -9.5 -24t-23.5 -10t-24 10t-10 24t10 23.5t24 9.5t23.5 -9.5t9.5 -23.5zM267 390q0 -14 10 -24t24 -10t23.5 10t9.5 24t-9.5 24t-23.5 10t-24 -10t-10 -24zM640 607
h-227q-12 0 -21 9t-9 21.5t9 21.5t21 9h227q12 0 21 -9t9 -21.5t-9 -21.5t-21 -9zM640 483h-227q-12 0 -21 9t-9 21.5t9 21.5t21 9h227q12 0 21 -9t9 -21.5t-9 -21.5t-21 -9zM640 359h-227q-12 0 -21 9t-9 22t9 21.5t21 8.5h227q12 0 21 -8.5t9 -21.5t-9 -22t-21 -9z
M267 274q0 -14 10 -24t24 -10t23.5 10t9.5 24t-9.5 24t-23.5 10t-24 -10t-10 -24zM640 243h-227q-12 0 -21 9t-9 21.5t9 21.5t21 9h227q12 0 21 -9t9 -21.5t-9 -21.5t-21 -9zM959 654q0 77 -25 113.5t-66 36.5h-618q-39 0 -66.5 -27.5t-27.5 -65.5v-589h-91q0 -50 8.5 -82.5
t25.5 -48.5t35 -21.5t45 -5.5h542q38 0 65.5 27.5t27.5 65.5v597h145zM777 57q0 -23 -16.5 -39.5t-39.5 -16.5q-29 0 -43 7t-23.5 34t-9.5 80h-451v589q0 23 16.5 39.5t39.5 16.5h552q-24 -38 -25 -110v-3v-597zM777 57z" />
    <glyph glyph-name="uniE648" unicode="&#xe648;" 
d="M817 447q-1 0 -4 3l-234 233q-3 3 -2 4l53 53l3 -3l234 -233q3 -3 2 -4zM932 695l-108 108q-21 21 -47.5 26t-48.5 -7q-10 -5 -17 -12l-33 -33q-3 -3 -6 -7l1 -1l224 -224l2 -2q4 3 7 7l32 32q8 7 13 17q11 22 6 49t-25 47zM398 30q-1 -3 93.5 91t189.5 189l95 95
q5 5 4 6l-49 49q-1 1 -5 -4l-373 -373q0 -1 -5 -3l-4 -3q-143 -41 -147 -41q-1 -1 -5 4l-9 8l-4 5q-14 12 -14 15t45 157l371 373q5 5 4 6l-46 46q0 1 -5 -4l-378 -378q-5 -5 -6 -7l-79 -268q-6 -9 -6 -19q0 -15 10.5 -25.5t25.5 -10.5q10 0 19 5h3q256 76 260 79zM688 503
l-62 62q-1 1 -5 -4l-373 -373q-4 -4 -4 -5l50 -11q4 -2 5 -6v-1l7 -44q2 1 5 4l373 373q4 4 4 5zM688 503z" />
    <glyph glyph-name="uniE649" unicode="&#xe649;" 
d="M623 599h-187q-15 0 -26 -10.5t-11 -26.5v-112q0 -16 11 -26.5t26 -10.5h74l75 -64l15 64h23q16 0 27 10.5t11 26.5v112q0 16 -11 26.5t-27 10.5v0zM417 386q-20 0 -31.5 10t-11.5 27v127h-12q-16 0 -27 -11t-11 -27v-99q0 -16 11 -27t27 -11h24l14 -63l75 63h40l-21 11
h-14h-32h-31v0zM802 708q-6 0 -10 -4t-4 -10v-635q0 -5 -4 -9t-9 -4h-512q-11 0 -19 8t-8 19.5t8 19.5t19 8h462q17 0 29 12t12 29v567q0 17 -12 29t-29 12h-476q-17 0 -29 -12t-12 -29v-636q0 -2 1 -3q1 -22 16.5 -37t37.5 -15h513q17 1 28.5 13t11.5 28v635q0 6 -4 10
t-10 4v0zM236 190v519q0 5 4 9t9 4h476q5 0 9.5 -4t4.5 -9v-567q0 -6 -4.5 -10t-9.5 -4h-462q-14 0 -27 -8v22v48zM754 87h-489q-6 0 -10 -4t-4 -10t4 -10t10 -4h489q6 0 10 4t4 10t-4 10t-10 4v0zM754 87z" />
    <glyph glyph-name="uniE64A" unicode="&#xe64a;" 
d="M929 651q-39 57 -105 68.5t-120 -29.5q-12 -9 -23 -22q-80 44 -169 45q-88 -1 -169 -45q-12 13 -23 22q-54 41 -120 29.5t-104.5 -69t-28 -127t64.5 -110.5q9 -7 23 -14q-9 -64 12.5 -125.5t67.5 -110.5q7 -8 12 -13q20 -19 41 -34l1 -1l15 -9v-1q7 -4 15 -9l1 -1
q5 -2 15 -8h1h1q3 -2 8 -4.5t7 -2.5l2 -2q10 -4 15 -5q2 -1 3 -2q4 -1 15 -5h1q2 -1 3 -1l14 -4q1 -1 3 -1l1 -1q3 0 7.5 -1.5t7.5 -1.5l5 -1q5 -1 14 -3q4 -1 6 -1l14 -2h3q3 0 4 -1q2 0 7 -0.5t7 -0.5h6q11 -1 22 -1v0q10 0 21 1h7l6 1h8q1 1 4 1h3q1 0 4 0.5t5.5 1
t4.5 0.5q4 1 6 1q9 2 14 3q1 0 2.5 0.5t2.5 0.5q10 2 14 3q1 0 2.5 0.5t2.5 0.5q3 1 14 5q3 0 4 1q5 2 15 5q1 1 2 1q9 3 15 6h1l1 1q9 4 16 7l1 1q8 4 15 8h1q11 7 16 10q39 25 69 57q46 50 67 111.5t13 125.5q14 7 22 14q55 41 65.5 110.5t-27.5 127.5zM179 487q-5 3 -9 6
q-27 21 -32.5 57t14.5 65.5t53.5 35t61.5 -15.5q6 -4 12 -11q-67 -56 -100 -137zM621 506q11 0 19.5 -12t8.5 -29.5t-8.5 -30t-20 -12.5t-20 12.5t-8.5 30t8.5 29.5t20.5 12zM403 506q12 0 20.5 -12t8.5 -29.5t-8.5 -30t-20 -12.5t-20 12.5t-8.5 30t8.5 29.5t19.5 12z
M676 238q-10 -53 -57 -89t-107 -36t-107 36t-57 89q-10 47 25 88q23 28 60 44t79 16t79 -16t60 -44q35 -41 25 -88zM854 493l-9 -6q-33 81 -99 137q5 7 11 11q28 21 62 15.5t54 -35t14 -65.5t-33 -57zM512 156q36 0 65 16t43 44q2 6 -3 9q-7 3 -9 -3q-12 -23 -35.5 -36.5
t-53.5 -15.5v79q16 2 32 15.5t24 30.5q8 19 -11.5 32t-53.5 12.5t-51.5 -14t-7.5 -32.5q8 -16 23.5 -28t30.5 -15v-80q-30 2 -53.5 15.5t-34.5 36.5q-3 6 -9 3t-3 -9q13 -28 42 -44t65 -16zM512 156z" />
    <glyph glyph-name="uniE64B" unicode="&#xe64b;" 
d="M728 668q-35 13 -74 12q-30 -1 -62 -9q-2 0 -8.5 -1.5t-9.5 -2.5l12 6q40 17 89 12q-21 14 -54 14t-57 -15q12 8 23 13q67 33 112 15q-19 15 -45 22q43 9 97 -6q-22 23 -64 26q53 13 100 -5q-21 23 -51 36q59 1 116 -36q-25 33 -59 52q35 0 71 -14t59 -36
q-30 47 -80 66.5t-109 10.5q-58 -10 -113 -48.5t-85 -96.5q-2 -5 -5 -10q-13 21 -30 38q-44 45 -92.5 60.5t-82.5 0.5q-30 -11 -48 -44t-12 -74q-2 21 9 43.5t27 33.5q-12 -25 -16 -57q15 44 47 62q-13 -20 -19 -45q20 28 53 33q-23 -15 -31 -40q27 27 57 34
q-15 -15 -25 -35q25 29 84 22q12 -2 23 -4v-1q-21 5 -42.5 -2.5t-35.5 -24.5q-84 -3 -150 -39.5t-92 -108.5q39 54 106 86q-23 -31 -35 -67q41 52 89 76q-20 -25 -29 -52q32 31 79 48q-16 -11 -29 -25q-82 -82 -104 -214q38 87 87 150q-10 -44 -9 -88q26 82 52 121
q-7 -35 -5 -65q17 49 47 83q-16 -36 -13 -66q12 35 25 61v-2l1 1q2 -8 7 -14q0 -8 1 -13l2 10q11 -11 25 -13q-86 -192 -89 -363q-56 -9 -106 -34t-75 -49.5t-25 -38.5q0 -13 30.5 -27t91.5 -24.5t135.5 -10.5t135.5 10.5t91.5 24.5t30.5 27q0 11 -19 31t-51 41t-81 36.5
t-99 16.5q4 143 70 303q10 -5 21 -5q18 0 31.5 13.5t13.5 31.5v6q8 -4 17 -4q19 0 32.5 13.5t13.5 31.5q0 2 -1 8q10 -21 13 -44q8 20 0.5 48t-26.5 44h1l16 -16q19 -21 29 -46t7 -45q9 20 10 43q17 -37 12 -83q16 22 11 58q21 -42 12 -85q17 21 23 49q12 -53 -16 -103
q27 25 38 56q5 -31 -5 -62t-31 -47q43 21 56 68.5t-6 94.5q-14 41 -46 75q-3 15 -9 29q36 -32 55 -84q5 32 -18 68q42 -33 57 -86q6 30 -1 64q36 -47 40 -119q12 41 8 81q20 -29 31 -67.5t10 -73.5q16 57 2.5 110t-56.5 96q-45 46 -109 65zM504 663q-45 10 -91 11
q54 17 101 -13q-9 2 -10 2zM613 648q-2 1 -5 2q9 -3 13 -4q-1 0 -4 1t-4 1zM682 66q2 -5 2 -9q0 -31 -79 -52t-190.5 -21t-190.5 21t-79 52q0 4 2 9q-46 -20 -46 -44q0 -35 92 -60t221.5 -25t221.5 25t92 60q0 24 -46 44zM682 66z" />
    <glyph glyph-name="uniE64C" unicode="&#xe64c;" 
d="M804 492q-23 0 -46 -8q15 79 -14 145t-86 102q-36 22 -77.5 27t-86.5 -13t-80 -61q-37 45 -85 63.5t-100 7.5q-63 -14 -107.5 -65.5t-54.5 -121.5q-3 -13 -1.5 -33t3 -42.5t12.5 -51t25 -57.5t41 -62.5t60.5 -65.5t83.5 -67.5t110 -68.5q6 -3 13 -3t13 3q36 20 70 41
q64 -81 187 -149q6 -3 13 -3t13 3q147 81 209 180q55 88 34 173q-13 55 -55 91t-94 36zM697 70q-53 29 -92.5 61t-60.5 60t-34 53t-16 47.5t-3 35.5t3 25q9 36 36 59.5t60 23.5q50 0 84 -55q8 -13 23 -13t23 13q34 55 84 55q33 0 60 -23.5t36 -59.5q3 -12 3 -25.5
t-2.5 -35.5t-16 -47t-34.5 -53t-60.5 -60t-92.5 -61z" />
    <glyph glyph-name="uniE64D" unicode="&#xe64d;" 
d="M956 441q-92 54 -171 115t-117.5 99t-78 82t-41.5 45q-16 16 -33 16t-26 -8l-9 -8q-163 -226 -342 -316q-39 -19 -62 -25q-36 -35 45 -49q22 -3 32 -3q45 -145 45 -419h626q13 158 29 265t21.5 128t8.5 28q28 0 45.5 5.5t23 12.5t7 14.5t-0.5 12.5zM737 70h-445
q-5 118 -15 204.5t-17 114.5l-7 28q35 16 75.5 47t70 60t59 63t39.5 46t15 20q28 -31 66 -65.5t73.5 -62t67 -50t50.5 -35.5l19 -13q-16 -54 -29 -145t-17.5 -147.5t-4.5 -64.5z" />
    <glyph glyph-name="uniE64E" unicode="&#xe64e;" 
d="M933 -4q-6 12 -20 8q-6 -1 -17.5 -4t-13.5 -4l-12 -3q-44 158 -67 238l6 5q12 9 22 26q12 20 19 47q12 44 13 101q1 30 -2 64q-2 30 -4 48q-2 21 -7 51q-5 32 -14 63q-22 78 -61 166q-1 4 -3 7q-8 12 -21.5 17.5t-29.5 1.5q-2 -1 -71 -20q-97 -26 -102 -28
q-15 -4 -24 -16t-10 -26v-6l1 -5q1 -21 5 -46q3 -22 9 -52q7 -38 15 -61q18 -60 46 -125q23 -54 44 -89q26 -44 49 -72q19 -23 37 -37q19 -14 39 -18l11 -2q18 -62 68 -240q-4 -1 -7 -2q-42 -11 -48 -13q-12 -3 -12 -15.5t11 -16.5h2v-1h7q1 0 8 2.5t11 2.5q52 14 110 29
q9 3 13 9l2 5v7q-1 0 -1 2l-1 2v0zM563 631q-10 53 -11 64q-2 9 -4 40q-1 10 10 13q7 2 19 5.5t22.5 6t19.5 5.5q37 10 109 29q4 1 6 1q8 1 11 -7q20 -48 22 -52q19 -50 34 -98q0 -1 0.5 -2.5t0.5 -2.5q-172 -11 -237 -15q-2 12 -2 13zM469 781q-27 8 -171 47q-3 0 -7 1
t-5 2h-7l-3 -1q-25 -4 -36 -28q0 -1 -0.5 -2t-0.5 -2q-19 -43 -34 -87q-18 -49 -27 -84q-14 -53 -21 -128q-1 -15 -3 -52q-2 -43 2 -82q4 -32 11 -58q10 -32 25 -53q11 -16 23 -23l1 -1q-24 -86 -66 -234q0 1 -1 1h-1q-34 9 -36 9q-8 2 -13.5 -1.5t-7.5 -9.5l-2 -2v-5l2 -2
q3 -10 14 -13q20 -5 113 -29l15 -4q8 -2 14.5 3t6.5 13q0 13 -13 17l-22 5l-18 5q-4 1 -18 5q6 21 30 106.5t37 131.5q7 1 8 2q19 4 38 18t37 37q36 44 67 102q25 50 50.5 118.5t34.5 112.5q15 75 17 114q1 10 0 15q-6 29 -33 36zM469 736l-2 -30q-4 -29 -12 -70
q0 -1 -0.5 -2t-0.5 -2l-236 16q1 0 1.5 3t1.5 4q21 65 48 129l2 4q4 11 15 8q2 -1 5 -1.5t6 -1.5t5 -1q154 -42 157 -43q5 -1 8 -4q3 -4 2 -9zM469 736z" />
    <glyph glyph-name="uniE64F" unicode="&#xe64f;" 
d="M658 266v1h-1zM643 285q2 -4 4 -6q0 1 -0.5 1.5t-1.5 0.5q0 1 -2 4zM914 217q-29 14 -51.5 38.5t-17.5 52.5q3 1 6 3.5t6 2.5q5 15 -6 34.5t-12 29.5q15 6 15.5 15.5t-7 18.5t-11.5 19t2 18q-1 19 -25.5 34.5t-29.5 30.5q27 3 37.5 17.5t14 42t8.5 38.5q-7 9 -5 28t-6 29
q1 1 2.5 8t4.5 9q-2 10 -5 24q14 40 2 110q-15 11 -37.5 10.5t-42.5 -8.5q-32 -13 -68.5 -49t-63.5 -72q-37 -52 -70 -145q-10 -12 -7 -25q0 -1 1 -3q-5 -20 -7 -22q1 -1 3.5 -4.5t3.5 -4.5q24 -42 37 -73q20 -43 30 -85q23 -31 28 -42q3 -9 7 -14.5t8 -3.5
q2 -17 15.5 -36.5t28.5 -24.5q3 0 6 3t7 3q7 -3 14 -14.5t15.5 -18t22.5 -1.5q2 12 8 16.5t12 4.5t18 -2.5t17 -2.5q3 14 12 18t21 -1t23.5 -14t21.5 -19q2 -2 7 -8.5t7.5 -8.5t7 -7t7.5 -7l7 -5q5 -3 8 -3t7.5 0.5t8.5 3.5t9 7q-1 16 -7 26.5t-11 13.5t-19 8t-18 7z
M650 289l2 -2q1 -1 1 -2q1 -1 2 -1q-4 2 -5 5zM666 270l-1 1h1v-1zM577 420q-19 44 -37 73q-5 8 -6 10q-1 1 -15 19q17 19 7 43q-2 3 -7 10q0 22 1.5 44.5t8.5 55.5t26.5 58t48.5 34q2 -3 9 -3q5 0 8.5 3t3.5 7q0 5 -3.5 8t-8.5 3q-11 0 -12 -9q-30 -8 -50.5 -32
t-28.5 -55.5t-10.5 -55.5t-2.5 -49q-15 10 -34 4q-23 137 48 177q3 -1 6 -1q5 0 9 3t4 7q0 5 -4 8t-9 3t-8.5 -3t-3.5 -8q-78 -46 -51 -192q-11 -8 -14.5 -21.5t1.5 -26.5q11 -25 37 -26q5 -44 34 -111q23 -53 47 -87.5t36 -29.5q3 1 5 8q3 13 -5 48q-9 36 -30 84zM438 15
q-1 -4 -7 -17.5t-7 -19.5t2.5 -17.5t14.5 -23.5q6 0 11 1.5t8 4t5.5 5t3.5 8t1.5 8.5t0 10t-0.5 10t-1 11t-1 11q-3 33 8 57.5t34 9.5q4 4 8.5 12t8 12.5t8 8.5t11 3t14.5 -6q13 6 14 16.5t-2.5 23.5t-0.5 21q3 2 7 2.5t6 1.5q7 16 2 39t-16 35q8 4 -3 24q-4 12 -11 50
q-22 35 -41 79q-13 30 -27 78q0 2 -1 5.5t-1 5.5q-3 0 -20 10q-1 2 -2 3q-7 11 -23 12q-90 41 -153 49q-33 6 -90 4t-88 -16q-20 -8 -37.5 -25.5t-17.5 -34.5q43 -56 82 -74q8 -12 14 -20q3 1 9.5 -2.5t7.5 -4.5q2 -12 17 -23.5t16 -23.5q12 -4 28 -15t26.5 -17.5t26 -5.5
t32.5 14q8 -14 2 -43.5t7 -41.5q10 0 14.5 -10.5t6 -21t8.5 -17.5t21 0q7 -8 14 -29t20 -28q3 2 7 2.5t6 2.5q17 -11 23 -32.5t4 -42t-9 -38.5v0zM568 255q2 -2 1 -7v3v1q0 2 -1 3zM571 231v1v-1zM571 231z" />
    <glyph glyph-name="uniE650" unicode="&#xe650;" 
d="M174 739h676q45 0 77 -31.5t32 -77.5v-399h-378q-3 0 -8.5 0.5t-20.5 5.5t-29 13t-30.5 26t-27.5 42q-2 3 -11 55.5t-17.5 103.5t-8.5 52q26 35 37 72q5 17 6.5 37t1.5 32l-1 11q-9 2 -23.5 3t-45.5 -6t-47 -26q-11 -12 -16 -30t-5.5 -35t1 -32t3.5 -24l2 -10
q-40 14 -72 15q-37 1 -58 -15q-33 -23 -37 -72q-2 -30 15.5 -60t50.5 -35q59 -8 72 29q10 28 -12 51q-18 21 -30 3q-1 -1 -1 -3q-7 -16 -1.5 -20t12.5 -7t3 -9q-5 -8 -17.5 -12t-18.5 -3q-19 6 -30.5 25t-5.5 48q3 20 14 30t20 12t24 2q31 0 54.5 -16t34.5 -39.5t16 -45
t4 -37.5q-2 -33 -15 -58q-10 -21 -33.5 -36.5t-49 -22t-50 -10.5t-40.5 -4h-16q-45 0 -77 32t-32 77v290q0 46 32 77.5t77 31.5zM803 507h-67q-15 0 -17 10q-3 10 1 17l67 110h-62v23h86q16 -7 8 -23l-64 -108q-1 -3 1 -5t7 -2h58v-8q0 -14 -18 -14zM712 507h-29v167h29v-36
h7v-22h-7v-109zM704 449h88q12 0 20.5 -6t8.5 -16v-36h-29v22q0 5 -4.5 9.5t-10.5 4.5h-80q-15 -22 -43 -36v29q20 16 29 43h29zM661 514h-7v145h21v-130q0 -6 -4.5 -10.5t-9.5 -4.5zM704 383l-21 -87h-29l21 87h29zM748 383h29q17 0 23 -18l21 -69h-29l-20 57q-4 9 -9 9
h-15v-66h-29v117h29v-30zM118 31v59q-19 5 -29 18.5t-10 35.5v42h21v-43q0 -17 7.5 -26t21 -9t20.5 9t7 26v43h21v-42q0 -22 -9.5 -35.5t-29.5 -18.5v-59h-20zM290 78q-4 -23 -18.5 -36t-35.5 -13q-7 0 -13.5 1.5t-12.5 5.5q-13 8 -20 20.5t-7 27.5q0 11 4 21t11.5 18
t17.5 12t21 4q16 0 28.5 -8.5t20.5 -24.5l-70 -39l-8 15l52 29q-5 5 -11 7.5t-13 2.5q-14 0 -23.5 -10.5t-9.5 -26t9.5 -26.5t23.5 -11t23 9t11 25zM390 31v53q0 16 -9 26.5t-24 10.5t-25 -10t-10 -27q0 -16 10 -26.5t25 -10.5q7 0 13.5 2.5t13.5 7.5v-21q-7 -3 -14 -5
t-15 -2q-7 0 -14.5 2.5t-13.5 6.5q-12 8 -18 20t-6 26q0 24 15 39.5t38 15.5q16 0 28.5 -7.5t19.5 -21.5q3 -6 4 -13t1 -22v-44h-19zM434 31v106h17v-16q5 10 13.5 14t23.5 4h5v-19h-3q-20 0 -28.5 -9t-8.5 -30v-50h-19zM504 186h19v-102q0 -17 9.5 -27t24.5 -10t24.5 10
t9.5 27q0 16 -9.5 26.5t-25.5 10.5q-7 0 -13.5 -2.5t-13.5 -7.5v20q7 4 14 6t15 2t15.5 -2.5t13.5 -6.5q11 -8 17 -20t6 -26q0 -24 -15 -39.5t-38 -15.5q-15 0 -28 7.5t-19 21.5q-3 6 -4.5 13t-1.5 21v94zM624 84q0 11 4 21t12 18q7 8 17 12t20.5 4t20.5 -4t17.5 -12
t11.5 -18t4 -21t-4 -21t-11.5 -18t-17.5 -12t-20.5 -4t-20.5 4t-17.5 12t-11.5 18t-4 21zM643 84.5q0 -15.5 10 -26.5t24 -11t24 11t10 26.5t-9.5 26t-24 10.5t-24.5 -10.5t-10 -26zM744 84q0 11 4 21t12 18t17.5 12t20.5 4t20.5 -4t17 -12t11.5 -18t4 -21t-4 -21t-11.5 -18
t-17 -12t-20.5 -4t-20.5 4t-17.5 12t-12 18t-4 21zM764 84.5q0 -15.5 10 -26.5t24 -11t24 11t10 26.5t-10 26t-24 10.5t-24 -10.5t-10 -26zM871 31v155h19v-88h9q8 0 13 3.5t11 13.5l14 22h22l-16 -25q-4 -7 -8 -11.5t-8 -6.5q14 -2 20 -10.5t6 -23.5v-29h-19v27
q0 11 -5 16.5t-16 5.5h-23v-49h-19z" />
    <glyph glyph-name="uniE651" unicode="&#xe651;" 
d="M768 721q45 -32 80 -72t60 -87t38 -99.5t13 -106.5q0 -93 -35.5 -174.5t-96 -141.5t-142 -95.5t-174.5 -35.5q-91 0 -172.5 35.5t-142.5 95.5t-96 142q-35 81 -35 174q0 53 12.5 104t35.5 97t57 85.5t76 71.5q22 16 47.5 12t41.5 -24.5t12 -47t-25 -41.5
q-63 -46 -96.5 -113t-33.5 -144q0 -66 25 -124.5t68.5 -102t102 -68.5t124 -25t124 25t102.5 69q43 43 68.5 101.5t25.5 124.5q0 78 -36 147.5t-101 114.5q-22 15 -26.5 40.5t10.5 47.5q15 21 41 25.5t48 -10.5v0zM511 353q-25 0 -43.5 18.5t-18.5 44.5v379q0 26 18.5 45
t43.5 19q27 0 45.5 -19t18.5 -45v-379q0 -26 -18.5 -44.5t-45.5 -18.5v0zM511 353z" />
    <glyph glyph-name="uniE652" unicode="&#xe652;" 
d="M958 97q4 -28 -12.5 -51t-44.5 -28l-114 -18q-27 -4 -50 12.5t-28 44.5l-97 611q-2 15 2 27q3 13 10.5 24t19.5 18t26 10l113 18q28 5 50.5 -12t27.5 -46zM530 769q28 0 48 -20t20 -48v-632q0 -29 -20 -49t-48 -20h-99q-28 0 -48 20t-20 49v632q0 28 15.5 48t44.5 20h107
zM530 292q9 0 16 9t7 21q0 13 -7 21.5t-16 8.5h-99q-9 0 -15.5 -8.5t-6.5 -21.5q0 -12 6.5 -21t15.5 -9h99zM530 412q9 0 16 9t7 22t-7 21.5t-16 8.5h-99q-9 0 -15.5 -8.5t-6.5 -21.5t6.5 -22t15.5 -9h99zM233 769q28 0 48.5 -20t20.5 -48v-632q0 -29 -20.5 -49t-48.5 -20
h-99q-28 0 -48.5 20t-20.5 49v632q0 28 20.5 48t48.5 20h99zM138 532q-10 0 -17 -8.5t-7 -21.5q0 -12 7 -21t17 -9h91q10 0 16.5 9t6.5 21q0 13 -6.5 21.5t-16.5 8.5h-91zM233 235q10 0 16 8.5t6 20.5q0 14 -6 22t-16 8h-95q-10 0 -17 -8t-7 -22q0 -12 7 -20.5t17 -8.5h95z
M233 351q10 0 16 8.5t6 22t-6 22t-16 8.5h-95q-10 0 -17 -8.5t-7 -22t7 -22t17 -8.5h95zM233 351z" />
    <glyph glyph-name="uniE653" unicode="&#xe653;" 
d="M931 -63q-12 0 -20 9l-399 398l-399 -398q-8 -9 -19.5 -9t-20 8.5t-8.5 20t9 19.5l398 399l-398 399q-9 8 -9 19.5t8.5 20t20 8.5t19.5 -9l399 -398l399 398q8 9 19.5 9t20 -8.5t8.5 -20t-9 -19.5l-398 -399l398 -399q9 -8 9 -19.5t-8.5 -20t-19.5 -8.5zM931 -63z" />
    <glyph glyph-name="uniE654" unicode="&#xe654;" 
d="M335 654q-112 0 -191 -79t-79 -191t79 -191t191 -79h354q112 0 191 79t79 191t-79 191t-191 79h-354zM335 140q-102 0 -173.5 71.5t-71.5 173t71.5 173t173 71.5t173 -71.5t71.5 -173t-71.5 -173t-172.5 -71.5zM278 513q-1 -20 -1 -41t1 -47h-59l-3 -47h63q-3 -18 -4 -37
l-5 -61q-3 -25 -22.5 -30.5t-40.5 -7.5q-3 17 -9 32q30 -1 39 1t10 17l5 64h-62q5 42 5 89h58v48q-42 0 -67 -2v24q21 -2 40 -2h52zM369 233q1 30 1 56h-50q-19 -1 -36 -2v24q17 -1 36 -2h50v34h-70q1 33 1 70t-1 64h94q11 27 20 56q14 -7 30 -12q-13 -14 -25 -44h45
q-1 -24 -1 -65.5t1 -68.5h-70v-34h43q17 0 45 1v-22q-26 1 -43 1h-45q0 -29 1 -56h-26zM325 524l24 11q9 -17 18 -44q-12 -3 -26 -10q-5 23 -16 43zM370 422v36h-45v-36h45zM370 364v37h-45v-37h45zM440 422v36h-46v-36h46zM440 364v37h-46v-37h46z" />
    <glyph glyph-name="uniE655" unicode="&#xe655;" 
d="M689 654h-354q-112 0 -191 -79t-79 -191t79 -191t191 -79h354q112 0 191 79t79 191t-79 191t-191 79zM689 140q-101 0 -172.5 71.5t-71.5 173t71.5 173t173 71.5t173 -71.5t71.5 -173t-71.5 -173t-173.5 -71.5zM633 513q-1 -20 -1 -41t1 -47h-59l-3 -47h63q-2 -18 -4 -37
l-5 -61q-2 -25 -22 -30.5t-41 -7.5q-2 17 -9 32q30 -1 39 1t10 17l5 64h-61q5 42 5 89h58v48q-43 0 -67 -2v24q20 -2 40 -2h51zM724 233q2 30 2 56h-51l-36 -2v24q17 -1 36 -2h51v34h-71q1 33 1 70t-1 64h94q11 27 20 56q14 -7 30 -12q-13 -14 -25 -44h46q-2 -24 -2 -65.5
t2 -68.5h-71v-34h43q17 0 46 1v-22q-26 1 -44 1h-45q0 -29 1 -56h-26zM681 524l23 11q9 -17 18 -44q-12 -3 -26 -10q-5 23 -15 43zM726 422v36h-45v-36h45zM726 364v37h-45v-37h45zM795 422v36h-46v-36h46zM795 364v37h-46v-37h46z" />
    <glyph glyph-name="uniE656" unicode="&#xe656;" 
d="M828 700q-63 63 -145 97t-171 34t-171 -34t-145 -97t-97 -144.5t-34 -171.5t34 -171.5t97 -144.5t145 -97t171 -34t171 34t145 97t97 144.5t34 171.5t-34 171.5t-97 144.5zM540.5 128.5q-11.5 -11.5 -28.5 -11.5t-28.5 11.5t-11.5 28.5t11.5 28.5t28.5 11.5t28.5 -11.5
t11.5 -28.5t-11.5 -28.5zM592 364q-51 -41 -51 -95l-1 -11q-1 -11 -9.5 -19t-20.5 -8t-20.5 8.5t-8.5 20.5v3q0 52 10 75.5t45 55.5l25 21q48 44 48 87q0 37 -26 60t-67 23q-104 0 -105 -119v-1v-1q-1 -13 -10 -22t-22 -9t-22 9t-10 22q0 81 46.5 127.5t125.5 46.5
q71 0 114.5 -38.5t43.5 -101.5q0 -64 -85 -134z" />
    <glyph glyph-name="uniE657" unicode="&#xe657;" 
d="M371 397h294v-60h-294v60zM369 301h294v-60h-294v60zM959 611q0 13 -9 22t-22 9h-145v153h-540v-153h-147q-13 0 -22 -9t-9 -22v-380h178v-70h2l198 -188v1v-1h340v258h83h93v267v3v110zM862 607q14 0 24.5 -10.5t10.5 -25t-10.5 -25t-25 -10.5t-25 10.5t-10.5 25
t10.5 25t25.5 10.5zM301 736h424v-94h-424v94zM725 408v-388h-247v175h-177v213h-58v-106h-49v169h636v-169h-47v106h-58zM725 408z" />
    <glyph glyph-name="uniE658" unicode="&#xe658;" 
d="M512 590q-85 0 -145.5 -60.5t-60.5 -145.5t60.5 -145.5t145.5 -60.5t145.5 60.5t60.5 145.5t-60.5 145.5t-145.5 60.5zM512 693q14 0 24 10t10 25v68q0 15 -10 25t-24 10t-24 -10t-10 -25v-68q0 -15 10 -25t24 -10zM512 75q-14 0 -24 -10t-10 -25v-68q0 -15 10 -25
t24 -10t24 10t10 25v68q0 15 -10 25t-24 10zM924 418h-68q-15 0 -25 -10t-10 -24t10 -24t25 -10h68q15 0 25 10t10 24t-10 24t-25 10zM203 384q0 14 -10 24t-25 10h-68q-15 0 -25 -10t-10 -24t10 -24t25 -10h68q15 0 25 10t10 24zM779 603l49 48q10 10 10 24.5t-10 24.5
t-24.5 10t-24.5 -10l-48 -49q-10 -10 -10 -24t10 -24t24 -10t24 10zM245 165l-49 -48q-10 -10 -10 -24.5t10 -24.5t24.5 -10t24.5 10l48 49q10 10 10 24t-10 24t-24 10t-24 -10zM779 165q-10 10 -24 10t-24 -10t-10 -24t10 -24l48 -49q10 -10 24.5 -10t24.5 10t10 24.5
t-10 24.5zM245 700q-10 10 -24.5 10t-24.5 -10t-10 -24.5t10 -24.5l49 -48q10 -10 24 -10t24 10t10 24t-10 24zM245 700z" />
    <glyph glyph-name="uniE659" unicode="&#xe659;" 
d="M65 725h139v-682h-139v682zM959 444h-453l179 188l-88 93l-326 -341l325 -341l88 93l-179 188h454v120zM959 444z" />
    <glyph glyph-name="uniE65A" unicode="&#xe65a;" 
d="M959 725v-682h-139v682h139zM65 324h454l-179 -188l88 -93l325 341l-326 341l-88 -93l179 -188h-453v-120zM65 444z" />
    <glyph glyph-name="uniE65B" unicode="&#xe65b;" 
d="M405 296l10 -10l106 105l-11 9zM634 321l-11 8l-105 -104l10 -10zM599 385l-10 10l-169 -170l10 -10zM266 237q0 -10 7.5 -17.5t18 -7.5t18 7.5t7.5 17.5q0 12 -12 22v84q12 9 12 21q0 11 -7.5 18t-18 7t-18 -7t-7.5 -18q0 -12 11 -20v-86q-11 -9 -11 -21zM134 429
q21 0 36 14.5t16 39.5h10q1 -25 16 -39.5t36 -14.5t36 14.5t16 39.5h10q1 -25 16 -39.5t36 -14.5t36 14.5t16 39.5h10q1 -25 16 -39.5t36 -14.5t36 14.5t16 39.5h10q1 -25 16 -39.5t36 -14.5t35.5 14.5t16.5 39.5h10q1 -25 16 -39.5t36 -14.5t35.5 14.5t16.5 39.5h-2v12
h-676v-12h4q1 -25 16 -39.5t36 -14.5v0zM135 750h562v-28h-562v28zM691 705h-546l-66 -193h677zM194 523h-28l42 170h29zM307 523h-28l26 170h28zM430 523h-28v170h28v-170zM530 523l-26 170h28l27 -170h-29zM643 523l-42 170h28l42 -170h-28zM714 354v44h-45v-69
q21 16 45 25zM600 171h-227v238h-29v-238h-170v227h-39v-227h-42q-11 0 -19.5 -8.5t-8.5 -20t8.5 -20t19.5 -8.5h521q-12 27 -14 57zM802.5 330q-64.5 0 -110.5 -45.5t-46 -110.5t46 -110.5t110.5 -45.5t110.5 45.5t46 110.5t-46 110.5t-110.5 45.5zM905 169q0 -8 -8 -9
l-17 -3q-6 -1 -12 -14q-3 -6 1 -12l10 -14q5 -6 -1 -12l-7 -7q-5 -5 -12 -1l-13 10q-5 4 -19 -1q-7 -2 -8 -10l-2 -16q-1 -8 -9 -8h-11q-8 0 -9 8l-2 16q-1 6 -14 13q-6 3 -13 -2l-13 -10q-7 -4 -12 1l-7 7q-6 6 -1 12l9 14q4 5 0 19q-3 6 -11 7l-16 3q-8 1 -8 9v10q0 8 8 9
l16 3q7 1 13 14q3 6 -2 12l-9 14q-5 6 1 12l7 7q5 6 12 1l13 -10q5 -4 19 1q6 2 8 10l2 16q1 8 9 8h11q8 0 9 -8l2 -16q1 -6 14 -13q6 -3 13 2l13 10q7 5 12 -1l7 -7q6 -6 1 -12l-10 -14q-3 -5 1 -18q3 -7 11 -8l16 -3q8 -1 8 -9v-10zM802.5 214q-16.5 0 -28.5 -11.5
t-12 -28.5t12 -28.5t28.5 -11.5t28.5 11.5t12 28.5t-12 28.5t-28.5 11.5zM820 157q-7 -7 -17.5 -7t-17.5 7t-7 17t7 17t17.5 7t17.5 -7t7 -17t-7 -17z" />
    <glyph glyph-name="uniE65C" unicode="&#xe65c;" 
d="M936 368l-424 370l-424 -370l-23 26l447 391l447 -391zM936 368zM860 -17h-280v216h-139v-216h-280v361l349 312l350 -312v-361zM615 18h210v311l-315 280l-313 -280v-311h208v216h210v-216zM615 18z" />
    <glyph glyph-name="uniE65D" unicode="&#xe65d;" 
d="M280 350q14 0 24 10t10 24t-10 24t-24 10t-24 -10t-10 -24t10 -24t24 -10v0zM280 350zM432 350q14 0 24 10t10 24t-10 24t-24 10t-24 -10t-10 -24t10 -24t24 -10v0zM432 350zM584 350q14 0 24 10t10 24t-10 24t-24 10t-24 -10t-10 -24t10 -24t24 -10v0zM584 350zM767 639
h-670q-3 0 -8.5 -1t-14.5 -8.5t-9 -22.5v-446q0 -15 8 -22.5t16 -8.5l8 -1h96v-160l159 160h415q4 0 9 1t14 8.5t9 22.5v446q0 15 -8 22.5t-16 8.5l-8 1v0zM753 175h-427l-19 -19l-68 -69v88h-128v418h642v-400v-18zM735 193zM927 799h-670q-4 0 -9 -1t-14 -9t-9 -22v-96h46
v82h642v-419h-82v-46h96q3 0 8.5 1t14.5 9t9 22v447q0 14 -8 22t-16 9l-8 1v0zM927 799z" />
    <glyph glyph-name="uniE65E" unicode="&#xe65e;" 
d="M516 363h-4h-10q-84 4 -142.5 65.5t-58.5 146.5q0 88 62 150.5t149 62.5t149 -62.5t62 -150.5q0 -87 -60.5 -149t-146.5 -63zM512 831q-105 0 -179 -75t-74 -181q0 -74 39 -135.5t102 -93.5q-89 -28 -156 -95q-57 -57 -95 -137.5t-38 -154.5q0 -9 6.5 -15.5t15 -6.5
t15 6.5t6.5 15.5q0 65 34.5 138t84.5 124q95 95 229 99h10q105 0 179 75t74 180.5t-74 180.5t-179 75zM780 251q-6 6 -14.5 6t-15 -6t-6.5 -15t7 -15q50 -51 84.5 -124t34.5 -138q0 -9 6.5 -15.5t15 -6.5t15 6.5t6.5 15.5q0 74 -38 154.5t-95 137.5zM780 251z" />
  </font>
</defs>
</svg>
